shantell--extrabold-tracked.ufo
<glyph name="exclam" format="2">
  <advance width="1309"/>
  <unicode hex="0021"/>
  <outline>
    <contour>
      <point x="735" y="600" type="curve" smooth="yes"/>
      <point x="735" y="684"/>
      <point x="696.3565217391" y="718"/>
      <point x="634" y="718" type="curve" smooth="yes"/>
      <point x="581.9615384615" y="718"/>
      <point x="566" y="684"/>
      <point x="568" y="639" type="curve" smooth="yes"/>
      <point x="570" y="571"/>
      <point x="563" y="513"/>
      <point x="563" y="461" type="curve" smooth="yes"/>
      <point x="563" y="397.0476190476"/>
      <point x="567" y="358"/>
      <point x="578" y="302" type="curve" smooth="yes"/>
      <point x="588" y="256"/>
      <point x="619" y="236"/>
      <point x="666" y="236" type="curve" smooth="yes"/>
      <point x="709" y="236"/>
      <point x="736" y="264"/>
      <point x="736" y="322" type="curve" smooth="yes"/>
      <point x="736" y="361"/>
      <point x="730" y="425"/>
      <point x="730" y="487" type="curve" smooth="yes"/>
      <point x="730" y="531"/>
      <point x="735" y="568"/>
    </contour>
    <contour>
      <point x="672" y="-13" type="curve" smooth="yes"/>
      <point x="729" y="-13"/>
      <point x="759" y="14"/>
      <point x="759" y="57" type="curve" smooth="yes"/>
      <point x="759" y="112"/>
      <point x="721" y="165"/>
      <point x="639" y="165" type="curve" smooth="yes"/>
      <point x="586" y="165"/>
      <point x="550" y="136"/>
      <point x="550" y="76" type="curve" smooth="yes"/>
      <point x="550" y="19"/>
      <point x="596" y="-13"/>
    </contour>
  </outline>
</glyph>
<glyph name="quotedbl" format="2">
  <advance width="1548.0"/>
  <unicode hex="0022"/>
  <outline>
    <contour>
      <point x="630.0" y="347" type="curve" smooth="yes"/>
      <point x="669.4615384615" y="347"/>
      <point x="696.9374907167" y="367.8258669967"/>
      <point x="711.0" y="407" type="curve" smooth="yes"/>
      <point x="740.0" y="488"/>
      <point x="749.0" y="582"/>
      <point x="735.0" y="647" type="curve" smooth="yes"/>
      <point x="726.988547129" y="684.0529695284"/>
      <point x="693.7368421053" y="715"/>
      <point x="637.0" y="715" type="curve" smooth="yes"/>
      <point x="584.0" y="715"/>
      <point x="558.0" y="677"/>
      <point x="564.0" y="621" type="curve" smooth="yes"/>
      <point x="570.0" y="569"/>
      <point x="561.0" y="505"/>
      <point x="546.0" y="461" type="curve" smooth="yes"/>
      <point x="531.0" y="416"/>
      <point x="573.0" y="347"/>
    </contour>
    <contour>
      <point x="897.0" y="347" type="curve" smooth="yes"/>
      <point x="935.0" y="347"/>
      <point x="961.0" y="368"/>
      <point x="975.0" y="407" type="curve" smooth="yes"/>
      <point x="1003.6871439407" y="488.1153725219"/>
      <point x="1012.8373241658" y="585.7669003614"/>
      <point x="999.0" y="651" type="curve" smooth="yes"/>
      <point x="990.6256560367" y="687.6377548392"/>
      <point x="959.0" y="715"/>
      <point x="904.0" y="715" type="curve" smooth="yes"/>
      <point x="850.0" y="715"/>
      <point x="829.0" y="678"/>
      <point x="831.0" y="621" type="curve" smooth="yes"/>
      <point x="833.0" y="568"/>
      <point x="823.0" y="505"/>
      <point x="812.0" y="445" type="curve" smooth="yes"/>
      <point x="802.0" y="389"/>
      <point x="841.0" y="347"/>
    </contour>
  </outline>
</glyph>
<glyph name="numbersign" format="2">
  <advance width="2004.0"/>
  <unicode hex="0023"/>
  <image fileName="numbersign.png" xScale="1.7590725526" yScale="1.7590725526" xOffset="11.9256325946" yOffset="-214.5705612106" color="0,0,0,0.3075"/>
  <outline>
    <contour>
      <point x="1024.0" y="710" type="curve" smooth="yes"/>
      <point x="1024.0" y="770"/>
      <point x="975.0" y="821"/>
      <point x="918.0" y="820" type="curve" smooth="yes"/>
      <point x="870.0" y="819"/>
      <point x="843.0" y="788"/>
      <point x="843.0" y="722" type="curve" smooth="yes"/>
      <point x="843.0" y="566"/>
      <point x="635.0" y="147"/>
      <point x="635.0" y="-21" type="curve" smooth="yes"/>
      <point x="635.0" y="-98"/>
      <point x="679.0" y="-137"/>
      <point x="733.0" y="-138" type="curve" smooth="yes"/>
      <point x="775.0" y="-139"/>
      <point x="817.0" y="-100"/>
      <point x="817.0" y="-50" type="curve" smooth="yes"/>
      <point x="817.0" y="130"/>
      <point x="1024.0" y="547"/>
    </contour>
    <contour>
      <point x="1313.0" y="769"/>
      <point x="1257.0" y="769" type="curve" smooth="yes"/>
      <point x="1212.0" y="769"/>
      <point x="1191.0" y="739"/>
      <point x="1191.0" y="688" type="curve" smooth="yes"/>
      <point x="1191.0" y="525"/>
      <point x="990.0" y="183"/>
      <point x="985.0" y="-85" type="curve" smooth="yes"/>
      <point x="984.0" y="-142"/>
      <point x="1025.0" y="-187"/>
      <point x="1089.0" y="-188" type="curve" smooth="yes"/>
      <point x="1134.0" y="-189"/>
      <point x="1167.0" y="-158"/>
      <point x="1167.0" y="-101" type="curve" smooth="yes"/>
      <point x="1167.0" y="171"/>
      <point x="1369.0" y="520"/>
      <point x="1369.0" y="665" type="curve" smooth="yes"/>
      <point x="1369.0" y="728"/>
    </contour>
    <contour>
      <point x="613.0" y="254" type="curve" smooth="yes"/>
      <point x="563.0" y="254"/>
      <point x="522.0" y="219"/>
      <point x="520.0" y="176" type="curve" smooth="yes"/>
      <point x="517.0" y="117"/>
      <point x="551.0" y="58"/>
      <point x="665.0" y="58" type="curve" smooth="yes"/>
      <point x="839.0" y="58"/>
      <point x="1125.0" y="110"/>
      <point x="1323.0" y="115" type="curve" smooth="yes"/>
      <point x="1427.0" y="119"/>
      <point x="1471.0" y="174"/>
      <point x="1469.0" y="228" type="curve" smooth="yes"/>
      <point x="1468.0" y="266"/>
      <point x="1447.0" y="287"/>
      <point x="1388.0" y="287" type="curve" smooth="yes"/>
      <point x="1145.0" y="287"/>
      <point x="856.0" y="254"/>
    </contour>
    <contour>
      <point x="816.0" y="613"/>
      <point x="725.0" y="613" type="curve" smooth="yes"/>
      <point x="663.0" y="613"/>
      <point x="638.0" y="581"/>
      <point x="638.0" y="536" type="curve" smooth="yes"/>
      <point x="638.0" y="491"/>
      <point x="662.0" y="437"/>
      <point x="775.0" y="425" type="curve" smooth="yes"/>
      <point x="944.0" y="405"/>
      <point x="1145.0" y="398"/>
      <point x="1375.0" y="398" type="curve" smooth="yes"/>
      <point x="1441.0" y="398"/>
      <point x="1480.0" y="444"/>
      <point x="1479.0" y="491" type="curve" smooth="yes"/>
      <point x="1478.0" y="535"/>
      <point x="1452.0" y="559"/>
      <point x="1405.0" y="559" type="curve" smooth="yes"/>
      <point x="859.0" y="559"/>
    </contour>
  </outline>
</glyph>
<glyph name="dollar" format="2">
  <advance width="1700"/>
  <unicode hex="0024"/>
  <outline>
    <contour>
      <point x="801" y="-9" type="curve" smooth="yes"/>
      <point x="1033" y="-9"/>
      <point x="1148" y="47"/>
      <point x="1148" y="179" type="curve" smooth="yes"/>
      <point x="1148" y="409"/>
      <point x="728" y="389.8763250883"/>
      <point x="728" y="451" type="curve" smooth="yes"/>
      <point x="728" y="504"/>
      <point x="839.9153429339" y="529.0343914872"/>
      <point x="1068" y="540" type="curve" smooth="yes"/>
      <point x="1116" y="542"/>
      <point x="1145" y="576"/>
      <point x="1145" y="615" type="curve" smooth="yes"/>
      <point x="1145" y="664"/>
      <point x="1117" y="710"/>
      <point x="1032" y="710" type="curve" smooth="yes"/>
      <point x="880" y="710"/>
      <point x="547" y="639"/>
      <point x="547" y="455" type="curve" smooth="yes"/>
      <point x="547" y="243"/>
      <point x="957" y="279"/>
      <point x="980" y="172" type="curve"/>
      <point x="911.7753078467" y="158.3550615693"/>
      <point x="872" y="158"/>
      <point x="776" y="158" type="curve" smooth="yes"/>
      <point x="687" y="158"/>
      <point x="666" y="185"/>
      <point x="624" y="185" type="curve" smooth="yes"/>
      <point x="574" y="185"/>
      <point x="562" y="164"/>
      <point x="562" y="129" type="curve" smooth="yes"/>
      <point x="562" y="59"/>
      <point x="646" y="-9"/>
    </contour>
    <contour>
      <point x="862" y="300" type="curve" smooth="yes"/>
      <point x="894" y="300"/>
      <point x="912" y="322"/>
      <point x="921" y="356" type="curve" smooth="yes"/>
      <point x="949" y="473"/>
      <point x="965.7916816535001" y="635.7999280634"/>
      <point x="942" y="750" type="curve" smooth="yes"/>
      <point x="933" y="785"/>
      <point x="897" y="811"/>
      <point x="857" y="811" type="curve" smooth="yes"/>
      <point x="807" y="811"/>
      <point x="766" y="765"/>
      <point x="774" y="717" type="curve" smooth="yes"/>
      <point x="788.509288625" y="629.94426825"/>
      <point x="801" y="511"/>
      <point x="800" y="403" type="curve" smooth="yes"/>
      <point x="799" y="336"/>
      <point x="807" y="299"/>
    </contour>
    <contour>
      <point x="843" y="340" type="curve" smooth="yes"/>
      <point x="810" y="340"/>
      <point x="784" y="320"/>
      <point x="777" y="278" type="curve" smooth="yes"/>
      <point x="751.4528941919" y="127.9107533773"/>
      <point x="745.6673727336" y="63.9936453972"/>
      <point x="760" y="-65" type="curve" smooth="yes"/>
      <point x="764" y="-97"/>
      <point x="801" y="-138"/>
      <point x="871" y="-138" type="curve" smooth="yes"/>
      <point x="908" y="-138"/>
      <point x="925" y="-113"/>
      <point x="923" y="-51" type="curve" smooth="yes"/>
      <point x="917.7228688415" y="42.2293171339"/>
      <point x="904" y="159"/>
      <point x="903" y="245" type="curve" smooth="yes"/>
      <point x="901" y="305"/>
      <point x="880" y="340"/>
    </contour>
  </outline>
</glyph>
<glyph name="percent" format="2">
  <advance width="1995"/>
  <unicode hex="0025"/>
  <outline>
    <contour>
      <point x="1275" y="523" type="curve" smooth="yes"/>
      <point x="1367" y="606"/>
      <point x="1337" y="715"/>
      <point x="1267" y="715" type="curve" smooth="yes"/>
      <point x="1238" y="715"/>
      <point x="1206" y="702"/>
      <point x="1168" y="666" type="curve" smooth="yes"/>
      <point x="1036" y="543"/>
      <point x="859" y="331"/>
      <point x="733" y="119" type="curve" smooth="yes"/>
      <point x="695" y="57"/>
      <point x="743" y="-21"/>
      <point x="804" y="-21" type="curve" smooth="yes"/>
      <point x="836" y="-21"/>
      <point x="863" y="-1"/>
      <point x="885" y="37" type="curve" smooth="yes"/>
      <point x="1003" y="243"/>
      <point x="1122" y="384"/>
    </contour>
    <contour>
      <point x="749" y="347" type="curve" smooth="yes"/>
      <point x="858" y="347"/>
      <point x="941" y="428"/>
      <point x="941" y="536" type="curve" smooth="yes"/>
      <point x="941" y="642"/>
      <point x="870" y="708"/>
      <point x="746" y="708" type="curve" smooth="yes"/>
      <point x="692" y="708"/>
      <point x="660" y="675"/>
      <point x="660" y="628" type="curve" smooth="yes"/>
      <point x="660" y="575"/>
      <point x="701" y="556"/>
      <point x="747" y="556" type="curve" smooth="yes"/>
      <point x="761" y="556"/>
      <point x="770" y="547"/>
      <point x="770" y="534" type="curve" smooth="yes"/>
      <point x="770" y="517"/>
      <point x="759" y="504"/>
      <point x="744" y="504" type="curve" smooth="yes"/>
      <point x="726" y="504"/>
      <point x="714" y="514"/>
      <point x="714" y="529" type="curve" smooth="yes"/>
      <point x="714" y="538"/>
      <point x="721" y="553"/>
      <point x="743" y="567" type="curve" smooth="yes"/>
      <point x="767" y="581"/>
      <point x="783" y="611"/>
      <point x="783" y="638" type="curve" smooth="yes"/>
      <point x="783" y="679"/>
      <point x="751" y="716"/>
      <point x="715" y="716" type="curve" smooth="yes"/>
      <point x="613" y="716"/>
      <point x="537" y="634"/>
      <point x="537" y="536" type="curve" smooth="yes"/>
      <point x="537" y="426"/>
      <point x="626" y="347"/>
    </contour>
    <contour>
      <point x="1266" y="-13" type="curve" smooth="yes"/>
      <point x="1385" y="-13"/>
      <point x="1461" y="65"/>
      <point x="1461" y="179" type="curve" smooth="yes"/>
      <point x="1461" y="295"/>
      <point x="1385" y="368"/>
      <point x="1253" y="368" type="curve" smooth="yes"/>
      <point x="1198" y="368"/>
      <point x="1165" y="341"/>
      <point x="1165" y="293" type="curve" smooth="yes"/>
      <point x="1165" y="234"/>
      <point x="1194" y="216"/>
      <point x="1234" y="216" type="curve" smooth="yes"/>
      <point x="1268" y="216"/>
      <point x="1290" y="199"/>
      <point x="1290" y="173" type="curve" smooth="yes"/>
      <point x="1290" y="157"/>
      <point x="1278" y="144"/>
      <point x="1261" y="144" type="curve" smooth="yes"/>
      <point x="1242" y="144"/>
      <point x="1231" y="156"/>
      <point x="1231" y="169" type="curve" smooth="yes"/>
      <point x="1231" y="188"/>
      <point x="1243" y="202"/>
      <point x="1276" y="208" type="curve" smooth="yes"/>
      <point x="1293" y="211"/>
      <point x="1300" y="238"/>
      <point x="1300" y="278" type="curve" smooth="yes"/>
      <point x="1300" y="315"/>
      <point x="1273" y="336"/>
      <point x="1232" y="336" type="curve" smooth="yes"/>
      <point x="1140" y="336"/>
      <point x="1054" y="262"/>
      <point x="1054" y="161" type="curve" smooth="yes"/>
      <point x="1054" y="66"/>
      <point x="1123" y="-13"/>
    </contour>
  </outline>
</glyph>
<glyph name="ampersand" format="2">
  <advance width="1713"/>
  <unicode hex="0026"/>
  <outline>
    <contour>
      <point x="929" y="508"/>
      <point x="966" y="508" type="curve" smooth="yes"/>
      <point x="1011" y="508"/>
      <point x="1052" y="546"/>
      <point x="1052" y="592" type="curve" smooth="yes"/>
      <point x="1052" y="625"/>
      <point x="1034" y="656"/>
      <point x="1002" y="671" type="curve" smooth="yes"/>
      <point x="942" y="698"/>
      <point x="883" y="710"/>
      <point x="804" y="710" type="curve" smooth="yes"/>
      <point x="613" y="710"/>
      <point x="538" y="600"/>
      <point x="538" y="494" type="curve" smooth="yes"/>
      <point x="538" y="420"/>
      <point x="560" y="346"/>
      <point x="748" y="253" type="curve" smooth="yes"/>
      <point x="969" y="144"/>
      <point x="1009" y="92"/>
      <point x="1009" y="28" type="curve" smooth="yes"/>
      <point x="1009" y="-34"/>
      <point x="969" y="-39"/>
      <point x="969" y="-93" type="curve" smooth="yes"/>
      <point x="969" y="-140"/>
      <point x="998" y="-166"/>
      <point x="1044" y="-166" type="curve" smooth="yes"/>
      <point x="1143" y="-166"/>
      <point x="1179" y="-46"/>
      <point x="1179" y="33" type="curve" smooth="yes"/>
      <point x="1179" y="155"/>
      <point x="1152" y="239"/>
      <point x="890" y="365" type="curve" smooth="yes"/>
      <point x="723" y="445"/>
      <point x="708" y="462.3360655738"/>
      <point x="708" y="490" type="curve" smooth="yes"/>
      <point x="708" y="520.1886792453"/>
      <point x="743" y="540"/>
      <point x="808" y="540" type="curve" smooth="yes"/>
      <point x="898" y="540"/>
    </contour>
    <contour>
      <point x="754" y="284" type="curve" smooth="yes"/>
      <point x="771" y="306"/>
      <point x="766" y="350"/>
      <point x="747" y="364" type="curve" smooth="yes"/>
      <point x="714" y="389"/>
      <point x="679" y="385"/>
      <point x="644" y="362" type="curve" smooth="yes"/>
      <point x="589" y="326"/>
      <point x="548" y="269"/>
      <point x="548" y="182" type="curve" smooth="yes"/>
      <point x="548" y="62"/>
      <point x="646" y="-10"/>
      <point x="763" y="-10" type="curve" smooth="yes"/>
      <point x="900" y="-10"/>
      <point x="990" y="33"/>
      <point x="1151" y="283" type="curve" smooth="yes"/>
      <point x="1173" y="317"/>
      <point x="1180" y="348"/>
      <point x="1180" y="362" type="curve" smooth="yes"/>
      <point x="1180" y="419"/>
      <point x="1137" y="455"/>
      <point x="1092" y="455" type="curve" smooth="yes"/>
      <point x="1065" y="455"/>
      <point x="1053" y="438"/>
      <point x="1039" y="411" type="curve" smooth="yes"/>
      <point x="937" y="232"/>
      <point x="866" y="151"/>
      <point x="777" y="151" type="curve" smooth="yes"/>
      <point x="747" y="151"/>
      <point x="718" y="168"/>
      <point x="718" y="202" type="curve" smooth="yes"/>
      <point x="718" y="231"/>
      <point x="726" y="248"/>
    </contour>
  </outline>
</glyph>
<glyph name="quotesingle" format="2">
  <advance width="1281.0"/>
  <unicode hex="0027"/>
  <outline>
    <contour>
      <point x="630.0" y="347" type="curve" smooth="yes"/>
      <point x="668.0" y="347"/>
      <point x="694.0" y="368"/>
      <point x="708.0" y="407" type="curve" smooth="yes"/>
      <point x="737.0" y="489"/>
      <point x="746.0" y="584"/>
      <point x="732.0" y="650" type="curve" smooth="yes"/>
      <point x="723.0" y="685"/>
      <point x="693.0" y="715"/>
      <point x="641.0" y="715" type="curve" smooth="yes"/>
      <point x="589.0" y="715"/>
      <point x="556.0" y="678"/>
      <point x="564.0" y="625" type="curve" smooth="yes"/>
      <point x="573.0" y="570"/>
      <point x="561.0" y="507"/>
      <point x="546.0" y="461" type="curve" smooth="yes"/>
      <point x="532.0" y="415"/>
      <point x="573.0" y="347"/>
    </contour>
  </outline>
</glyph>
<glyph name="parenleft" format="2">
  <advance width="1499"/>
  <unicode hex="0028"/>
  <image fileName="parenleft.png" xScale="2.5963710802" yScale="2.5963710802" xOffset="-138.7459756108" yOffset="-555.3762351949" color="0,0,0,0.18426"/>
  <outline>
    <contour>
      <point x="921" y="656" type="curve" smooth="yes"/>
      <point x="944" y="683"/>
      <point x="954" y="700"/>
      <point x="954" y="720" type="curve" smooth="yes"/>
      <point x="954" y="765"/>
      <point x="908" y="811"/>
      <point x="863" y="811" type="curve" smooth="yes"/>
      <point x="838" y="811"/>
      <point x="813" y="801"/>
      <point x="790" y="773" type="curve" smooth="yes"/>
      <point x="661" y="620"/>
      <point x="549" y="418"/>
      <point x="549" y="186" type="curve" smooth="yes"/>
      <point x="549" y="-59"/>
      <point x="666" y="-187"/>
      <point x="801" y="-243" type="curve" smooth="yes"/>
      <point x="846" y="-261"/>
      <point x="861" y="-263"/>
      <point x="882" y="-263" type="curve" smooth="yes"/>
      <point x="928" y="-263"/>
      <point x="979" y="-232"/>
      <point x="979" y="-183" type="curve" smooth="yes"/>
      <point x="979" y="-152"/>
      <point x="963" y="-139"/>
      <point x="919" y="-124" type="curve" smooth="yes"/>
      <point x="799" y="-84"/>
      <point x="725" y="24"/>
      <point x="725" y="186" type="curve" smooth="yes"/>
      <point x="725" y="376"/>
      <point x="821" y="538"/>
    </contour>
  </outline>
</glyph>
<glyph name="parenright" format="2">
  <advance width="1494"/>
  <unicode hex="0029"/>
  <image fileName="parenleft.png" xScale="2.5963710802" yScale="2.5963710802" xOffset="-2052.7459756108" yOffset="-485.3762351949" color="0,0,0,0.18426"/>
  <outline>
    <contour>
      <point x="568" y="-129" type="curve" smooth="yes"/>
      <point x="544" y="-151"/>
      <point x="532" y="-168"/>
      <point x="532" y="-196" type="curve" smooth="yes"/>
      <point x="532" y="-242"/>
      <point x="574" y="-259"/>
      <point x="609" y="-259" type="curve" smooth="yes"/>
      <point x="635" y="-259"/>
      <point x="668" y="-248"/>
      <point x="703" y="-223" type="curve" smooth="yes"/>
      <point x="850" y="-119"/>
      <point x="945" y="58"/>
      <point x="945" y="267" type="curve" smooth="yes"/>
      <point x="945" y="507"/>
      <point x="842" y="693"/>
      <point x="694" y="787" type="curve" smooth="yes"/>
      <point x="663" y="807"/>
      <point x="644" y="812"/>
      <point x="607" y="812" type="curve" smooth="yes"/>
      <point x="558" y="812"/>
      <point x="520" y="782"/>
      <point x="520" y="739" type="curve" smooth="yes"/>
      <point x="520" y="704"/>
      <point x="542" y="673"/>
      <point x="587" y="643" type="curve" smooth="yes"/>
      <point x="700" y="568"/>
      <point x="769" y="450"/>
      <point x="769" y="267" type="curve" smooth="yes"/>
      <point x="769" y="102"/>
      <point x="689" y="-26"/>
    </contour>
  </outline>
</glyph>
<glyph name="asterisk" format="2">
  <advance width="1516"/>
  <unicode hex="002A"/>
  <image fileName="asterisk000000000000001.png" xScale="0.2628236287" yScale="0.2628236287" xOffset="-8.6573841831" yOffset="213.6021023181" color="0,0,0,0.2098"/>
  <outline>
    <contour>
      <point x="777" y="766"/>
      <point x="719" y="766" type="curve" smooth="yes"/>
      <point x="684" y="766"/>
      <point x="669" y="749"/>
      <point x="669" y="721" type="curve" smooth="yes"/>
      <point x="669" y="680"/>
      <point x="700" y="677"/>
      <point x="700" y="570" type="curve" smooth="yes"/>
      <point x="700" y="493"/>
      <point x="695" y="367"/>
      <point x="714" y="274" type="curve" smooth="yes"/>
      <point x="720" y="246"/>
      <point x="739" y="226"/>
      <point x="774" y="226" type="curve" smooth="yes"/>
      <point x="822" y="226"/>
      <point x="840" y="254"/>
      <point x="832" y="298" type="curve" smooth="yes"/>
      <point x="816" y="385"/>
      <point x="820" y="499"/>
      <point x="820" y="570" type="curve" smooth="yes"/>
      <point x="820" y="708"/>
    </contour>
    <contour>
      <point x="941" y="596" type="curve" smooth="yes"/>
      <point x="952" y="612"/>
      <point x="959" y="628"/>
      <point x="959" y="651" type="curve" smooth="yes"/>
      <point x="959" y="682"/>
      <point x="943" y="708"/>
      <point x="907" y="708" type="curve" smooth="yes"/>
      <point x="883" y="708"/>
      <point x="867" y="695"/>
      <point x="851" y="671" type="curve" smooth="yes"/>
      <point x="805" y="604"/>
      <point x="642" y="505"/>
      <point x="581" y="424" type="curve" smooth="yes"/>
      <point x="562" y="399"/>
      <point x="561" y="386"/>
      <point x="561" y="375" type="curve" smooth="yes"/>
      <point x="561" y="343"/>
      <point x="591" y="314"/>
      <point x="623" y="314" type="curve" smooth="yes"/>
      <point x="644" y="314"/>
      <point x="658" y="321"/>
      <point x="671" y="341" type="curve" smooth="yes"/>
      <point x="735" y="440"/>
      <point x="885" y="519"/>
    </contour>
    <contour>
      <point x="615" y="639" type="curve" smooth="yes"/>
      <point x="586" y="654"/>
      <point x="576" y="660"/>
      <point x="556" y="660" type="curve" smooth="yes"/>
      <point x="528" y="660"/>
      <point x="509" y="644"/>
      <point x="509" y="612" type="curve" smooth="yes"/>
      <point x="509" y="591"/>
      <point x="518" y="559"/>
      <point x="557" y="536" type="curve" smooth="yes"/>
      <point x="627" y="496"/>
      <point x="774" y="446"/>
      <point x="864" y="398" type="curve" smooth="yes"/>
      <point x="903" y="377"/>
      <point x="911" y="373"/>
      <point x="930" y="373" type="curve" smooth="yes"/>
      <point x="966" y="373"/>
      <point x="983" y="402"/>
      <point x="983" y="434" type="curve" smooth="yes"/>
      <point x="983" y="459"/>
      <point x="971" y="478"/>
      <point x="951" y="488" type="curve" smooth="yes"/>
      <point x="832" y="552"/>
      <point x="687" y="600"/>
    </contour>
  </outline>
</glyph>
<glyph name="plus" format="2">
  <advance width="1700"/>
  <unicode hex="002B"/>
  <outline>
    <contour>
      <point x="932" y="480" type="curve" smooth="yes"/>
      <point x="932" y="578"/>
      <point x="892" y="618"/>
      <point x="827" y="618" type="curve" smooth="yes"/>
      <point x="778" y="618"/>
      <point x="763" y="588"/>
      <point x="765" y="543" type="curve" smooth="yes"/>
      <point x="770" y="395"/>
      <point x="744" y="296"/>
      <point x="758" y="116" type="curve" smooth="yes"/>
      <point x="763" y="53"/>
      <point x="800" y="24"/>
      <point x="844" y="24" type="curve" smooth="yes"/>
      <point x="890" y="24"/>
      <point x="919" y="52"/>
      <point x="919" y="110" type="curve" smooth="yes"/>
      <point x="919" y="174"/>
      <point x="932" y="359"/>
    </contour>
    <contour>
      <point x="770" y="274"/>
      <point x="1065" y="274" type="curve" smooth="yes"/>
      <point x="1119" y="274"/>
      <point x="1134" y="298"/>
      <point x="1134" y="332" type="curve" smooth="yes"/>
      <point x="1134" y="389"/>
      <point x="1088" y="425"/>
      <point x="1009" y="425" type="curve" smooth="yes"/>
      <point x="891" y="425"/>
      <point x="748" y="416"/>
      <point x="628" y="389" type="curve" smooth="yes"/>
      <point x="558" y="373"/>
      <point x="545" y="341"/>
      <point x="545" y="301" type="curve" smooth="yes"/>
      <point x="545" y="255"/>
      <point x="572" y="216"/>
      <point x="622" y="216" type="curve" smooth="yes"/>
      <point x="696" y="216"/>
    </contour>
  </outline>
</glyph>
<glyph name="comma" format="2">
  <advance width="1322"/>
  <unicode hex="002C"/>
  <outline>
    <contour>
      <point x="772" y="161"/>
      <point x="725" y="204"/>
      <point x="651" y="204" type="curve" smooth="yes"/>
      <point x="597" y="204"/>
      <point x="572" y="168"/>
      <point x="572" y="113" type="curve" smooth="yes"/>
      <point x="572" y="86"/>
      <point x="582" y="13"/>
      <point x="554" y="-64" type="curve" smooth="yes"/>
      <point x="543" y="-93"/>
      <point x="539" y="-112"/>
      <point x="539" y="-130" type="curve" smooth="yes"/>
      <point x="539" y="-162"/>
      <point x="557" y="-180"/>
      <point x="595" y="-180" type="curve" smooth="yes"/>
      <point x="640" y="-180"/>
      <point x="688" y="-145"/>
      <point x="714" y="-103" type="curve" smooth="yes"/>
      <point x="749" y="-47"/>
      <point x="772" y="29"/>
      <point x="772" y="98" type="curve" smooth="yes"/>
    </contour>
  </outline>
</glyph>
<glyph name="hyphen" format="2">
  <advance width="1531"/>
  <unicode hex="002D"/>
  <outline>
    <contour>
      <point x="706" y="176" type="curve" smooth="yes"/>
      <point x="738.7592592593" y="176"/>
      <point x="791.9259259259" y="186"/>
      <point x="938" y="186" type="curve" smooth="yes"/>
      <point x="969" y="186"/>
      <point x="987" y="207"/>
      <point x="987" y="240" type="curve" smooth="yes"/>
      <point x="987" y="281"/>
      <point x="944" y="349"/>
      <point x="825" y="349" type="curve" smooth="yes"/>
      <point x="741.9642857143" y="349"/>
      <point x="660.9762270093" y="348.8388390798"/>
      <point x="577" y="323" type="curve" smooth="yes"/>
      <point x="549" y="315"/>
      <point x="543" y="301"/>
      <point x="543" y="279" type="curve" smooth="yes"/>
      <point x="543" y="229"/>
      <point x="601" y="176"/>
    </contour>
  </outline>
</glyph>
<glyph name="period" format="2">
  <advance width="1329"/>
  <unicode hex="002E"/>
  <outline>
    <contour>
      <point x="687" y="-16" type="curve" smooth="yes"/>
      <point x="751" y="-16"/>
      <point x="784" y="18"/>
      <point x="784" y="65" type="curve" smooth="yes"/>
      <point x="784" y="128"/>
      <point x="743" y="197"/>
      <point x="639" y="197" type="curve" smooth="yes"/>
      <point x="580" y="197"/>
      <point x="545" y="159"/>
      <point x="545" y="101" type="curve" smooth="yes"/>
      <point x="545" y="22"/>
      <point x="593" y="-16"/>
    </contour>
  </outline>
</glyph>
<glyph name="zero" format="2">
  <advance width="1700"/>
  <unicode hex="0030"/>
  <outline>
    <contour>
      <point x="805" y="487" type="curve" smooth="yes"/>
      <point x="824" y="500"/>
      <point x="834" y="528"/>
      <point x="834" y="549" type="curve" smooth="yes"/>
      <point x="834" y="603"/>
      <point x="815" y="623"/>
      <point x="766" y="623" type="curve" smooth="yes"/>
      <point x="693" y="623"/>
      <point x="521" y="502"/>
      <point x="521" y="270" type="curve" smooth="yes"/>
      <point x="521" y="74"/>
      <point x="640" y="-11"/>
      <point x="817" y="-11" type="curve" smooth="yes"/>
      <point x="994" y="-11"/>
      <point x="1178" y="128"/>
      <point x="1178" y="417" type="curve" smooth="yes"/>
      <point x="1178" y="599"/>
      <point x="1094" y="711"/>
      <point x="900" y="711" type="curve" smooth="yes"/>
      <point x="702" y="711"/>
      <point x="594" y="612"/>
      <point x="594" y="548" type="curve" smooth="yes"/>
      <point x="594" y="508"/>
      <point x="622" y="446"/>
      <point x="689" y="446" type="curve" smooth="yes"/>
      <point x="708" y="446"/>
      <point x="728" y="459"/>
      <point x="747" y="475" type="curve" smooth="yes"/>
      <point x="785" y="507"/>
      <point x="820" y="539"/>
      <point x="900" y="539" type="curve" smooth="yes"/>
      <point x="979" y="539"/>
      <point x="1005" y="485"/>
      <point x="1005" y="417" type="curve" smooth="yes"/>
      <point x="1005" y="251"/>
      <point x="906" y="160"/>
      <point x="815" y="160" type="curve" smooth="yes"/>
      <point x="734" y="160"/>
      <point x="694" y="206"/>
      <point x="694" y="270" type="curve" smooth="yes"/>
      <point x="694" y="364"/>
      <point x="723" y="431"/>
    </contour>
  </outline>
</glyph>
<glyph name="one" format="2">
  <advance width="1700.0"/>
  <unicode hex="0031"/>
  <outline>
    <contour>
      <point x="670" y="167" type="curve" smooth="yes"/>
      <point x="588" y="167"/>
      <point x="554" y="137"/>
      <point x="554" y="95" type="curve" smooth="yes"/>
      <point x="554" y="44"/>
      <point x="577" y="-9"/>
      <point x="697" y="-9" type="curve" smooth="yes"/>
      <point x="746.3597733711" y="-9"/>
      <point x="837.88101983" y="0"/>
      <point x="1060" y="0" type="curve" smooth="yes"/>
      <point x="1151" y="0"/>
      <point x="1181" y="33"/>
      <point x="1179" y="79" type="curve" smooth="yes"/>
      <point x="1177" y="134"/>
      <point x="1141" y="174"/>
      <point x="1047" y="174" type="curve" smooth="yes"/>
      <point x="935.029972752" y="174"/>
      <point x="743.961852861" y="167"/>
    </contour>
    <contour>
      <point x="670" y="611" type="curve" smooth="yes"/>
      <point x="619" y="605"/>
      <point x="598" y="577"/>
      <point x="598" y="544" type="curve" smooth="yes"/>
      <point x="598" y="498"/>
      <point x="630" y="451"/>
      <point x="700" y="451" type="curve" smooth="yes"/>
      <point x="763" y="451"/>
      <point x="837" y="475"/>
      <point x="877" y="509" type="curve"/>
      <point x="845" y="537" type="line"/>
      <point x="824" y="436"/>
      <point x="809" y="324"/>
      <point x="809" y="215" type="curve" smooth="yes"/>
      <point x="809" y="149"/>
      <point x="849" y="96"/>
      <point x="916" y="96" type="curve" smooth="yes"/>
      <point x="959" y="96"/>
      <point x="982" y="125"/>
      <point x="982" y="163" type="curve" smooth="yes"/>
      <point x="982" y="199"/>
      <point x="978" y="399"/>
      <point x="1026" y="579" type="curve" smooth="yes"/>
      <point x="1048" y="650"/>
      <point x="996" y="716"/>
      <point x="924" y="716" type="curve" smooth="yes"/>
      <point x="892" y="716"/>
      <point x="870" y="703"/>
      <point x="851" y="686" type="curve" smooth="yes"/>
      <point x="809" y="648"/>
      <point x="746" y="619"/>
    </contour>
  </outline>
</glyph>
<glyph name="two" format="2">
  <advance width="1700"/>
  <unicode hex="0032"/>
  <outline>
    <contour>
      <point x="602" y="608" type="curve" smooth="yes"/>
      <point x="571" y="586"/>
      <point x="561" y="568"/>
      <point x="561" y="536" type="curve" smooth="yes"/>
      <point x="561" y="488"/>
      <point x="598" y="446"/>
      <point x="644" y="446" type="curve" smooth="yes"/>
      <point x="694" y="446"/>
      <point x="764.2192982455999" y="538"/>
      <point x="878" y="538" type="curve" smooth="yes"/>
      <point x="912" y="538"/>
      <point x="927" y="523.1870503597"/>
      <point x="927" y="499" type="curve" smooth="yes"/>
      <point x="927" y="410.6650943396"/>
      <point x="829.0510847817" y="325.7768876906"/>
      <point x="585" y="169" type="curve" smooth="yes"/>
      <point x="567" y="157"/>
      <point x="552" y="139"/>
      <point x="552" y="97" type="curve" smooth="yes"/>
      <point x="552" y="29"/>
      <point x="584" y="-20"/>
      <point x="655" y="-20" type="curve" smooth="yes"/>
      <point x="727.3700440529" y="-20"/>
      <point x="866.2422907489" y="0"/>
      <point x="1099" y="0" type="curve" smooth="yes"/>
      <point x="1153.4" y="0"/>
      <point x="1184" y="34.8235294118"/>
      <point x="1184" y="74" type="curve" smooth="yes"/>
      <point x="1184" y="131.5471698113"/>
      <point x="1149" y="174"/>
      <point x="1047" y="174" type="curve" smooth="yes"/>
      <point x="954" y="174"/>
      <point x="876" y="162"/>
      <point x="823" y="162" type="curve" smooth="yes"/>
      <point x="798" y="162"/>
      <point x="772" y="164"/>
      <point x="746" y="171" type="curve"/>
      <point x="789" y="126" type="line"/>
      <point x="1053" y="303"/>
      <point x="1100" y="400.5678496868"/>
      <point x="1100" y="499" type="curve" smooth="yes"/>
      <point x="1100" y="624.8823529412"/>
      <point x="1038" y="713"/>
      <point x="878" y="713" type="curve" smooth="yes"/>
      <point x="789.2040816327001" y="713"/>
      <point x="700" y="677"/>
    </contour>
  </outline>
</glyph>
<glyph name="three" format="2">
  <advance width="1700"/>
  <unicode hex="0033"/>
  <outline>
    <contour>
      <point x="872" y="712" type="curve" smooth="yes"/>
      <point x="691.7765650081" y="712"/>
      <point x="542" y="619.7419354839"/>
      <point x="542" y="556" type="curve" smooth="yes"/>
      <point x="542" y="510"/>
      <point x="592" y="475"/>
      <point x="620" y="475" type="curve" smooth="yes"/>
      <point x="680.4285714286" y="475"/>
      <point x="720" y="547"/>
      <point x="883" y="547" type="curve" smooth="yes"/>
      <point x="922" y="547"/>
      <point x="933" y="540"/>
      <point x="933" y="522" type="curve" smooth="yes"/>
      <point x="933" y="481"/>
      <point x="873" y="452"/>
      <point x="753" y="427" type="curve" smooth="yes"/>
      <point x="723" y="421"/>
      <point x="711" y="403"/>
      <point x="711" y="377" type="curve" smooth="yes"/>
      <point x="711" y="328"/>
      <point x="738" y="282"/>
      <point x="791" y="282" type="curve" smooth="yes"/>
      <point x="958" y="282"/>
      <point x="995" y="272"/>
      <point x="995" y="239" type="curve" smooth="yes"/>
      <point x="995" y="187"/>
      <point x="889" y="161"/>
      <point x="730" y="161" type="curve" smooth="yes"/>
      <point x="656.3609022556" y="161"/>
      <point x="653" y="201"/>
      <point x="612" y="201" type="curve" smooth="yes"/>
      <point x="568.2833333333" y="201"/>
      <point x="551" y="165"/>
      <point x="551" y="121" type="curve" smooth="yes"/>
      <point x="551" y="42"/>
      <point x="592.2" y="-12"/>
      <point x="757" y="-12" type="curve"/>
      <point x="988" y="-12"/>
      <point x="1168" y="59"/>
      <point x="1168" y="228" type="curve" smooth="yes"/>
      <point x="1168" y="325.8934911243"/>
      <point x="1120" y="402"/>
      <point x="917" y="404" type="curve"/>
      <point x="923" y="365" type="line"/>
      <point x="1070.3647598726" y="389.0595526323"/>
      <point x="1114" y="462"/>
      <point x="1114" y="532" type="curve" smooth="yes"/>
      <point x="1114" y="641"/>
      <point x="1036" y="712"/>
    </contour>
  </outline>
</glyph>
<glyph name="four" format="2">
  <advance width="1700"/>
  <unicode hex="0034"/>
  <outline>
    <contour>
      <point x="827" y="157" type="curve" smooth="yes"/>
      <point x="827" y="39"/>
      <point x="854" y="-11"/>
      <point x="922" y="-11" type="curve" smooth="yes"/>
      <point x="976" y="-11"/>
      <point x="1012" y="13"/>
      <point x="1012" y="53" type="curve" smooth="yes"/>
      <point x="1012" y="79"/>
      <point x="1002" y="100"/>
      <point x="1002" y="148" type="curve" smooth="yes"/>
      <point x="1002" y="311.8096385542"/>
      <point x="1051" y="427"/>
      <point x="1051" y="581" type="curve" smooth="yes"/>
      <point x="1051" y="643"/>
      <point x="1008" y="715"/>
      <point x="915" y="715" type="curve" smooth="yes"/>
      <point x="841" y="715"/>
      <point x="682" y="614"/>
      <point x="573" y="437" type="curve" smooth="yes"/>
      <point x="522.7022043817" y="355.8376479795"/>
      <point x="515" y="300.935483871"/>
      <point x="515" y="252" type="curve" smooth="yes"/>
      <point x="515" y="204"/>
      <point x="561" y="147"/>
      <point x="632" y="147" type="curve" smooth="yes"/>
      <point x="798.3470225873" y="147"/>
      <point x="918.7700205338999" y="192"/>
      <point x="1129" y="192" type="curve" smooth="yes"/>
      <point x="1174" y="192"/>
      <point x="1192" y="221"/>
      <point x="1192" y="259" type="curve" smooth="yes"/>
      <point x="1192" y="315"/>
      <point x="1152" y="367"/>
      <point x="1103" y="367" type="curve" smooth="yes"/>
      <point x="928.75" y="367"/>
      <point x="822.15" y="323"/>
      <point x="693" y="323" type="curve" smooth="yes"/>
      <point x="668" y="323"/>
      <point x="660" y="326"/>
      <point x="627" y="339" type="curve"/>
      <point x="680" y="269" type="line"/>
      <point x="734" y="391"/>
      <point x="816" y="494"/>
      <point x="911" y="553" type="curve"/>
      <point x="858" y="610" type="line"/>
      <point x="869" y="586"/>
      <point x="872" y="574"/>
      <point x="872" y="559" type="curve" smooth="yes"/>
      <point x="872" y="461"/>
      <point x="827" y="314.6883116883"/>
    </contour>
  </outline>
</glyph>
<glyph name="five" format="2">
  <advance width="1700.0"/>
  <unicode hex="0035"/>
  <outline>
    <contour>
      <point x="1101" y="543" type="curve" smooth="yes"/>
      <point x="1137" y="543"/>
      <point x="1162" y="567"/>
      <point x="1163" y="603" type="curve" smooth="yes"/>
      <point x="1166" y="662"/>
      <point x="1120" y="716"/>
      <point x="1034" y="716" type="curve" smooth="yes"/>
      <point x="892" y="716"/>
      <point x="824" y="700"/>
      <point x="634" y="700" type="curve" smooth="yes"/>
      <point x="598" y="700"/>
      <point x="584" y="683"/>
      <point x="573" y="647" type="curve" smooth="yes"/>
      <point x="554" y="591"/>
      <point x="545" y="544"/>
      <point x="545" y="507" type="curve" smooth="yes"/>
      <point x="545" y="392"/>
      <point x="590" y="361"/>
      <point x="865" y="312" type="curve" smooth="yes"/>
      <point x="946" y="298"/>
      <point x="957" y="281"/>
      <point x="957" y="255" type="curve" smooth="yes"/>
      <point x="957" y="193"/>
      <point x="829" y="158"/>
      <point x="733" y="158" type="curve" smooth="yes"/>
      <point x="675" y="158"/>
      <point x="671" y="195"/>
      <point x="636" y="195" type="curve" smooth="yes"/>
      <point x="591" y="195"/>
      <point x="569" y="161"/>
      <point x="569" y="118" type="curve" smooth="yes"/>
      <point x="569" y="40"/>
      <point x="623" y="-12"/>
      <point x="742" y="-12" type="curve" smooth="yes"/>
      <point x="983" y="-12"/>
      <point x="1141" y="99"/>
      <point x="1141" y="257" type="curve" smooth="yes"/>
      <point x="1141" y="372"/>
      <point x="1095" y="429"/>
      <point x="881" y="466" type="curve" smooth="yes"/>
      <point x="731" y="489"/>
      <point x="722" y="495"/>
      <point x="722" y="517" type="curve" smooth="yes"/>
      <point x="722" y="537"/>
      <point x="725" y="549"/>
      <point x="739" y="578" type="curve"/>
      <point x="670" y="527" type="line"/>
      <point x="862" y="524"/>
      <point x="938" y="543"/>
    </contour>
  </outline>
</glyph>
<glyph name="six" format="2">
  <advance width="1700"/>
  <unicode hex="0036"/>
  <outline>
    <contour>
      <point x="965" y="549" type="curve" smooth="yes"/>
      <point x="1003.9486356518" y="575.7076358755"/>
      <point x="1009" y="592.1746031746"/>
      <point x="1009" y="617" type="curve" smooth="yes"/>
      <point x="1009" y="663.5"/>
      <point x="967.5638297872999" y="710"/>
      <point x="914" y="710" type="curve" smooth="yes"/>
      <point x="889.0724637681001" y="710"/>
      <point x="870.8236519664999" y="706.55426987"/>
      <point x="828" y="675" type="curve" smooth="yes"/>
      <point x="637.4108697986001" y="535.9477264347"/>
      <point x="525" y="383.6681922197"/>
      <point x="525" y="239" type="curve" smooth="yes"/>
      <point x="525" y="91"/>
      <point x="630.1495601173" y="-10"/>
      <point x="857" y="-10" type="curve" smooth="yes"/>
      <point x="1052.5339805825001" y="-10"/>
      <point x="1175" y="87"/>
      <point x="1175" y="225" type="curve" smooth="yes"/>
      <point x="1175" y="344.311627907"/>
      <point x="1085" y="437"/>
      <point x="943" y="437" type="curve" smooth="yes"/>
      <point x="786" y="437"/>
      <point x="691" y="355.9606299213"/>
      <point x="691" y="313" type="curve" smooth="yes"/>
      <point x="691" y="287"/>
      <point x="705" y="267"/>
      <point x="747" y="267" type="curve" smooth="yes"/>
      <point x="791.9787234043" y="267"/>
      <point x="813.3971631206" y="288"/>
      <point x="898" y="288" type="curve" smooth="yes"/>
      <point x="973.3913043478" y="288"/>
      <point x="1000" y="260"/>
      <point x="1000" y="231" type="curve" smooth="yes"/>
      <point x="1000" y="192"/>
      <point x="947.0970149254" y="160"/>
      <point x="861" y="160" type="curve" smooth="yes"/>
      <point x="769.9192546584" y="160"/>
      <point x="705" y="180.2025316456"/>
      <point x="705" y="244" type="curve" smooth="yes"/>
      <point x="705" y="348"/>
      <point x="818.5493302525999" y="445.2517751317"/>
    </contour>
  </outline>
</glyph>
<glyph name="seven" format="2">
  <advance width="1700"/>
  <unicode hex="0037"/>
  <outline>
    <contour>
      <point x="672" y="366" type="curve" smooth="yes"/>
      <point x="630" y="366"/>
      <point x="611" y="342"/>
      <point x="611" y="298" type="curve" smooth="yes"/>
      <point x="611" y="248"/>
      <point x="653" y="201"/>
      <point x="710" y="201" type="curve" smooth="yes"/>
      <point x="807.4296675191999" y="201"/>
      <point x="887.4245524297" y="229"/>
      <point x="1111" y="229" type="curve" smooth="yes"/>
      <point x="1157" y="229"/>
      <point x="1182" y="253"/>
      <point x="1182" y="289" type="curve" smooth="yes"/>
      <point x="1182" y="347"/>
      <point x="1135" y="394"/>
      <point x="1056" y="394" type="curve" smooth="yes"/>
      <point x="886.5882352941001" y="394"/>
      <point x="785.9679144385" y="366"/>
    </contour>
    <contour>
      <point x="552" y="645" type="curve" smooth="yes"/>
      <point x="532" y="638"/>
      <point x="522" y="615"/>
      <point x="522" y="593" type="curve" smooth="yes"/>
      <point x="522" y="547"/>
      <point x="567.4772727273" y="494"/>
      <point x="609" y="494" type="curve" smooth="yes"/>
      <point x="656.309352518" y="494"/>
      <point x="724" y="546"/>
      <point x="883" y="546" type="curve" smooth="yes"/>
      <point x="927" y="546"/>
      <point x="943" y="535"/>
      <point x="943" y="506" type="curve" smooth="yes"/>
      <point x="943" y="436"/>
      <point x="767" y="240"/>
      <point x="767" y="83" type="curve" smooth="yes"/>
      <point x="767" y="20"/>
      <point x="815" y="-9"/>
      <point x="873" y="-9" type="curve" smooth="yes"/>
      <point x="921" y="-9"/>
      <point x="940" y="9"/>
      <point x="940" y="70" type="curve" smooth="yes"/>
      <point x="940" y="235"/>
      <point x="1120" y="365"/>
      <point x="1120" y="525" type="curve" smooth="yes"/>
      <point x="1120" y="635"/>
      <point x="1053.0196078431" y="710"/>
      <point x="876" y="710" type="curve" smooth="yes"/>
      <point x="795.1998732257" y="710"/>
      <point x="651" y="682"/>
    </contour>
  </outline>
</glyph>
<glyph name="eight" format="2">
  <advance width="1700.0"/>
  <unicode hex="0038"/>
  <outline>
    <contour>
      <point x="896.0" y="544" type="curve" smooth="yes"/>
      <point x="932.0" y="543"/>
      <point x="962.0" y="571"/>
      <point x="963.0" y="605" type="curve" smooth="yes"/>
      <point x="965.0" y="656"/>
      <point x="919.0" y="711"/>
      <point x="835.0" y="711" type="curve" smooth="yes"/>
      <point x="625.0479452055" y="711"/>
      <point x="534.999984884" y="641.9990930416"/>
      <point x="533.0" y="522" type="curve" smooth="yes"/>
      <point x="532.0" y="428"/>
      <point x="580.0" y="371"/>
      <point x="825.0" y="307" type="curve" smooth="yes"/>
      <point x="965.0" y="271"/>
      <point x="980.0" y="247"/>
      <point x="980.0" y="225" type="curve" smooth="yes"/>
      <point x="980.0" y="173.9032258065"/>
      <point x="905.935483871" y="159"/>
      <point x="816.0" y="159" type="curve" smooth="yes"/>
      <point x="755.1384615385" y="159"/>
      <point x="708.6474761064001" y="158.3639318888"/>
      <point x="644.0" y="184" type="curve"/>
      <point x="739.0" y="58" type="line"/>
      <point x="718.1581885492" y="101.8774977911"/>
      <point x="719.0" y="131.7647058824"/>
      <point x="719.0" y="153" type="curve" smooth="yes"/>
      <point x="719.0" y="188.0213903743"/>
      <point x="735.0" y="205"/>
      <point x="963.0" y="330" type="curve" smooth="yes"/>
      <point x="1116.0131800039999" y="413.3579264201"/>
      <point x="1159.0" y="480"/>
      <point x="1159.0" y="535" type="curve" smooth="yes"/>
      <point x="1159.0" y="595"/>
      <point x="1115.0" y="642"/>
      <point x="1063.0" y="642" type="curve" smooth="yes"/>
      <point x="1028.0" y="642"/>
      <point x="1013.0" y="619"/>
      <point x="1003.0" y="583" type="curve" smooth="yes"/>
      <point x="991.8685127594999" y="539.4860044236"/>
      <point x="958.1391672542" y="500.9293424101"/>
      <point x="806.0" y="422" type="curve" smooth="yes"/>
      <point x="581.289040218" y="304.8521062748"/>
      <point x="544.0001121211" y="250.0043727217"/>
      <point x="542.0" y="172" type="curve" smooth="yes"/>
      <point x="539.99993101" y="74.996653985"/>
      <point x="616.3076923077" y="-12"/>
      <point x="818.0" y="-12" type="curve" smooth="yes"/>
      <point x="1068.2941176471" y="-12"/>
      <point x="1163.0" y="99"/>
      <point x="1163.0" y="222" type="curve" smooth="yes"/>
      <point x="1163.0" y="315"/>
      <point x="1125.7009717465999" y="355.4205482985"/>
      <point x="912.0" y="427" type="curve" smooth="yes"/>
      <point x="798.0" y="465"/>
      <point x="706.0" y="488.5340909091"/>
      <point x="706.0" y="522" type="curve" smooth="yes"/>
      <point x="706.0" y="535"/>
      <point x="738.7312883765001" y="549.2774735444"/>
    </contour>
  </outline>
</glyph>
<glyph name="nine" format="2">
  <advance width="1700"/>
  <unicode hex="0039"/>
  <outline>
    <contour>
      <point x="962" y="525" type="curve" smooth="yes"/>
      <point x="1001" y="525"/>
      <point x="1018" y="558"/>
      <point x="1018" y="590" type="curve" smooth="yes"/>
      <point x="1018" y="664"/>
      <point x="963.7033898305" y="710"/>
      <point x="869" y="710" type="curve" smooth="yes"/>
      <point x="640" y="710"/>
      <point x="532" y="570"/>
      <point x="532" y="442" type="curve" smooth="yes"/>
      <point x="532" y="322"/>
      <point x="619" y="240"/>
      <point x="771" y="240" type="curve" smooth="yes"/>
      <point x="894" y="240"/>
      <point x="981.5653363309" y="289.8945195109"/>
      <point x="1060" y="414" type="curve"/>
      <point x="955" y="361" type="line"/>
      <point x="955" y="243.1201413428"/>
      <point x="958.2370330896999" y="148.4118782989"/>
      <point x="968" y="83" type="curve" smooth="yes"/>
      <point x="977.5202892732" y="29.0516941185"/>
      <point x="1021" y="-9"/>
      <point x="1080" y="-9" type="curve" smooth="yes"/>
      <point x="1125" y="-9"/>
      <point x="1150" y="14"/>
      <point x="1150" y="67" type="curve" smooth="yes"/>
      <point x="1150" y="105"/>
      <point x="1133" y="152"/>
      <point x="1133" y="283" type="curve" smooth="yes"/>
      <point x="1133" y="335"/>
      <point x="1134" y="388"/>
      <point x="1137" y="481" type="curve"/>
      <point x="1163" y="601"/>
      <point x="1130" y="666"/>
      <point x="1033" y="666" type="curve" smooth="yes"/>
      <point x="998" y="666"/>
      <point x="974" y="642"/>
      <point x="974" y="600" type="curve" smooth="yes"/>
      <point x="974" y="448.2994652406"/>
      <point x="881.5376884422001" y="403"/>
      <point x="774" y="403" type="curve" smooth="yes"/>
      <point x="725.5428571429" y="403"/>
      <point x="710" y="422"/>
      <point x="710" y="448" type="curve" smooth="yes"/>
      <point x="710" y="485"/>
      <point x="751.6890243902" y="539"/>
      <point x="869" y="539" type="curve" smooth="yes"/>
      <point x="915" y="539"/>
      <point x="936" y="525"/>
    </contour>
  </outline>
</glyph>
<glyph name="colon" format="2">
  <advance width="1320"/>
  <unicode hex="003A"/>
  <outline>
    <contour>
      <point x="663" y="315" type="curve" smooth="yes"/>
      <point x="740" y="315"/>
      <point x="780" y="358.3150684932"/>
      <point x="780" y="408" type="curve" smooth="yes"/>
      <point x="780" y="468.8571428571"/>
      <point x="741.8275862069" y="528"/>
      <point x="645" y="528" type="curve" smooth="yes"/>
      <point x="587.4680851063999" y="528"/>
      <point x="541" y="494"/>
      <point x="541" y="432" type="curve" smooth="yes"/>
      <point x="541" y="356"/>
      <point x="586" y="315"/>
    </contour>
    <contour>
      <point x="673" y="-14" type="curve" smooth="yes"/>
      <point x="743" y="-14"/>
      <point x="780" y="29.3150684932"/>
      <point x="780" y="79" type="curve" smooth="yes"/>
      <point x="780" y="139.8571428571"/>
      <point x="740.6965517241" y="199"/>
      <point x="641" y="199" type="curve" smooth="yes"/>
      <point x="585.6808510638" y="199"/>
      <point x="541" y="165"/>
      <point x="541" y="103" type="curve" smooth="yes"/>
      <point x="541" y="27"/>
      <point x="589" y="-14"/>
    </contour>
  </outline>
</glyph>
<glyph name="semicolon" format="2">
  <advance width="1318"/>
  <unicode hex="003B"/>
  <outline>
    <contour>
      <point x="653" y="335" type="curve" smooth="yes"/>
      <point x="736.5811965812" y="335"/>
      <point x="780" y="378.3150684932"/>
      <point x="780" y="428" type="curve" smooth="yes"/>
      <point x="780" y="478.8333333333"/>
      <point x="750.3103448276" y="528"/>
      <point x="675" y="528" type="curve" smooth="yes"/>
      <point x="600.8723404254999" y="528"/>
      <point x="541" y="490.4583333333"/>
      <point x="541" y="422" type="curve" smooth="yes"/>
      <point x="541" y="363.7010309278"/>
      <point x="578.6393442623" y="335"/>
    </contour>
    <component base="comma"/>
  </outline>
</glyph>
<glyph name="less" format="2">
  <advance width="1700"/>
  <unicode hex="003C"/>
  <guideline x="161" y="361" angle="0" identifier="VLAmwIKhLM"/>
  <outline>
    <contour>
      <point x="1061" y="445" type="curve" smooth="yes"/>
      <point x="1124" y="462"/>
      <point x="1145" y="471.5"/>
      <point x="1145" y="521" type="curve" smooth="yes"/>
      <point x="1145" y="572"/>
      <point x="1105" y="615"/>
      <point x="1032" y="615" type="curve" smooth="yes"/>
      <point x="1008" y="615"/>
      <point x="985" y="612"/>
      <point x="949" y="601" type="curve" smooth="yes"/>
      <point x="836" y="567"/>
      <point x="674" y="503"/>
      <point x="575" y="426" type="curve" smooth="yes"/>
      <point x="541" y="400"/>
      <point x="531" y="376"/>
      <point x="531" y="351" type="curve" smooth="yes"/>
      <point x="531" y="321"/>
      <point x="544" y="294"/>
      <point x="572" y="269" type="curve" smooth="yes"/>
      <point x="666" y="185"/>
      <point x="803" y="125"/>
      <point x="986" y="96" type="curve" smooth="yes"/>
      <point x="1025" y="89"/>
      <point x="1050" y="86"/>
      <point x="1091" y="86" type="curve" smooth="yes"/>
      <point x="1132" y="86"/>
      <point x="1175" y="112"/>
      <point x="1175" y="163" type="curve" smooth="yes"/>
      <point x="1175" y="219.3119266055"/>
      <point x="1141" y="238"/>
      <point x="1078" y="246" type="curve" smooth="yes"/>
      <point x="924" y="268"/>
      <point x="805" y="302"/>
      <point x="713" y="373" type="curve"/>
      <point x="713" y="304" type="line"/>
      <point x="801" y="361"/>
      <point x="922" y="409"/>
    </contour>
  </outline>
</glyph>
<glyph name="equal" format="2">
  <advance width="1700"/>
  <unicode hex="003D"/>
  <outline>
    <contour>
      <point x="774" y="400"/>
      <point x="1042" y="400" type="curve" smooth="yes"/>
      <point x="1122" y="400"/>
      <point x="1144" y="428"/>
      <point x="1144" y="468" type="curve" smooth="yes"/>
      <point x="1144" y="529"/>
      <point x="1075" y="560"/>
      <point x="924" y="560" type="curve" smooth="yes"/>
      <point x="836.25" y="560"/>
      <point x="757.288731986" y="553.4103592875"/>
      <point x="654" y="537" type="curve" smooth="yes"/>
      <point x="576" y="525"/>
      <point x="552" y="496"/>
      <point x="552" y="457" type="curve" smooth="yes"/>
      <point x="552" y="413"/>
      <point x="583" y="372"/>
      <point x="640" y="372" type="curve" smooth="yes"/>
      <point x="707.3252427184" y="372"/>
    </contour>
    <contour>
      <point x="773" y="168"/>
      <point x="1034" y="168" type="curve" smooth="yes"/>
      <point x="1107" y="168"/>
      <point x="1128" y="195"/>
      <point x="1128" y="233" type="curve" smooth="yes"/>
      <point x="1128" y="290"/>
      <point x="1081" y="315"/>
      <point x="999" y="315" type="curve" smooth="yes"/>
      <point x="884" y="315"/>
      <point x="764" y="299"/>
      <point x="636" y="271" type="curve" smooth="yes"/>
      <point x="559" y="253"/>
      <point x="540" y="223"/>
      <point x="540" y="189" type="curve" smooth="yes"/>
      <point x="540" y="140"/>
      <point x="579" y="106"/>
      <point x="641" y="106" type="curve" smooth="yes"/>
      <point x="728" y="106"/>
    </contour>
  </outline>
</glyph>
<glyph name="greater" format="2">
  <advance width="1700"/>
  <unicode hex="003E"/>
  <outline>
    <contour>
      <point x="645" y="255" type="curve" smooth="yes"/>
      <point x="583.280555338" y="238.3455466785"/>
      <point x="563" y="221.1315789474"/>
      <point x="563" y="177" type="curve" smooth="yes"/>
      <point x="563" y="127.085106383"/>
      <point x="602.2920353982" y="85"/>
      <point x="674" y="85" type="curve" smooth="yes"/>
      <point x="698" y="85"/>
      <point x="721" y="88"/>
      <point x="757" y="99" type="curve" smooth="yes"/>
      <point x="870" y="133"/>
      <point x="1032" y="197"/>
      <point x="1131" y="274" type="curve" smooth="yes"/>
      <point x="1165" y="300"/>
      <point x="1175" y="324"/>
      <point x="1175" y="349" type="curve" smooth="yes"/>
      <point x="1175" y="379"/>
      <point x="1162" y="406"/>
      <point x="1134" y="431" type="curve" smooth="yes"/>
      <point x="1040" y="515"/>
      <point x="903" y="575"/>
      <point x="720" y="604" type="curve" smooth="yes"/>
      <point x="682.5587109851" y="610.7202313617"/>
      <point x="658" y="613"/>
      <point x="619" y="613" type="curve" smooth="yes"/>
      <point x="566" y="613"/>
      <point x="531" y="585"/>
      <point x="531" y="537" type="curve" smooth="yes"/>
      <point x="531" y="481"/>
      <point x="565" y="462"/>
      <point x="628" y="454" type="curve" smooth="yes"/>
      <point x="782" y="432"/>
      <point x="901" y="398"/>
      <point x="993" y="327" type="curve"/>
      <point x="993" y="396" type="line"/>
      <point x="905" y="339"/>
      <point x="784" y="291"/>
    </contour>
  </outline>
</glyph>
<glyph name="question" format="2">
  <advance width="1541"/>
  <unicode hex="003F"/>
  <outline>
    <contour>
      <point x="556" y="678" type="curve" smooth="yes"/>
      <point x="523" y="661"/>
      <point x="507" y="636"/>
      <point x="507" y="599" type="curve" smooth="yes"/>
      <point x="507" y="543"/>
      <point x="544" y="516"/>
      <point x="590" y="516" type="curve" smooth="yes"/>
      <point x="636" y="516"/>
      <point x="662" y="550"/>
      <point x="762" y="550" type="curve" smooth="yes"/>
      <point x="812" y="550"/>
      <point x="830" y="540"/>
      <point x="830" y="523" type="curve" smooth="yes"/>
      <point x="830" y="509"/>
      <point x="823" y="497"/>
      <point x="757" y="469" type="curve" smooth="yes"/>
      <point x="670" y="432"/>
      <point x="644" y="394"/>
      <point x="644" y="350" type="curve" smooth="yes"/>
      <point x="644" y="287"/>
      <point x="691" y="231"/>
      <point x="768" y="231" type="curve" smooth="yes"/>
      <point x="810" y="231"/>
      <point x="831" y="259"/>
      <point x="831" y="283" type="curve" smooth="yes"/>
      <point x="831" y="305"/>
      <point x="814" y="319"/>
      <point x="814" y="327" type="curve" smooth="yes"/>
      <point x="814" y="336"/>
      <point x="827" y="345"/>
      <point x="896" y="379" type="curve" smooth="yes"/>
      <point x="959" y="408"/>
      <point x="1010" y="454"/>
      <point x="1010" y="533" type="curve" smooth="yes"/>
      <point x="1010" y="651"/>
      <point x="920" y="720"/>
      <point x="751" y="720" type="curve" smooth="yes"/>
      <point x="689" y="720"/>
      <point x="607" y="705"/>
    </contour>
    <contour>
      <point x="756" y="-13" type="curve" smooth="yes"/>
      <point x="820" y="-13"/>
      <point x="853" y="18"/>
      <point x="853" y="67" type="curve" smooth="yes"/>
      <point x="853" y="117"/>
      <point x="815" y="165"/>
      <point x="733" y="165" type="curve" smooth="yes"/>
      <point x="680" y="165"/>
      <point x="644" y="136"/>
      <point x="644" y="76" type="curve" smooth="yes"/>
      <point x="644" y="19"/>
      <point x="686" y="-13"/>
    </contour>
  </outline>
</glyph>
<glyph name="at" format="2">
  <advance width="1924"/>
  <unicode hex="0040"/>
  <outline>
    <contour>
      <point x="1050" y="297" type="curve" smooth="yes"/>
      <point x="1068" y="303"/>
      <point x="1100" y="335"/>
      <point x="1100" y="370" type="curve" smooth="yes"/>
      <point x="1100" y="421"/>
      <point x="1056" y="451"/>
      <point x="993" y="451" type="curve" smooth="yes"/>
      <point x="916" y="451"/>
      <point x="800" y="343"/>
      <point x="800" y="228" type="curve" smooth="yes"/>
      <point x="800" y="138"/>
      <point x="858" y="92"/>
      <point x="933" y="92" type="curve" smooth="yes"/>
      <point x="1011" y="92"/>
      <point x="1059" y="132"/>
      <point x="1092" y="201" type="curve"/>
      <point x="1009" y="191" type="line"/>
      <point x="1048" y="183"/>
      <point x="1066" y="169"/>
      <point x="1100" y="133" type="curve" smooth="yes"/>
      <point x="1139" y="92"/>
      <point x="1192" y="85"/>
      <point x="1233" y="85" type="curve" smooth="yes"/>
      <point x="1317" y="85"/>
      <point x="1389" y="147"/>
      <point x="1389" y="268" type="curve" smooth="yes"/>
      <point x="1389" y="425"/>
      <point x="1261" y="713"/>
      <point x="1015" y="713" type="curve" smooth="yes"/>
      <point x="762" y="713"/>
      <point x="535" y="477"/>
      <point x="535" y="248" type="curve" smooth="yes"/>
      <point x="535" y="-13"/>
      <point x="754" y="-174"/>
      <point x="1015" y="-174" type="curve" smooth="yes"/>
      <point x="1127" y="-174"/>
      <point x="1194" y="-162"/>
      <point x="1255" y="-135" type="curve" smooth="yes"/>
      <point x="1304" y="-115"/>
      <point x="1336" y="-70"/>
      <point x="1336" y="-24" type="curve" smooth="yes"/>
      <point x="1336" y="18"/>
      <point x="1313" y="35"/>
      <point x="1269" y="35" type="curve" smooth="yes"/>
      <point x="1208" y="35"/>
      <point x="1162" y="-5"/>
      <point x="1015" y="-5" type="curve" smooth="yes"/>
      <point x="858" y="-5"/>
      <point x="704" y="79"/>
      <point x="704" y="248" type="curve" smooth="yes"/>
      <point x="704" y="397"/>
      <point x="854" y="543"/>
      <point x="1015" y="543" type="curve" smooth="yes"/>
      <point x="1135" y="543"/>
      <point x="1220" y="373"/>
      <point x="1220" y="268" type="curve" smooth="yes"/>
      <point x="1220" y="262"/>
      <point x="1217" y="254"/>
      <point x="1212" y="254" type="curve"/>
      <point x="1204" y="254"/>
      <point x="1194" y="254"/>
      <point x="1163" y="300" type="curve" smooth="yes"/>
      <point x="1141" y="332"/>
      <point x="1110" y="345"/>
      <point x="1075" y="345" type="curve" smooth="yes"/>
      <point x="1023" y="345"/>
      <point x="989" y="320"/>
      <point x="959" y="283" type="curve" smooth="yes"/>
      <point x="935" y="255"/>
      <point x="927" y="242"/>
      <point x="911" y="242" type="curve" smooth="yes"/>
      <point x="893" y="242"/>
      <point x="876" y="245"/>
      <point x="853" y="259" type="curve"/>
      <point x="975" y="160" type="line"/>
      <point x="961" y="172"/>
      <point x="954" y="188"/>
      <point x="954" y="206" type="curve" smooth="yes"/>
      <point x="954" y="240"/>
      <point x="993" y="278"/>
    </contour>
  </outline>
</glyph>
<glyph name="A" format="2">
  <advance width="1780"/>
  <unicode hex="0041"/>
  <anchor x="924" y="700" name="top"/>
  <anchor x="924" y="0" name="bottom"/>
  <anchor x="924" y="699" name="ring"/>
  <anchor x="1202" y="0" name="ogonek"/>
  <outline>
    <contour>
      <point x="1171" y="-11" type="curve" smooth="yes"/>
      <point x="1219" y="-11"/>
      <point x="1242" y="10.3793103448"/>
      <point x="1242" y="51" type="curve" smooth="yes"/>
      <point x="1242" y="111.2129032258"/>
      <point x="1173.7839212349" y="175.1763429365"/>
      <point x="1154" y="357" type="curve" smooth="yes"/>
      <point x="1125" y="610"/>
      <point x="1081" y="711"/>
      <point x="933" y="711" type="curve" smooth="yes"/>
      <point x="837.6302521008" y="711"/>
      <point x="750" y="642"/>
      <point x="699" y="543" type="curve"/>
      <point x="766" y="566" type="line"/>
      <point x="739" y="605"/>
      <point x="705" y="616"/>
      <point x="676" y="616" type="curve" smooth="yes"/>
      <point x="642" y="616"/>
      <point x="627" y="600"/>
      <point x="627" y="575" type="curve" smooth="yes"/>
      <point x="627" y="443.793911007"/>
      <point x="579" y="332"/>
      <point x="579" y="160" type="curve" smooth="yes"/>
      <point x="579" y="39"/>
      <point x="615" y="-8"/>
      <point x="684" y="-8" type="curve" smooth="yes"/>
      <point x="725" y="-8"/>
      <point x="744" y="10"/>
      <point x="749" y="57" type="curve" smooth="yes"/>
      <point x="785.8682880481" y="353.8867405978"/>
      <point x="867" y="538"/>
      <point x="925" y="538" type="curve" smooth="yes"/>
      <point x="943" y="538"/>
      <point x="951" y="530"/>
      <point x="970" y="362" type="curve" smooth="yes"/>
      <point x="982.3976292043001" y="259.9579750108"/>
      <point x="1006" y="121"/>
      <point x="1057" y="54" type="curve" smooth="yes"/>
      <point x="1092" y="6"/>
      <point x="1125" y="-11"/>
    </contour>
    <contour>
      <point x="634" y="160" type="curve" smooth="yes"/>
      <point x="739" y="160"/>
      <point x="916" y="198"/>
      <point x="1123" y="198" type="curve" smooth="yes"/>
      <point x="1199" y="198"/>
      <point x="1250" y="239"/>
      <point x="1250" y="296" type="curve" smooth="yes"/>
      <point x="1250" y="342"/>
      <point x="1223" y="372"/>
      <point x="1134" y="372" type="curve" smooth="yes"/>
      <point x="905" y="372"/>
      <point x="725" y="343"/>
      <point x="585" y="305" type="curve" smooth="yes"/>
      <point x="543.0064420647" y="293.3847605711"/>
      <point x="524" y="270"/>
      <point x="524" y="240" type="curve" smooth="yes"/>
      <point x="524" y="192"/>
      <point x="556" y="160"/>
    </contour>
  </outline>
</glyph>
<glyph name="B" format="2">
  <advance width="1633"/>
  <unicode hex="0042"/>
  <anchor x="815" y="700" name="top"/>
  <anchor x="772" y="0" name="bottom"/>
  <outline>
    <contour>
      <point x="745" y="153"/>
      <point x="726" y="197"/>
      <point x="726" y="347" type="curve" smooth="yes"/>
      <point x="726" y="425"/>
      <point x="728" y="456"/>
      <point x="735" y="535" type="curve" smooth="yes"/>
      <point x="740" y="580"/>
      <point x="702" y="629"/>
      <point x="649" y="629" type="curve" smooth="yes"/>
      <point x="625" y="629"/>
      <point x="592" y="613"/>
      <point x="583" y="579" type="curve" smooth="yes"/>
      <point x="559" y="484"/>
      <point x="553" y="438"/>
      <point x="553" y="331" type="curve" smooth="yes"/>
      <point x="553" y="147.8005865103"/>
      <point x="628" y="-18"/>
      <point x="755" y="-18" type="curve" smooth="yes"/>
      <point x="885.1176470588" y="-18"/>
      <point x="1071" y="47.1724137931"/>
      <point x="1071" y="222" type="curve" smooth="yes"/>
      <point x="1071" y="289"/>
      <point x="1023" y="362"/>
      <point x="880" y="378" type="curve"/>
      <point x="889" y="323" type="line"/>
      <point x="1063" y="386"/>
      <point x="1097" y="463"/>
      <point x="1097" y="525" type="curve" smooth="yes"/>
      <point x="1097" y="668"/>
      <point x="928.649867374" y="712"/>
      <point x="710" y="712" type="curve" smooth="yes"/>
      <point x="573" y="712"/>
      <point x="525" y="668"/>
      <point x="525" y="589" type="curve" smooth="yes"/>
      <point x="525" y="550"/>
      <point x="547" y="524"/>
      <point x="589" y="524" type="curve" smooth="yes"/>
      <point x="609" y="524"/>
      <point x="658" y="528"/>
      <point x="704" y="528" type="curve" smooth="yes"/>
      <point x="903.3596059112999" y="528"/>
      <point x="917" y="522"/>
      <point x="917" y="501" type="curve" smooth="yes"/>
      <point x="917" y="461.6666666667"/>
      <point x="728.4285975507" y="397.5552634578"/>
      <point x="677" y="383" type="curve" smooth="yes"/>
      <point x="656" y="377"/>
      <point x="638" y="355"/>
      <point x="638" y="336" type="curve" smooth="yes"/>
      <point x="638" y="293"/>
      <point x="664" y="262"/>
      <point x="701" y="263" type="curve" smooth="yes"/>
      <point x="837.2075800369" y="265.8575016791"/>
      <point x="901" y="252"/>
      <point x="901" y="205" type="curve" smooth="yes"/>
      <point x="901" y="180"/>
      <point x="821" y="153"/>
      <point x="773" y="153" type="curve" smooth="yes"/>
    </contour>
  </outline>
</glyph>
<glyph name="C" format="2">
  <advance width="1621"/>
  <unicode hex="0043"/>
  <anchor x="879" y="700" name="top"/>
  <anchor x="832" y="0" name="bottom"/>
  <outline>
    <contour>
      <point x="845" y="-10" type="curve" smooth="yes"/>
      <point x="1000.2631578947" y="-10"/>
      <point x="1081" y="60"/>
      <point x="1081" y="148" type="curve" smooth="yes"/>
      <point x="1081" y="190"/>
      <point x="1064" y="216"/>
      <point x="1022" y="216" type="curve" smooth="yes"/>
      <point x="970.3367346939" y="216"/>
      <point x="961.0204081633" y="157"/>
      <point x="856" y="157" type="curve" smooth="yes"/>
      <point x="775" y="157"/>
      <point x="724" y="208.503649635"/>
      <point x="724" y="304" type="curve" smooth="yes"/>
      <point x="724" y="411.1304347826"/>
      <point x="797.8947368421" y="524"/>
      <point x="904" y="524" type="curve" smooth="yes"/>
      <point x="930" y="524"/>
      <point x="935" y="517"/>
      <point x="935" y="500" type="curve" smooth="yes"/>
      <point x="935" y="477"/>
      <point x="954" y="459"/>
      <point x="983" y="459" type="curve" smooth="yes"/>
      <point x="1047" y="459"/>
      <point x="1079" y="521"/>
      <point x="1079" y="591" type="curve" smooth="yes"/>
      <point x="1079" y="667"/>
      <point x="1038" y="711"/>
      <point x="935" y="711" type="curve" smooth="yes"/>
      <point x="735" y="711"/>
      <point x="549" y="519"/>
      <point x="549" y="304" type="curve" smooth="yes"/>
      <point x="549" y="121"/>
      <point x="660" y="-10"/>
    </contour>
  </outline>
</glyph>
<glyph name="D" format="2">
  <advance width="1722"/>
  <unicode hex="0044"/>
  <anchor x="885" y="700" name="top"/>
  <anchor x="741" y="0" name="bottom"/>
  <outline>
    <contour>
      <point x="732" y="-10" type="curve" smooth="yes"/>
      <point x="935" y="-10"/>
      <point x="1183" y="168"/>
      <point x="1183" y="422" type="curve" smooth="yes"/>
      <point x="1183" y="580"/>
      <point x="1065" y="709"/>
      <point x="851" y="709" type="curve" smooth="yes"/>
      <point x="752" y="709"/>
      <point x="632" y="689"/>
      <point x="562" y="670" type="curve" smooth="yes"/>
      <point x="529" y="661"/>
      <point x="515" y="632"/>
      <point x="515" y="607" type="curve" smooth="yes"/>
      <point x="515" y="551"/>
      <point x="559" y="494"/>
      <point x="641" y="494" type="curve" smooth="yes"/>
      <point x="695" y="494"/>
      <point x="742" y="532"/>
      <point x="858" y="532" type="curve" smooth="yes"/>
      <point x="962" y="532"/>
      <point x="1004" y="485"/>
      <point x="1004" y="414" type="curve" smooth="yes"/>
      <point x="1004" y="299"/>
      <point x="898" y="186"/>
      <point x="677" y="145" type="curve"/>
      <point x="796" y="118" type="line"/>
      <point x="775" y="159"/>
      <point x="769" y="190"/>
      <point x="769" y="227" type="curve" smooth="yes"/>
      <point x="769" y="309"/>
      <point x="774" y="427"/>
      <point x="769" y="519" type="curve" smooth="yes"/>
      <point x="767" y="559"/>
      <point x="728" y="591"/>
      <point x="680" y="591" type="curve" smooth="yes"/>
      <point x="619" y="591"/>
      <point x="596" y="574"/>
      <point x="595" y="532" type="curve" smooth="yes"/>
      <point x="591" y="422"/>
      <point x="591" y="324"/>
      <point x="591" y="208" type="curve" smooth="yes"/>
      <point x="591" y="100"/>
      <point x="650" y="-10"/>
    </contour>
  </outline>
</glyph>
<glyph name="E" format="2">
  <advance width="1704"/>
  <unicode hex="0045"/>
  <anchor x="886" y="700" name="top"/>
  <anchor x="886" y="0" name="bottom"/>
  <anchor x="1121" y="54" name="ogonek"/>
  <outline>
    <contour>
      <point x="596" y="523" type="curve" smooth="yes"/>
      <point x="574" y="437"/>
      <point x="569" y="353"/>
      <point x="569" y="293" type="curve" smooth="yes"/>
      <point x="569" y="130"/>
      <point x="663" y="-7"/>
      <point x="862" y="-7" type="curve" smooth="yes"/>
      <point x="1058" y="-7"/>
      <point x="1164" y="45"/>
      <point x="1164" y="139" type="curve" smooth="yes"/>
      <point x="1164" y="177"/>
      <point x="1151" y="201"/>
      <point x="1101" y="201" type="curve" smooth="yes"/>
      <point x="1059" y="201"/>
      <point x="984" y="168"/>
      <point x="862" y="168" type="curve" smooth="yes"/>
      <point x="788" y="168"/>
      <point x="745" y="222"/>
      <point x="745" y="291" type="curve" smooth="yes"/>
      <point x="745" y="402"/>
      <point x="769" y="500"/>
      <point x="769" y="542" type="curve" smooth="yes"/>
      <point x="769" y="583"/>
      <point x="725" y="606"/>
      <point x="700" y="606" type="curve" smooth="yes"/>
      <point x="649" y="606"/>
      <point x="610" y="577"/>
    </contour>
    <contour>
      <point x="702" y="235" type="curve" smooth="yes"/>
      <point x="771" y="251"/>
      <point x="844" y="264"/>
      <point x="978" y="272" type="curve" smooth="yes"/>
      <point x="1034" y="276"/>
      <point x="1075" y="312"/>
      <point x="1075" y="378" type="curve" smooth="yes"/>
      <point x="1075" y="432"/>
      <point x="1059" y="444"/>
      <point x="989" y="444" type="curve" smooth="yes"/>
      <point x="849" y="439"/>
      <point x="773" y="425"/>
      <point x="708" y="410" type="curve" smooth="yes"/>
      <point x="671" y="401"/>
      <point x="643" y="364"/>
      <point x="643" y="322" type="curve" smooth="yes"/>
      <point x="643" y="269"/>
      <point x="655" y="225"/>
    </contour>
    <contour>
      <point x="681" y="502" type="curve" smooth="yes"/>
      <point x="741" y="502"/>
      <point x="929" y="545"/>
      <point x="1126" y="545" type="curve" smooth="yes"/>
      <point x="1157" y="545"/>
      <point x="1167" y="568"/>
      <point x="1167" y="597" type="curve" smooth="yes"/>
      <point x="1167" y="661"/>
      <point x="1101" y="712"/>
      <point x="990" y="712" type="curve" smooth="yes"/>
      <point x="904" y="712"/>
      <point x="732" y="698"/>
      <point x="591" y="652" type="curve" smooth="yes"/>
      <point x="557" y="641"/>
      <point x="550" y="622"/>
      <point x="550" y="597" type="curve" smooth="yes"/>
      <point x="550" y="546"/>
      <point x="595" y="502"/>
    </contour>
  </outline>
</glyph>
<glyph name="F" format="2">
  <advance width="1594"/>
  <unicode hex="0046"/>
  <anchor x="821" y="700" name="top"/>
  <anchor x="760" y="0" name="bottom"/>
  <outline>
    <contour>
      <point x="752" y="270" type="curve" smooth="yes"/>
      <point x="752" y="428"/>
      <point x="765" y="492"/>
      <point x="765" y="525" type="curve" smooth="yes"/>
      <point x="765" y="556"/>
      <point x="748" y="589"/>
      <point x="697" y="589" type="curve" smooth="yes"/>
      <point x="643" y="589"/>
      <point x="608" y="555"/>
      <point x="595" y="491" type="curve" smooth="yes"/>
      <point x="585" y="437"/>
      <point x="578" y="381"/>
      <point x="578" y="294" type="curve" smooth="yes"/>
      <point x="578" y="174"/>
      <point x="599" y="101"/>
      <point x="633" y="55" type="curve" smooth="yes"/>
      <point x="670" y="3"/>
      <point x="719" y="-13"/>
      <point x="751" y="-13" type="curve" smooth="yes"/>
      <point x="794" y="-13"/>
      <point x="814" y="13"/>
      <point x="814" y="46" type="curve" smooth="yes"/>
      <point x="814" y="111"/>
      <point x="752" y="122"/>
    </contour>
    <contour>
      <point x="981" y="536" type="curve" smooth="yes"/>
      <point x="1037" y="536"/>
      <point x="1059" y="561"/>
      <point x="1059" y="601" type="curve" smooth="yes"/>
      <point x="1059" y="662"/>
      <point x="996" y="708"/>
      <point x="926" y="708" type="curve" smooth="yes"/>
      <point x="805" y="708"/>
      <point x="676" y="685"/>
      <point x="571" y="657" type="curve" smooth="yes"/>
      <point x="534" y="647"/>
      <point x="516" y="625"/>
      <point x="516" y="594" type="curve" smooth="yes"/>
      <point x="516" y="543"/>
      <point x="552" y="490"/>
      <point x="647" y="490" type="curve" smooth="yes"/>
      <point x="689" y="490"/>
      <point x="794" y="536"/>
    </contour>
    <contour>
      <point x="700" y="181" type="curve" smooth="yes"/>
      <point x="752" y="195"/>
      <point x="865" y="212"/>
      <point x="949" y="218" type="curve" smooth="yes"/>
      <point x="1002" y="222"/>
      <point x="1053" y="255"/>
      <point x="1053" y="319" type="curve" smooth="yes"/>
      <point x="1053" y="362"/>
      <point x="1034" y="387"/>
      <point x="977" y="387" type="curve" smooth="yes"/>
      <point x="868" y="387"/>
      <point x="762" y="372"/>
      <point x="686" y="354" type="curve" smooth="yes"/>
      <point x="648" y="344"/>
      <point x="607" y="293"/>
      <point x="607" y="250" type="curve" smooth="yes"/>
      <point x="607" y="204"/>
      <point x="637" y="165"/>
    </contour>
  </outline>
</glyph>
<glyph name="G" format="2">
  <advance width="1818"/>
  <unicode hex="0047"/>
  <anchor x="951" y="700" name="top"/>
  <anchor x="900" y="0" name="bottom"/>
  <outline>
    <contour>
      <point x="930" y="246" type="curve" smooth="yes"/>
      <point x="985" y="246"/>
      <point x="1047" y="273"/>
      <point x="1211" y="273" type="curve" smooth="yes"/>
      <point x="1277" y="273"/>
      <point x="1305" y="320"/>
      <point x="1305" y="371" type="curve" smooth="yes"/>
      <point x="1305" y="416"/>
      <point x="1286" y="439"/>
      <point x="1189" y="439" type="curve" smooth="yes"/>
      <point x="1073.6318318593999" y="437.0278945617"/>
      <point x="984.6586019161" y="423.5975805748"/>
      <point x="906" y="400" type="curve" smooth="yes"/>
      <point x="853.9665457156" y="385.1332987759"/>
      <point x="840" y="368"/>
      <point x="840" y="333" type="curve" smooth="yes"/>
      <point x="840" y="282"/>
      <point x="881.5384615385" y="246"/>
    </contour>
    <contour>
      <point x="1215" y="-118" type="curve" smooth="yes"/>
      <point x="1255.1818181818" y="-118"/>
      <point x="1283" y="-95.0746268657"/>
      <point x="1283" y="-54" type="curve" smooth="yes"/>
      <point x="1283" y="-30.1265822785"/>
      <point x="1279.6875606659" y="-20.4688796045"/>
      <point x="1257" y="28" type="curve" smooth="yes"/>
      <point x="1224" y="95"/>
      <point x="1214" y="147"/>
      <point x="1214" y="289" type="curve" smooth="yes"/>
      <point x="1214" y="313"/>
      <point x="1199" y="322"/>
      <point x="1163" y="322" type="curve" smooth="yes"/>
      <point x="1118" y="322"/>
      <point x="1086" y="312"/>
      <point x="1059" y="277" type="curve" smooth="yes"/>
      <point x="998" y="198"/>
      <point x="902" y="162"/>
      <point x="809" y="162" type="curve" smooth="yes"/>
      <point x="756" y="162"/>
      <point x="729" y="191.6091954023"/>
      <point x="729" y="254" type="curve" smooth="yes"/>
      <point x="729" y="364"/>
      <point x="840" y="514"/>
      <point x="958" y="514" type="curve" smooth="yes"/>
      <point x="997" y="514"/>
      <point x="982" y="477"/>
      <point x="1029" y="477" type="curve" smooth="yes"/>
      <point x="1094" y="477"/>
      <point x="1138" y="539"/>
      <point x="1138" y="608" type="curve" smooth="yes"/>
      <point x="1138" y="667"/>
      <point x="1101" y="708"/>
      <point x="1010" y="708" type="curve" smooth="yes"/>
      <point x="773" y="708"/>
      <point x="540" y="479"/>
      <point x="540" y="237" type="curve" smooth="yes"/>
      <point x="540" y="88"/>
      <point x="633" y="-10"/>
      <point x="792" y="-10" type="curve" smooth="yes"/>
      <point x="903" y="-10"/>
      <point x="1015" y="27"/>
      <point x="1099" y="100" type="curve"/>
      <point x="1050" y="124" type="line"/>
      <point x="1064.7728350925" y="32.4084224267"/>
      <point x="1080.9477782801" y="-7.9091796175"/>
      <point x="1104" y="-48" type="curve" smooth="yes"/>
      <point x="1133.3536000841" y="-94.2883693633"/>
      <point x="1162.9380530972999" y="-118"/>
    </contour>
  </outline>
</glyph>
<glyph name="H" format="2">
  <advance width="1715"/>
  <unicode hex="0048"/>
  <anchor x="860" y="700" name="top"/>
  <anchor x="860" y="0" name="bottom"/>
  <outline>
    <contour>
      <point x="691" y="-12" type="curve" smooth="yes"/>
      <point x="737" y="-12"/>
      <point x="766" y="14.8382352941"/>
      <point x="766" y="61" type="curve" smooth="yes"/>
      <point x="766" y="192.7309160305"/>
      <point x="762" y="384.8797709924"/>
      <point x="762" y="580" type="curve" smooth="yes"/>
      <point x="762" y="670"/>
      <point x="718" y="709"/>
      <point x="657" y="709" type="curve" smooth="yes"/>
      <point x="599" y="709"/>
      <point x="573" y="681"/>
      <point x="573" y="612" type="curve" smooth="yes"/>
      <point x="573" y="558"/>
      <point x="589" y="259"/>
      <point x="581" y="119" type="curve" smooth="yes"/>
      <point x="576" y="31"/>
      <point x="625" y="-12"/>
    </contour>
    <contour>
      <point x="1082" y="-10" type="curve" smooth="yes"/>
      <point x="1129.9491525424" y="-10"/>
      <point x="1151" y="15"/>
      <point x="1151" y="57" type="curve" smooth="yes"/>
      <point x="1151" y="118"/>
      <point x="1132" y="146"/>
      <point x="1132" y="233" type="curve" smooth="yes"/>
      <point x="1132" y="316"/>
      <point x="1138" y="448"/>
      <point x="1138" y="554" type="curve" smooth="yes"/>
      <point x="1138" y="655"/>
      <point x="1095.9439252336" y="704"/>
      <point x="1038" y="704" type="curve" smooth="yes"/>
      <point x="984.1" y="704"/>
      <point x="961" y="672"/>
      <point x="961" y="613" type="curve" smooth="yes"/>
      <point x="961" y="534"/>
      <point x="953" y="417"/>
      <point x="953" y="239" type="curve" smooth="yes"/>
      <point x="953" y="77"/>
      <point x="995.690647482" y="-10"/>
    </contour>
    <contour>
      <point x="696" y="236" type="curve" smooth="yes"/>
      <point x="757" y="236"/>
      <point x="856" y="266"/>
      <point x="1128" y="266" type="curve" smooth="yes"/>
      <point x="1159" y="266"/>
      <point x="1177" y="289"/>
      <point x="1177" y="324" type="curve" smooth="yes"/>
      <point x="1177" y="382"/>
      <point x="1118" y="429"/>
      <point x="1015" y="429" type="curve" smooth="yes"/>
      <point x="865" y="429"/>
      <point x="710" y="427"/>
      <point x="567" y="383" type="curve" smooth="yes"/>
      <point x="539" y="375"/>
      <point x="533" y="359"/>
      <point x="533" y="334" type="curve" smooth="yes"/>
      <point x="533" y="283"/>
      <point x="570" y="236"/>
    </contour>
  </outline>
</glyph>
<glyph name="I" format="2">
  <advance width="1565"/>
  <unicode hex="0049"/>
  <anchor x="792" y="700" name="top"/>
  <anchor x="792" y="0" name="bottom"/>
  <anchor x="979" y="16" name="ogonek"/>
  <outline>
    <contour>
      <point x="681" y="-11" type="curve" smooth="yes"/>
      <point x="718" y="-11"/>
      <point x="802" y="0"/>
      <point x="904" y="0" type="curve" smooth="yes"/>
      <point x="998" y="0"/>
      <point x="1038" y="41"/>
      <point x="1038" y="91" type="curve" smooth="yes"/>
      <point x="1038" y="132"/>
      <point x="1015" y="164"/>
      <point x="913" y="164" type="curve" smooth="yes"/>
      <point x="780" y="164"/>
      <point x="751" y="170"/>
      <point x="592" y="152" type="curve" smooth="yes"/>
      <point x="548" y="147"/>
      <point x="527" y="122"/>
      <point x="527" y="88" type="curve" smooth="yes"/>
      <point x="527" y="31"/>
      <point x="571" y="-11"/>
    </contour>
    <contour>
      <point x="634" y="519" type="curve" smooth="yes"/>
      <point x="683" y="519"/>
      <point x="753" y="531"/>
      <point x="900" y="531" type="curve" smooth="yes"/>
      <point x="978" y="531"/>
      <point x="1037" y="572"/>
      <point x="1037" y="635" type="curve" smooth="yes"/>
      <point x="1037" y="690"/>
      <point x="1002" y="710"/>
      <point x="917" y="710" type="curve" smooth="yes"/>
      <point x="842" y="710"/>
      <point x="731" y="702"/>
      <point x="611" y="687" type="curve" smooth="yes"/>
      <point x="560" y="681"/>
      <point x="528" y="653"/>
      <point x="528" y="608" type="curve" smooth="yes"/>
      <point x="528" y="560"/>
      <point x="555" y="519"/>
    </contour>
    <contour>
      <point x="801" y="120" type="curve" smooth="yes"/>
      <point x="842" y="120"/>
      <point x="865" y="143"/>
      <point x="865" y="189" type="curve" smooth="yes"/>
      <point x="865" y="327"/>
      <point x="882" y="437"/>
      <point x="882" y="495" type="curve" smooth="yes"/>
      <point x="882" y="545"/>
      <point x="833" y="585"/>
      <point x="774" y="585" type="curve" smooth="yes"/>
      <point x="723" y="585"/>
      <point x="707" y="558"/>
      <point x="707" y="504" type="curve" smooth="yes"/>
      <point x="707" y="422"/>
      <point x="692" y="310"/>
      <point x="692" y="197" type="curve" smooth="yes"/>
      <point x="692" y="150"/>
      <point x="735" y="120"/>
    </contour>
  </outline>
</glyph>
<glyph name="J" format="2">
  <advance width="1648"/>
  <unicode hex="004A"/>
  <anchor x="840" y="700" name="top"/>
  <anchor x="810" y="0" name="bottom"/>
  <outline>
    <contour>
      <point x="794" y="-12" type="curve" smooth="yes"/>
      <point x="984" y="-12"/>
      <point x="1085" y="68"/>
      <point x="1085" y="246" type="curve" smooth="yes"/>
      <point x="1085" y="336"/>
      <point x="1046" y="502"/>
      <point x="1013" y="591" type="curve" smooth="yes"/>
      <point x="989" y="656"/>
      <point x="948" y="674"/>
      <point x="873" y="676" type="curve" smooth="yes"/>
      <point x="839" y="676"/>
      <point x="811" y="644"/>
      <point x="825" y="607" type="curve" smooth="yes"/>
      <point x="864" y="514"/>
      <point x="907" y="356"/>
      <point x="907" y="272" type="curve" smooth="yes"/>
      <point x="907" y="195"/>
      <point x="879" y="161"/>
      <point x="794" y="161" type="curve" smooth="yes"/>
      <point x="720" y="161"/>
      <point x="700" y="183"/>
      <point x="700" y="204" type="curve" smooth="yes"/>
      <point x="700" y="234"/>
      <point x="726" y="258"/>
      <point x="726" y="289" type="curve" smooth="yes"/>
      <point x="726" y="316"/>
      <point x="709" y="330"/>
      <point x="676" y="330" type="curve" smooth="yes"/>
      <point x="571" y="330"/>
      <point x="531" y="232"/>
      <point x="531" y="171" type="curve" smooth="yes"/>
      <point x="531" y="57"/>
      <point x="638" y="-12"/>
    </contour>
    <contour>
      <point x="718" y="526" type="curve" smooth="yes"/>
      <point x="798" y="526"/>
      <point x="925" y="544"/>
      <point x="1056" y="544" type="curve" smooth="yes"/>
      <point x="1102" y="544"/>
      <point x="1126" y="565"/>
      <point x="1126" y="604" type="curve" smooth="yes"/>
      <point x="1126" y="693"/>
      <point x="1038" y="712"/>
      <point x="960" y="712" type="curve" smooth="yes"/>
      <point x="860" y="712"/>
      <point x="809" y="700"/>
      <point x="737" y="700" type="curve" smooth="yes"/>
      <point x="696" y="700"/>
      <point x="656" y="713"/>
      <point x="607" y="713" type="curve" smooth="yes"/>
      <point x="575" y="713"/>
      <point x="557" y="691"/>
      <point x="557" y="657" type="curve" smooth="yes"/>
      <point x="557" y="561"/>
      <point x="652" y="526"/>
    </contour>
  </outline>
</glyph>
<glyph name="K" format="2">
  <advance width="1684"/>
  <unicode hex="004B"/>
  <anchor x="831" y="700" name="top"/>
  <anchor x="831" y="0" name="bottom"/>
  <outline>
    <contour>
      <point x="663" y="-12" type="curve" smooth="yes"/>
      <point x="710" y="-12"/>
      <point x="740" y="13"/>
      <point x="740" y="56" type="curve" smooth="yes"/>
      <point x="740" y="99"/>
      <point x="729" y="131"/>
      <point x="729" y="193" type="curve" smooth="yes"/>
      <point x="729" y="332"/>
      <point x="752" y="467"/>
      <point x="752" y="552" type="curve" smooth="yes"/>
      <point x="752" y="617"/>
      <point x="738" y="711"/>
      <point x="637" y="711" type="curve" smooth="yes"/>
      <point x="585" y="711"/>
      <point x="567" y="688"/>
      <point x="567" y="650" type="curve" smooth="yes"/>
      <point x="567" y="620"/>
      <point x="577" y="598"/>
      <point x="577" y="537" type="curve" smooth="yes"/>
      <point x="577" y="471"/>
      <point x="555" y="339"/>
      <point x="555" y="187" type="curve" smooth="yes"/>
      <point x="555" y="40"/>
      <point x="579" y="-12"/>
    </contour>
    <contour>
      <point x="1113" y="-11" type="curve" smooth="yes"/>
      <point x="1171" y="-11"/>
      <point x="1194" y="20.7352941176"/>
      <point x="1194" y="72" type="curve" smooth="yes"/>
      <point x="1194" y="119.6464646465"/>
      <point x="1172" y="151"/>
      <point x="1129" y="163" type="curve" smooth="yes"/>
      <point x="1008.1230244093" y="196.8455531654"/>
      <point x="877" y="289"/>
      <point x="877" y="324" type="curve" smooth="yes"/>
      <point x="877" y="364"/>
      <point x="962.1207625029" y="466.761011576"/>
      <point x="1042" y="521" type="curve" smooth="yes"/>
      <point x="1095" y="556"/>
      <point x="1114" y="583.8510638298"/>
      <point x="1114" y="627" type="curve" smooth="yes"/>
      <point x="1114" y="690.6041666667"/>
      <point x="1081" y="713"/>
      <point x="1035" y="713" type="curve" smooth="yes"/>
      <point x="1008" y="713"/>
      <point x="979" y="704"/>
      <point x="951" y="680" type="curve" smooth="yes"/>
      <point x="838" y="586"/>
      <point x="709" y="424"/>
      <point x="709" y="292" type="curve" smooth="yes"/>
      <point x="709" y="162"/>
      <point x="999" y="-11"/>
    </contour>
  </outline>
</glyph>
<glyph name="L" format="2">
  <advance width="1536"/>
  <unicode hex="004C"/>
  <anchor x="684" y="700" name="top"/>
  <anchor x="790" y="0" name="bottom"/>
  <outline>
    <contour>
      <point x="790" y="-9" type="curve" smooth="yes"/>
      <point x="853" y="-9"/>
      <point x="928" y="6"/>
      <point x="971" y="42" type="curve" smooth="yes"/>
      <point x="1006" y="72"/>
      <point x="1019" y="111"/>
      <point x="1019" y="153" type="curve" smooth="yes"/>
      <point x="1019" y="188"/>
      <point x="997" y="222"/>
      <point x="965" y="222" type="curve" smooth="yes"/>
      <point x="903" y="222"/>
      <point x="896" y="164"/>
      <point x="797" y="164" type="curve" smooth="yes"/>
      <point x="736.4588235294" y="164"/>
      <point x="714" y="186"/>
      <point x="714" y="237" type="curve" smooth="yes"/>
      <point x="714" y="300"/>
      <point x="771" y="457.15"/>
      <point x="771" y="594" type="curve" smooth="yes"/>
      <point x="771" y="644"/>
      <point x="738" y="710"/>
      <point x="669" y="710" type="curve" smooth="yes"/>
      <point x="611.5641025641" y="710"/>
      <point x="589" y="676"/>
      <point x="589" y="629" type="curve" smooth="yes"/>
      <point x="589" y="526"/>
      <point x="540" y="398"/>
      <point x="540" y="251" type="curve" smooth="yes"/>
      <point x="540" y="78"/>
      <point x="623" y="-9"/>
    </contour>
  </outline>
</glyph>
<glyph name="M" format="2">
  <advance width="2050.0"/>
  <unicode hex="004D"/>
  <anchor x="1054" y="700" name="top"/>
  <anchor x="1034" y="0" name="bottom"/>
  <outline>
    <contour>
      <point x="720" y="529" type="line"/>
      <point x="720" y="581.1538461538"/>
      <point x="681" y="642"/>
      <point x="616" y="642" type="curve" smooth="yes"/>
      <point x="567" y="642"/>
      <point x="550" y="613"/>
      <point x="550" y="572" type="curve" smooth="yes"/>
      <point x="550" y="536"/>
      <point x="562" y="490"/>
      <point x="562" y="444" type="curve" smooth="yes"/>
      <point x="562" y="382.2207792208"/>
      <point x="554" y="312.6103896104"/>
      <point x="554" y="243" type="curve" smooth="yes"/>
      <point x="554" y="45"/>
      <point x="584.880733945" y="-12"/>
      <point x="656" y="-12" type="curve" smooth="yes"/>
      <point x="701" y="-12"/>
      <point x="729" y="9"/>
      <point x="733" y="67" type="curve" smooth="yes"/>
      <point x="744" y="226"/>
      <point x="765" y="361"/>
      <point x="846" y="485" type="curve"/>
      <point x="832" y="487" type="line"/>
      <point x="856" y="431"/>
      <point x="863" y="379"/>
      <point x="875" y="300" type="curve" smooth="yes"/>
      <point x="894" y="180"/>
      <point x="916" y="101"/>
      <point x="954" y="37" type="curve" smooth="yes"/>
      <point x="973" y="4"/>
      <point x="995" y="-10"/>
      <point x="1034" y="-10" type="curve" smooth="yes"/>
      <point x="1073" y="-10"/>
      <point x="1096" y="5"/>
      <point x="1113" y="51" type="curve" smooth="yes"/>
      <point x="1200" y="279"/>
      <point x="1217" y="444"/>
      <point x="1291" y="528" type="curve"/>
      <point x="1231" y="555" type="line"/>
      <point x="1258" y="510"/>
      <point x="1267" y="462"/>
      <point x="1272" y="407" type="curve" smooth="yes"/>
      <point x="1282.9940073389998" y="309.0533891615"/>
      <point x="1291.4414201215" y="150.1760157731"/>
      <point x="1336" y="67" type="curve" smooth="yes"/>
      <point x="1363" y="17"/>
      <point x="1397" y="-9"/>
      <point x="1451" y="-9" type="curve" smooth="yes"/>
      <point x="1519.9714285713999" y="-9"/>
      <point x="1543.9013378687" y="42.2446820856"/>
      <point x="1519" y="104" type="curve" smooth="yes"/>
      <point x="1483" y="194"/>
      <point x="1464" y="338"/>
      <point x="1448" y="486" type="curve" smooth="yes"/>
      <point x="1430.0122457558" y="648.8891078778"/>
      <point x="1374.5348837208999" y="716"/>
      <point x="1286" y="716" type="curve" smooth="yes"/>
      <point x="1202.0931677019" y="716"/>
      <point x="1155.3536228880998" y="642.6031209387"/>
      <point x="1115" y="565" type="curve" smooth="yes"/>
      <point x="1067" y="468"/>
      <point x="1041" y="338"/>
      <point x="1010" y="253" type="curve"/>
      <point x="1075" y="215" type="line"/>
      <point x="1039" y="298"/>
      <point x="1041" y="363"/>
      <point x="1011" y="504" type="curve" smooth="yes"/>
      <point x="977" y="668"/>
      <point x="941.1063829787" y="709"/>
      <point x="876" y="709" type="curve" smooth="yes"/>
      <point x="802" y="709"/>
      <point x="740" y="624"/>
      <point x="695" y="513" type="curve"/>
    </contour>
  </outline>
</glyph>
<glyph name="N" format="2">
  <advance width="1801.0"/>
  <unicode hex="004E"/>
  <anchor x="888" y="700" name="top"/>
  <anchor x="888" y="0" name="bottom"/>
  <outline>
    <contour>
      <point x="631" y="-18" type="curve" smooth="yes"/>
      <point x="679" y="-18"/>
      <point x="706" y="4"/>
      <point x="716" y="41" type="curve" smooth="yes"/>
      <point x="736" y="114"/>
      <point x="747" y="217"/>
      <point x="747" y="342" type="curve" smooth="yes"/>
      <point x="747" y="392"/>
      <point x="745" y="420"/>
      <point x="734" y="488" type="curve"/>
      <point x="703" y="482" type="line"/>
      <point x="858" y="257"/>
      <point x="905" y="-17"/>
      <point x="1081" y="-17" type="curve" smooth="yes"/>
      <point x="1211" y="-17"/>
      <point x="1232" y="92"/>
      <point x="1232" y="242" type="curve" smooth="yes"/>
      <point x="1232" y="391"/>
      <point x="1211" y="468"/>
      <point x="1237" y="597" type="curve" smooth="yes"/>
      <point x="1246" y="640"/>
      <point x="1230" y="715"/>
      <point x="1146" y="715" type="curve" smooth="yes"/>
      <point x="1109" y="715"/>
      <point x="1087" y="695"/>
      <point x="1073" y="643" type="curve" smooth="yes"/>
      <point x="1037" y="508"/>
      <point x="1070" y="388"/>
      <point x="1070" y="227" type="curve" smooth="yes"/>
      <point x="1070" y="139"/>
      <point x="1033" y="116"/>
      <point x="1010" y="106" type="curve"/>
      <point x="1109" y="152" type="line"/>
      <point x="979" y="236"/>
      <point x="880" y="710"/>
      <point x="640" y="710" type="curve" smooth="yes"/>
      <point x="588" y="710"/>
      <point x="561" y="678"/>
      <point x="561" y="638" type="curve" smooth="yes"/>
      <point x="561" y="605"/>
      <point x="577" y="457"/>
      <point x="577" y="342" type="curve" smooth="yes"/>
      <point x="577" y="133"/>
      <point x="553" y="102"/>
      <point x="553" y="46" type="curve" smooth="yes"/>
      <point x="553" y="13"/>
      <point x="573" y="-18"/>
    </contour>
  </outline>
</glyph>
<glyph name="O" format="2">
  <advance width="1756"/>
  <unicode hex="004F"/>
  <anchor x="867" y="700" name="top"/>
  <anchor x="867" y="0" name="bottom"/>
  <anchor x="1010" y="29" name="ogonek"/>
  <outline>
    <contour>
      <point x="833" y="486" type="curve" smooth="yes"/>
      <point x="866" y="509"/>
      <point x="882" y="542"/>
      <point x="852" y="584" type="curve" smooth="yes"/>
      <point x="833" y="611"/>
      <point x="816" y="619"/>
      <point x="782" y="619" type="curve" smooth="yes"/>
      <point x="716" y="619"/>
      <point x="545" y="481"/>
      <point x="545" y="290" type="curve" smooth="yes"/>
      <point x="545" y="105"/>
      <point x="684" y="-10"/>
      <point x="862" y="-10" type="curve" smooth="yes"/>
      <point x="1051" y="-10"/>
      <point x="1211" y="123"/>
      <point x="1211" y="300" type="curve" smooth="yes"/>
      <point x="1211" y="505"/>
      <point x="1069" y="711"/>
      <point x="869" y="711" type="curve" smooth="yes"/>
      <point x="774" y="711"/>
      <point x="720" y="661"/>
      <point x="720" y="606" type="curve" smooth="yes"/>
      <point x="720" y="515"/>
      <point x="775" y="469"/>
      <point x="829" y="469" type="curve" smooth="yes"/>
      <point x="855" y="469"/>
      <point x="871" y="484"/>
      <point x="871" y="512" type="curve" smooth="yes"/>
      <point x="871" y="528"/>
      <point x="878" y="536"/>
      <point x="889" y="536" type="curve" smooth="yes"/>
      <point x="960" y="536"/>
      <point x="1035" y="411"/>
      <point x="1035" y="300" type="curve" smooth="yes"/>
      <point x="1035" y="220"/>
      <point x="954.8531073446" y="156"/>
      <point x="862" y="156" type="curve" smooth="yes"/>
      <point x="780.693877551" y="156"/>
      <point x="718" y="199"/>
      <point x="718" y="290" type="curve" smooth="yes"/>
      <point x="718" y="364.5287958115"/>
      <point x="740" y="420"/>
    </contour>
  </outline>
</glyph>
<glyph name="P" format="2">
  <advance width="1642"/>
  <unicode hex="0050"/>
  <anchor x="839" y="700" name="top"/>
  <anchor x="686" y="0" name="bottom"/>
  <outline>
    <contour>
      <point x="580" y="135" type="curve" smooth="yes"/>
      <point x="580" y="30"/>
      <point x="628" y="-10"/>
      <point x="686" y="-10" type="curve" smooth="yes"/>
      <point x="748" y="-10"/>
      <point x="758" y="34"/>
      <point x="758" y="97" type="curve" smooth="yes"/>
      <point x="758" y="270"/>
      <point x="714" y="364.8095238095"/>
      <point x="714" y="466" type="curve" smooth="yes"/>
      <point x="714" y="509"/>
      <point x="755.6417910448" y="533"/>
      <point x="838" y="533" type="curve" smooth="yes"/>
      <point x="888.1136363636" y="533"/>
      <point x="936" y="516"/>
      <point x="936" y="480" type="curve" smooth="yes"/>
      <point x="936" y="415"/>
      <point x="865" y="348"/>
      <point x="784" y="348" type="curve" smooth="yes"/>
      <point x="727" y="348"/>
      <point x="715" y="366"/>
      <point x="690" y="366" type="curve" smooth="yes"/>
      <point x="655" y="366"/>
      <point x="627" y="344"/>
      <point x="627" y="303" type="curve" smooth="yes"/>
      <point x="627" y="241.1538461538"/>
      <point x="697" y="183"/>
      <point x="791" y="183" type="curve" smooth="yes"/>
      <point x="962" y="183"/>
      <point x="1109" y="317"/>
      <point x="1109" y="480" type="curve" smooth="yes"/>
      <point x="1109" y="625"/>
      <point x="986.4961832061" y="708"/>
      <point x="837" y="708" type="curve" smooth="yes"/>
      <point x="620.3202614379" y="708"/>
      <point x="541" y="612"/>
      <point x="541" y="466" type="curve" smooth="yes"/>
      <point x="541" y="363"/>
      <point x="580" y="311"/>
    </contour>
  </outline>
</glyph>
<glyph name="Q" format="2">
  <advance width="1784"/>
  <unicode hex="0051"/>
  <anchor x="934" y="700" name="top"/>
  <anchor x="934" y="0" name="bottom"/>
  <outline>
    <contour>
      <point x="1006" y="257" type="curve" smooth="yes"/>
      <point x="971" y="302"/>
      <point x="940" y="324"/>
      <point x="886" y="324" type="curve" smooth="yes"/>
      <point x="812" y="324"/>
      <point x="795" y="271"/>
      <point x="846" y="200" type="curve" smooth="yes"/>
      <point x="898.3992810548" y="127.8436129737"/>
      <point x="953.0349022145" y="2.0723308728"/>
      <point x="1008" y="-59" type="curve" smooth="yes"/>
      <point x="1044" y="-99"/>
      <point x="1064" y="-108"/>
      <point x="1100" y="-108" type="curve" smooth="yes"/>
      <point x="1180" y="-108"/>
      <point x="1186" y="-15"/>
      <point x="1118" y="73" type="curve" smooth="yes"/>
      <point x="1071.3177097518" y="133.6050785678"/>
      <point x="1029.7902314003" y="226.6469461444"/>
    </contour>
    <contour>
      <point x="834" y="510" type="curve" smooth="yes"/>
      <point x="880" y="531"/>
      <point x="885" y="547"/>
      <point x="885" y="574" type="curve" smooth="yes"/>
      <point x="885" y="617"/>
      <point x="827" y="656"/>
      <point x="788" y="656" type="curve" smooth="yes"/>
      <point x="698" y="656"/>
      <point x="545" y="496"/>
      <point x="545" y="313" type="curve" smooth="yes"/>
      <point x="545" y="144"/>
      <point x="638" y="-9"/>
      <point x="895" y="-9" type="curve" smooth="yes"/>
      <point x="1110" y="-9"/>
      <point x="1239" y="156"/>
      <point x="1239" y="327" type="curve" smooth="yes"/>
      <point x="1239" y="546"/>
      <point x="1099" y="709"/>
      <point x="934" y="709" type="curve" smooth="yes"/>
      <point x="813" y="709"/>
      <point x="693" y="587"/>
      <point x="693" y="497" type="curve" smooth="yes"/>
      <point x="693" y="438"/>
      <point x="720" y="414"/>
      <point x="774" y="414" type="curve" smooth="yes"/>
      <point x="797" y="414"/>
      <point x="812" y="424"/>
      <point x="828" y="455" type="curve" smooth="yes"/>
      <point x="851" y="500"/>
      <point x="874" y="524"/>
      <point x="919" y="524" type="curve" smooth="yes"/>
      <point x="1000" y="524"/>
      <point x="1064" y="410"/>
      <point x="1064" y="315" type="curve" smooth="yes"/>
      <point x="1064" y="239"/>
      <point x="999" y="166"/>
      <point x="895" y="166" type="curve" smooth="yes"/>
      <point x="764" y="166"/>
      <point x="716" y="237"/>
      <point x="716" y="313" type="curve" smooth="yes"/>
      <point x="716" y="392"/>
      <point x="759" y="476"/>
    </contour>
  </outline>
</glyph>
<glyph name="R" format="2">
  <advance width="1756.0"/>
  <unicode hex="0052"/>
  <anchor x="869.0" y="700" name="top"/>
  <anchor x="869.0" y="0" name="bottom"/>
  <outline>
    <contour>
      <point x="617.0" y="679" type="curve" smooth="yes"/>
      <point x="553.0" y="679"/>
      <point x="533.0" y="643"/>
      <point x="548.0" y="588" type="curve" smooth="yes"/>
      <point x="576.0" y="489"/>
      <point x="602.0" y="422"/>
      <point x="599.0" y="313" type="curve"/>
      <point x="564.0" y="240"/>
      <point x="548.0" y="175"/>
      <point x="548.0" y="126" type="curve" smooth="yes"/>
      <point x="548.0" y="35"/>
      <point x="600.0" y="-13"/>
      <point x="656.0" y="-13" type="curve" smooth="yes"/>
      <point x="707.0" y="-13"/>
      <point x="733.0" y="15"/>
      <point x="733.0" y="65" type="curve" smooth="yes"/>
      <point x="733.0" y="473.2978723404"/>
      <point x="979.0" y="540"/>
      <point x="1006.0" y="540" type="curve" smooth="yes"/>
      <point x="1020.0" y="540"/>
      <point x="1026.0" y="534"/>
      <point x="1026.0" y="520" type="curve" smooth="yes"/>
      <point x="1026.0" y="482"/>
      <point x="945.2417801314" y="371.0493848779"/>
      <point x="710.0" y="323" type="curve" smooth="yes"/>
      <point x="671.0" y="315"/>
      <point x="656.0" y="237"/>
      <point x="679.0" y="206" type="curve" smooth="yes"/>
      <point x="758.0" y="104"/>
      <point x="1027.0" y="-12"/>
      <point x="1121.0" y="-12" type="curve" smooth="yes"/>
      <point x="1194.0" y="-12"/>
      <point x="1234.0" y="21.7263157895"/>
      <point x="1234.0" y="77" type="curve" smooth="yes"/>
      <point x="1234.0" y="110.8615384615"/>
      <point x="1215.0" y="130"/>
      <point x="1146.0" y="146" type="curve" smooth="yes"/>
      <point x="1070.0" y="165"/>
      <point x="984.0" y="193"/>
      <point x="903.0" y="233" type="curve"/>
      <point x="1078.0" y="286"/>
      <point x="1200.0" y="400"/>
      <point x="1200.0" y="529" type="curve" smooth="yes"/>
      <point x="1200.0" y="630"/>
      <point x="1148.0" y="710"/>
      <point x="1020.0" y="710" type="curve" smooth="yes"/>
      <point x="903.0" y="710"/>
      <point x="794.0" y="636"/>
      <point x="723.0" y="528" type="curve"/>
      <point x="753.0" y="524" type="line"/>
      <point x="727.3682701943" y="639.8554187217"/>
      <point x="692.0" y="679"/>
    </contour>
  </outline>
</glyph>
<glyph name="S" format="2">
  <advance width="1578"/>
  <unicode hex="0053"/>
  <anchor x="794" y="700" name="top"/>
  <anchor x="794" y="0" name="bottom"/>
  <outline>
    <contour>
      <point x="753" y="-9" type="curve" smooth="yes"/>
      <point x="950" y="-9"/>
      <point x="1047" y="46"/>
      <point x="1047" y="168" type="curve" smooth="yes"/>
      <point x="1047" y="362"/>
      <point x="717" y="385"/>
      <point x="717" y="451" type="curve" smooth="yes"/>
      <point x="717" y="481"/>
      <point x="822" y="518"/>
      <point x="971" y="546" type="curve" smooth="yes"/>
      <point x="1008" y="553"/>
      <point x="1025" y="581"/>
      <point x="1025" y="615" type="curve" smooth="yes"/>
      <point x="1025" y="664"/>
      <point x="1001" y="710"/>
      <point x="929" y="710" type="curve" smooth="yes"/>
      <point x="806" y="710"/>
      <point x="538" y="612"/>
      <point x="538" y="455" type="curve" smooth="yes"/>
      <point x="538" y="257"/>
      <point x="833" y="236"/>
      <point x="866" y="172" type="curve"/>
      <point x="822.5827023841" y="161.386882805"/>
      <point x="797.6492537313" y="158"/>
      <point x="737" y="158" type="curve" smooth="yes"/>
      <point x="659.1804511278" y="158"/>
      <point x="640.5037593985" y="185"/>
      <point x="599" y="185" type="curve" smooth="yes"/>
      <point x="565" y="185"/>
      <point x="551" y="163"/>
      <point x="551" y="129" type="curve" smooth="yes"/>
      <point x="551" y="54"/>
      <point x="620" y="-9"/>
    </contour>
  </outline>
</glyph>
<glyph name="T" format="2">
  <advance width="1625"/>
  <unicode hex="0054"/>
  <anchor x="819" y="700" name="top"/>
  <anchor x="830" y="0" name="bottom"/>
  <outline>
    <contour>
      <point x="717" y="568" type="curve" smooth="yes"/>
      <point x="693" y="286"/>
      <point x="690" y="195"/>
      <point x="719" y="85" type="curve" smooth="yes"/>
      <point x="741.8407125693" y="9.5263410755"/>
      <point x="782" y="-13"/>
      <point x="827" y="-13" type="curve" smooth="yes"/>
      <point x="878" y="-13"/>
      <point x="902" y="6"/>
      <point x="902" y="61" type="curve" smooth="yes"/>
      <point x="902" y="130"/>
      <point x="872.3802368339" y="172.9973718797"/>
      <point x="894" y="514" type="curve" smooth="yes"/>
      <point x="899" y="602"/>
      <point x="872" y="640"/>
      <point x="789" y="640" type="curve" smooth="yes"/>
      <point x="748" y="640"/>
      <point x="720" y="610"/>
    </contour>
    <contour>
      <point x="623" y="543" type="curve" smooth="yes"/>
      <point x="734" y="532"/>
      <point x="838" y="532"/>
      <point x="974" y="532" type="curve" smooth="yes"/>
      <point x="1042" y="532"/>
      <point x="1113" y="566"/>
      <point x="1113" y="649" type="curve" smooth="yes"/>
      <point x="1113" y="686"/>
      <point x="1093" y="711"/>
      <point x="1051" y="711" type="curve" smooth="yes"/>
      <point x="968" y="711"/>
      <point x="919" y="700"/>
      <point x="855" y="700" type="curve" smooth="yes"/>
      <point x="763" y="700"/>
      <point x="678" y="710"/>
      <point x="565" y="710" type="curve" smooth="yes"/>
      <point x="527" y="710"/>
      <point x="512" y="683"/>
      <point x="512" y="651" type="curve" smooth="yes"/>
      <point x="512" y="585"/>
      <point x="539" y="551"/>
    </contour>
  </outline>
</glyph>
<glyph name="U" format="2">
  <advance width="1689"/>
  <unicode hex="0055"/>
  <anchor x="855" y="700" name="top"/>
  <anchor x="855" y="0" name="bottom"/>
  <anchor x="982" y="11" name="ogonek"/>
  <outline>
    <contour>
      <point x="865" y="-13" type="curve" smooth="yes"/>
      <point x="1057" y="-13"/>
      <point x="1143" y="114"/>
      <point x="1143" y="298" type="curve" smooth="yes"/>
      <point x="1143" y="382"/>
      <point x="1134" y="448"/>
      <point x="1134" y="520" type="curve" smooth="yes"/>
      <point x="1134" y="578"/>
      <point x="1143" y="605"/>
      <point x="1143" y="638" type="curve" smooth="yes"/>
      <point x="1143" y="687"/>
      <point x="1112" y="712"/>
      <point x="1062" y="712" type="curve" smooth="yes"/>
      <point x="990.3773584906" y="712"/>
      <point x="958" y="655"/>
      <point x="958" y="574" type="curve" smooth="yes"/>
      <point x="958" y="472"/>
      <point x="964" y="412.6"/>
      <point x="964" y="305" type="curve" smooth="yes"/>
      <point x="964" y="198"/>
      <point x="928" y="165"/>
      <point x="858" y="165" type="curve" smooth="yes"/>
      <point x="779" y="165"/>
      <point x="744" y="194"/>
      <point x="744" y="332" type="curve" smooth="yes"/>
      <point x="744" y="395"/>
      <point x="753" y="483"/>
      <point x="753" y="544" type="curve" smooth="yes"/>
      <point x="753" y="680"/>
      <point x="701" y="716"/>
      <point x="633" y="716" type="curve" smooth="yes"/>
      <point x="580.2857142857" y="716"/>
      <point x="551" y="695.7142857143"/>
      <point x="551" y="645" type="curve" smooth="yes"/>
      <point x="551" y="595.3125"/>
      <point x="565" y="583.3875"/>
      <point x="565" y="486" type="curve" smooth="yes"/>
      <point x="565" y="449.7551020408"/>
      <point x="560" y="396"/>
      <point x="560" y="342" type="curve" smooth="yes"/>
      <point x="560" y="122"/>
      <point x="642" y="-13"/>
    </contour>
  </outline>
</glyph>
<glyph name="V" format="2">
  <advance width="1714"/>
  <unicode hex="0056"/>
  <anchor x="860" y="700" name="top"/>
  <anchor x="860" y="0" name="bottom"/>
  <outline>
    <contour>
      <point x="867" y="-12" type="curve" smooth="yes"/>
      <point x="924" y="-12"/>
      <point x="944" y="17"/>
      <point x="960" y="70" type="curve" smooth="yes"/>
      <point x="1017" y="244"/>
      <point x="1083" y="358"/>
      <point x="1162" y="487" type="curve" smooth="yes"/>
      <point x="1197" y="545"/>
      <point x="1202" y="555"/>
      <point x="1202" y="606" type="curve" smooth="yes"/>
      <point x="1202" y="666"/>
      <point x="1170" y="715"/>
      <point x="1117" y="715" type="curve" smooth="yes"/>
      <point x="1086" y="715"/>
      <point x="1061" y="709"/>
      <point x="1012" y="633" type="curve" smooth="yes"/>
      <point x="929" y="504"/>
      <point x="861" y="366"/>
      <point x="817" y="198" type="curve"/>
      <point x="863" y="257" type="line"/>
      <point x="807" y="337"/>
      <point x="776" y="563"/>
      <point x="684" y="669" type="curve" smooth="yes"/>
      <point x="654" y="703"/>
      <point x="628" y="712"/>
      <point x="597" y="712" type="curve" smooth="yes"/>
      <point x="538" y="712"/>
      <point x="512" y="671"/>
      <point x="512" y="629" type="curve" smooth="yes"/>
      <point x="512" y="586"/>
      <point x="537" y="554"/>
      <point x="558" y="524" type="curve" smooth="yes"/>
      <point x="632" y="417"/>
      <point x="615" y="315"/>
      <point x="739" y="89" type="curve" smooth="yes"/>
      <point x="779" y="15"/>
      <point x="807" y="-12"/>
    </contour>
  </outline>
</glyph>
<glyph name="W" format="2">
  <advance width="2005.0"/>
  <unicode hex="0057"/>
  <anchor x="1017.0" y="700" name="top"/>
  <anchor x="1017.0" y="0" name="bottom"/>
  <outline>
    <contour>
      <point x="730.0" y="599" type="curve" smooth="yes"/>
      <point x="726.3592515779001" y="659.6791403687"/>
      <point x="690.2189781022" y="712"/>
      <point x="621.0" y="712" type="curve" smooth="yes"/>
      <point x="554.6440677966" y="712"/>
      <point x="530.9918420263" y="676.1223696053"/>
      <point x="534.0" y="631" type="curve" smooth="yes"/>
      <point x="546.0" y="450"/>
      <point x="596.0" y="255"/>
      <point x="663.0" y="84" type="curve" smooth="yes"/>
      <point x="695.0" y="3"/>
      <point x="736.0" y="-8"/>
      <point x="763.0" y="-8" type="curve" smooth="yes"/>
      <point x="806.0" y="-8"/>
      <point x="827.0" y="13"/>
      <point x="841.0" y="59" type="curve" smooth="yes"/>
      <point x="892.0" y="222"/>
      <point x="948.0" y="352"/>
      <point x="1024.0" y="441" type="curve"/>
      <point x="966.0" y="460" type="line"/>
      <point x="1030.0" y="375"/>
      <point x="1063.0" y="166"/>
      <point x="1148.0" y="59" type="curve" smooth="yes"/>
      <point x="1187.0" y="10"/>
      <point x="1219.0" y="-12"/>
      <point x="1272.0" y="-12" type="curve" smooth="yes"/>
      <point x="1297.0" y="-12"/>
      <point x="1323.0" y="-1"/>
      <point x="1341.0" y="42" type="curve" smooth="yes"/>
      <point x="1402.0" y="193"/>
      <point x="1420.0" y="415"/>
      <point x="1460.0" y="559" type="curve" smooth="yes"/>
      <point x="1481.0" y="634"/>
      <point x="1465.0" y="712"/>
      <point x="1375.0" y="712" type="curve" smooth="yes"/>
      <point x="1331.0" y="712"/>
      <point x="1303.0" y="692"/>
      <point x="1284.0" y="645" type="curve" smooth="yes"/>
      <point x="1252.0" y="570"/>
      <point x="1243.0" y="367"/>
      <point x="1201.0" y="242" type="curve"/>
      <point x="1264.0" y="245" type="line"/>
      <point x="1198.0" y="336"/>
      <point x="1178.0" y="498"/>
      <point x="1136.0" y="578" type="curve" smooth="yes"/>
      <point x="1105.0" y="635"/>
      <point x="1078.0" y="655"/>
      <point x="1039.0" y="655" type="curve" smooth="yes"/>
      <point x="981.0" y="655"/>
      <point x="943.0" y="630"/>
      <point x="908.0" y="590" type="curve" smooth="yes"/>
      <point x="836.0" y="509"/>
      <point x="781.0" y="407"/>
      <point x="744.0" y="280" type="curve"/>
      <point x="781.0" y="294" type="line"/>
      <point x="748.9270849632001" y="405.3118815983"/>
      <point x="738.4488002415001" y="475.0842631242"/>
    </contour>
  </outline>
</glyph>
<glyph name="X" format="2">
  <advance width="1672.0"/>
  <unicode hex="0058"/>
  <anchor x="840.0" y="700" name="top"/>
  <anchor x="840.0" y="0" name="bottom"/>
  <outline>
    <contour>
      <point x="721.0" y="635" type="curve" smooth="yes"/>
      <point x="699.0" y="687"/>
      <point x="666.0" y="713"/>
      <point x="617.0" y="712" type="curve" smooth="yes"/>
      <point x="531.0" y="711"/>
      <point x="504.0" y="650"/>
      <point x="544.0" y="546" type="curve" smooth="yes"/>
      <point x="609.0" y="381"/>
      <point x="871.0" y="193"/>
      <point x="944.0" y="66" type="curve" smooth="yes"/>
      <point x="977.0" y="8"/>
      <point x="1012.0" y="-12"/>
      <point x="1053.0" y="-12" type="curve" smooth="yes"/>
      <point x="1132.0" y="-12"/>
      <point x="1174.0" y="67"/>
      <point x="1098.0" y="180" type="curve" smooth="yes"/>
      <point x="1008.0" y="315"/>
      <point x="825.0" y="392"/>
    </contour>
    <contour>
      <point x="1114.0" y="536" type="curve" smooth="yes"/>
      <point x="1185.0" y="610"/>
      <point x="1126.0" y="706"/>
      <point x="1055.0" y="707" type="curve" smooth="yes"/>
      <point x="1021.0" y="707"/>
      <point x="1000.0" y="695"/>
      <point x="969.0" y="663" type="curve" smooth="yes"/>
      <point x="890.0" y="587"/>
      <point x="740.0" y="423"/>
      <point x="573.0" y="183" type="curve" smooth="yes"/>
      <point x="506.1291415119" y="86.7464915701"/>
      <point x="559.48" y="-5"/>
      <point x="625.0" y="-5" type="curve" smooth="yes"/>
      <point x="665.0120481928" y="-5"/>
      <point x="683.131438201" y="11.23430288"/>
      <point x="706.0" y="52" type="curve" smooth="yes"/>
      <point x="793.0" y="205"/>
      <point x="987.0" y="404"/>
    </contour>
  </outline>
</glyph>
<glyph name="Y" format="2">
  <advance width="1626"/>
  <unicode hex="0059"/>
  <anchor x="800" y="700" name="top"/>
  <anchor x="742" y="0" name="bottom"/>
  <outline>
    <contour>
      <point x="1063" y="523" type="curve" smooth="yes"/>
      <point x="1103" y="561"/>
      <point x="1114" y="588.2087912088"/>
      <point x="1114" y="625" type="curve" smooth="yes"/>
      <point x="1114" y="679"/>
      <point x="1088.5230769231" y="713"/>
      <point x="1045" y="713" type="curve" smooth="yes"/>
      <point x="1023.3142857143" y="713"/>
      <point x="1006" y="706"/>
      <point x="977" y="683" type="curve" smooth="yes"/>
      <point x="809.1911477722" y="551.3655111267"/>
      <point x="675.7973813112001" y="294.9346178622"/>
      <point x="645" y="133" type="curve" smooth="yes"/>
      <point x="627.514376145" y="44.543314616"/>
      <point x="659.0684931507" y="-16"/>
      <point x="724" y="-16" type="curve" smooth="yes"/>
      <point x="763.8918918919001" y="-16"/>
      <point x="784.1690178246" y="0.3738959621"/>
      <point x="796" y="52" type="curve" smooth="yes"/>
      <point x="831.5063637597" y="213.7512126833"/>
      <point x="918" y="398"/>
    </contour>
    <contour>
      <point x="665" y="661" type="curve" smooth="yes"/>
      <point x="640.8398938805" y="703.5217867703"/>
      <point x="612.0875" y="710"/>
      <point x="582" y="710" type="curve" smooth="yes"/>
      <point x="541.5942028986" y="710"/>
      <point x="514" y="676.2209302326"/>
      <point x="514" y="627" type="curve" smooth="yes"/>
      <point x="514" y="586.15"/>
      <point x="526.656378941" y="559.0810694827"/>
      <point x="546" y="532" type="curve" smooth="yes"/>
      <point x="612.8576105109" y="439.8175370228"/>
      <point x="644.2130988137" y="429.9716943642"/>
      <point x="738" y="274" type="curve" smooth="yes"/>
      <point x="750" y="253"/>
      <point x="770" y="242"/>
      <point x="796" y="242" type="curve" smooth="yes"/>
      <point x="852.8846153846" y="242"/>
      <point x="879.7278073934" y="328.573497509"/>
      <point x="854" y="379" type="curve" smooth="yes"/>
      <point x="776" y="531"/>
      <point x="736" y="535"/>
    </contour>
  </outline>
</glyph>
<glyph name="Z" format="2">
  <advance width="1650"/>
  <unicode hex="005A"/>
  <anchor x="837" y="700" name="top"/>
  <anchor x="837" y="0" name="bottom"/>
  <outline>
    <contour>
      <point x="599" y="680" type="curve" smooth="yes"/>
      <point x="561.0765128839" y="673.0140944786"/>
      <point x="537" y="645.3417721519"/>
      <point x="537" y="606" type="curve" smooth="yes"/>
      <point x="537" y="545.8333333333"/>
      <point x="586" y="511"/>
      <point x="643" y="511" type="curve" smooth="yes"/>
      <point x="704" y="511"/>
      <point x="780" y="537"/>
      <point x="889" y="537" type="curve" smooth="yes"/>
      <point x="940" y="537"/>
      <point x="944" y="531"/>
      <point x="960" y="519" type="curve"/>
      <point x="928" y="561" type="line"/>
      <point x="924" y="516"/>
      <point x="923" y="495"/>
      <point x="792" y="413" type="curve" smooth="yes"/>
      <point x="576" y="277"/>
      <point x="545" y="206.0441176471"/>
      <point x="545" y="115" type="curve" smooth="yes"/>
      <point x="545" y="46.3461538462"/>
      <point x="579.375" y="-11"/>
      <point x="677" y="-11" type="curve" smooth="yes"/>
      <point x="751.7202072539001" y="-11"/>
      <point x="836.9274611399001" y="0"/>
      <point x="930" y="0" type="curve" smooth="yes"/>
      <point x="993" y="0"/>
      <point x="1018" y="-7"/>
      <point x="1058" y="-7" type="curve" smooth="yes"/>
      <point x="1096" y="-7"/>
      <point x="1124" y="20"/>
      <point x="1124" y="64" type="curve" smooth="yes"/>
      <point x="1124" y="136"/>
      <point x="1065" y="174"/>
      <point x="951" y="174" type="curve" smooth="yes"/>
      <point x="882" y="174"/>
      <point x="812" y="162"/>
      <point x="759" y="162" type="curve" smooth="yes"/>
      <point x="719" y="162"/>
      <point x="699" y="167"/>
      <point x="675" y="178" type="curve"/>
      <point x="727" y="108" type="line"/>
      <point x="733" y="171"/>
      <point x="747" y="192"/>
      <point x="903" y="291" type="curve" smooth="yes"/>
      <point x="1058" y="390"/>
      <point x="1106" y="458"/>
      <point x="1106" y="559" type="curve" smooth="yes"/>
      <point x="1106" y="654"/>
      <point x="1044" y="710"/>
      <point x="907" y="710" type="curve" smooth="yes"/>
      <point x="788" y="710"/>
      <point x="698" y="697"/>
    </contour>
  </outline>
</glyph>
<glyph name="bracketleft" format="2">
  <advance width="1513.0"/>
  <unicode hex="005B"/>
  <image fileName="parenleft.png" xScale="2.5963710802" yScale="2.5963710802" xOffset="-3331.5138148068" yOffset="-605.3762351949" color="0,0,0,0.18426"/>
  <outline>
    <contour>
      <point x="892.0" y="643"/>
      <point x="902.0" y="643" type="curve" smooth="yes"/>
      <point x="965.0" y="643"/>
      <point x="991.0" y="706"/>
      <point x="991.0" y="750" type="curve" smooth="yes"/>
      <point x="991.0" y="788"/>
      <point x="966.0" y="819"/>
      <point x="914.0" y="819" type="curve" smooth="yes"/>
      <point x="846.7037037037" y="819"/>
      <point x="767.0" y="805"/>
      <point x="684.0" y="805" type="curve" smooth="yes"/>
      <point x="641.0" y="805"/>
      <point x="604.0" y="775"/>
      <point x="596.0" y="733" type="curve" smooth="yes"/>
      <point x="573.5510563897" y="607.4899970877"/>
      <point x="593.1258761441" y="351.1189150921"/>
      <point x="587.0" y="248" type="curve" smooth="yes"/>
      <point x="581.0" y="134"/>
      <point x="560.0" y="-110"/>
      <point x="636.0" y="-229" type="curve" smooth="yes"/>
      <point x="651.0" y="-254"/>
      <point x="682.0" y="-270"/>
      <point x="711.0" y="-270" type="curve" smooth="yes"/>
      <point x="735.0" y="-270"/>
      <point x="759.0" y="-265"/>
      <point x="793.0" y="-262" type="curve" smooth="yes"/>
      <point x="816.2070619448" y="-259.3477643492"/>
      <point x="839.9322033898" y="-259"/>
      <point x="871.0" y="-259" type="curve" smooth="yes"/>
      <point x="946.2786885245999" y="-259"/>
      <point x="983.0" y="-220"/>
      <point x="983.0" y="-155" type="curve" smooth="yes"/>
      <point x="983.0" y="-115"/>
      <point x="955.0" y="-88"/>
      <point x="914.0" y="-88" type="curve" smooth="yes"/>
      <point x="884.0275229357999" y="-88"/>
      <point x="852.2385321100999" y="-91"/>
      <point x="815.0" y="-91" type="curve" smooth="yes"/>
      <point x="769.4578313252999" y="-91"/>
      <point x="738.7383365531" y="-96.8175378671"/>
      <point x="689.0" y="-106" type="curve"/>
      <point x="784.0" y="-133" type="line"/>
      <point x="724.0" y="-40"/>
      <point x="759.0" y="152"/>
      <point x="763.0" y="238" type="curve" smooth="yes"/>
      <point x="769.1319297573" y="335.0888878237"/>
      <point x="747.530760391" y="581.5044984429"/>
      <point x="770.0" y="701" type="curve"/>
      <point x="685.0" y="629" type="line"/>
      <point x="730.0" y="629"/>
      <point x="818.0714285714" y="645"/>
      <point x="869.0" y="645" type="curve" smooth="yes"/>
      <point x="882.0" y="645"/>
    </contour>
  </outline>
</glyph>
<glyph name="backslash" format="2">
  <advance width="1455.0"/>
  <unicode hex="005C"/>
  <outline>
    <contour>
      <point x="749.0" y="691" type="curve" smooth="yes"/>
      <point x="745.0" y="770"/>
      <point x="703.0" y="813"/>
      <point x="646.0" y="813" type="curve" smooth="yes"/>
      <point x="583.0" y="813"/>
      <point x="556.0" y="767"/>
      <point x="560.0" y="678" type="curve" smooth="yes"/>
      <point x="569.0" y="468"/>
      <point x="655.0" y="95"/>
      <point x="780.0" y="-196" type="curve" smooth="yes"/>
      <point x="798.0" y="-238"/>
      <point x="832.0" y="-264"/>
      <point x="870.0" y="-264" type="curve" smooth="yes"/>
      <point x="933.0" y="-264"/>
      <point x="985.0" y="-209"/>
      <point x="949.0" y="-130" type="curve" smooth="yes"/>
      <point x="817.0" y="159"/>
      <point x="763.0" y="417"/>
    </contour>
  </outline>
</glyph>
<glyph name="bracketright" format="2">
  <advance width="1513.0"/>
  <unicode hex="005D"/>
  <image fileName="parenleft.png" xScale="2.5963710802" yScale="2.5963710802" xOffset="-5235.7271646197" yOffset="-485.3762351949" color="0,0,0,0.18426"/>
  <outline>
    <contour>
      <point x="598.0" y="-94" type="curve" smooth="yes"/>
      <point x="556.0" y="-95"/>
      <point x="520.0" y="-131"/>
      <point x="521.0" y="-173" type="curve" smooth="yes"/>
      <point x="522.0" y="-227"/>
      <point x="582.0" y="-271"/>
      <point x="650.0" y="-270" type="curve" smooth="yes"/>
      <point x="699.7642454687" y="-269.0047150906"/>
      <point x="812.211285409" y="-249.9353207932"/>
      <point x="861.0" y="-235" type="curve" smooth="yes"/>
      <point x="892.0" y="-225"/>
      <point x="915.0" y="-199"/>
      <point x="921.0" y="-167" type="curve" smooth="yes"/>
      <point x="963.0" y="71"/>
      <point x="880.0" y="385"/>
      <point x="907.0" y="715" type="curve" smooth="yes"/>
      <point x="911.0" y="772"/>
      <point x="867.0" y="811"/>
      <point x="810.0" y="811" type="curve" smooth="yes"/>
      <point x="792.0" y="811"/>
      <point x="772.0" y="806"/>
      <point x="752.0" y="806" type="curve" smooth="yes"/>
      <point x="702.0" y="806"/>
      <point x="644.0" y="809"/>
      <point x="600.0" y="810" type="curve" smooth="yes"/>
      <point x="550.0" y="811"/>
      <point x="521.0" y="789"/>
      <point x="520.0" y="749" type="curve" smooth="yes"/>
      <point x="519.0" y="689"/>
      <point x="567.0" y="634"/>
      <point x="626.0" y="634" type="curve" smooth="yes"/>
      <point x="723.0" y="634"/>
      <point x="770.0" y="631"/>
      <point x="820.0" y="609" type="curve"/>
      <point x="731.0" y="729" type="line"/>
      <point x="706.0" y="405"/>
      <point x="789.0" y="98"/>
      <point x="747.0" y="-135" type="curve"/>
      <point x="807.0" y="-62" type="line"/>
      <point x="759.2081915896999" y="-76.9349401282"/>
      <point x="647.7620001895999" y="-93.0047599962"/>
    </contour>
  </outline>
</glyph>
<glyph name="asciicircum" format="2">
  <advance width="1610"/>
  <unicode hex="005E"/>
  <outline>
    <contour>
      <point x="763" y="688" type="line"/>
      <point x="861" y="561"/>
      <point x="915" y="520"/>
      <point x="979" y="520" type="curve" smooth="yes"/>
      <point x="1030" y="520"/>
      <point x="1064" y="545"/>
      <point x="1064" y="577" type="curve" smooth="yes"/>
      <point x="1064" y="621"/>
      <point x="1001" y="630"/>
      <point x="904" y="766" type="curve" smooth="yes"/>
      <point x="876" y="806"/>
      <point x="853" y="814"/>
      <point x="820" y="814" type="curve" smooth="yes"/>
      <point x="763" y="814"/>
      <point x="746" y="806"/>
      <point x="687" y="756" type="curve" smooth="yes"/>
      <point x="559" y="649"/>
      <point x="547" y="627"/>
      <point x="547" y="594" type="curve" smooth="yes"/>
      <point x="547" y="558"/>
      <point x="591" y="515"/>
      <point x="634" y="515" type="curve" smooth="yes"/>
      <point x="673" y="515"/>
      <point x="688" y="527"/>
      <point x="836" y="686" type="curve"/>
    </contour>
  </outline>
</glyph>
<glyph name="grave" format="2">
  <advance width="1350.0"/>
  <unicode hex="0060"/>
  <outline>
    <contour>
      <point x="538.0" y="810"/>
      <point x="485.0" y="747"/>
      <point x="521.0" y="667" type="curve" smooth="yes"/>
      <point x="550.0" y="602"/>
      <point x="610.0" y="541"/>
      <point x="661.0" y="510" type="curve" smooth="yes"/>
      <point x="696.0" y="489"/>
      <point x="733.0" y="477"/>
      <point x="765.0" y="477" type="curve" smooth="yes"/>
      <point x="840.0" y="477"/>
      <point x="860.0" y="552"/>
      <point x="800.0" y="607" type="curve" smooth="yes"/>
      <point x="758.0" y="645"/>
      <point x="725.0" y="686"/>
      <point x="702.0" y="749" type="curve" smooth="yes"/>
      <point x="685.0" y="796"/>
      <point x="647.0" y="810"/>
      <point x="603.0" y="810" type="curve" smooth="yes"/>
    </contour>
  </outline>
</glyph>
<glyph name="a" format="2">
  <advance width="1704.0"/>
  <unicode hex="0061"/>
  <anchor x="838" y="515" name="top"/>
  <anchor x="847" y="0" name="bottom"/>
  <anchor x="1122" y="0" name="ogonek"/>
  <outline>
    <contour>
      <point x="862" y="392" type="curve" smooth="yes"/>
      <point x="839" y="238"/>
      <point x="776" y="158"/>
      <point x="714" y="158" type="curve" smooth="yes"/>
      <point x="682" y="158"/>
      <point x="660" y="164"/>
      <point x="627" y="187" type="curve"/>
      <point x="701" y="73" type="line"/>
      <point x="694" y="95"/>
      <point x="692" y="108"/>
      <point x="692" y="127" type="curve" smooth="yes"/>
      <point x="692" y="242"/>
      <point x="781" y="358"/>
      <point x="905" y="381" type="curve" smooth="yes"/>
      <point x="922" y="385"/>
      <point x="937" y="397"/>
      <point x="937" y="420" type="curve" smooth="yes"/>
      <point x="937" y="488"/>
      <point x="893" y="526"/>
      <point x="837" y="526" type="curve" smooth="yes"/>
      <point x="686" y="526"/>
      <point x="525" y="318"/>
      <point x="525" y="143" type="curve" smooth="yes"/>
      <point x="525" y="51"/>
      <point x="599" y="-10"/>
      <point x="707" y="-10" type="curve" smooth="yes"/>
      <point x="815" y="-10"/>
      <point x="923" y="52"/>
      <point x="983" y="255" type="curve"/>
      <point x="923" y="249" type="line"/>
      <point x="962" y="141"/>
      <point x="993" y="87"/>
      <point x="1051" y="16" type="curve" smooth="yes"/>
      <point x="1061" y="4"/>
      <point x="1077" y="-7"/>
      <point x="1102" y="-7" type="curve" smooth="yes"/>
      <point x="1178" y="-7"/>
      <point x="1216" y="105"/>
      <point x="1177" y="147" type="curve" smooth="yes"/>
      <point x="1106" y="223"/>
      <point x="1090" y="285"/>
      <point x="1050" y="372" type="curve" smooth="yes"/>
      <point x="1033" y="413"/>
      <point x="989" y="446"/>
      <point x="932" y="446" type="curve" smooth="yes"/>
      <point x="899" y="446"/>
      <point x="867" y="426"/>
    </contour>
  </outline>
</glyph>
<glyph name="b" format="2">
  <advance width="1635"/>
  <unicode hex="0062"/>
  <anchor x="635" y="750" name="top"/>
  <anchor x="812" y="0" name="bottom"/>
  <outline>
    <contour>
      <point x="722" y="643" type="curve" smooth="yes"/>
      <point x="722" y="724"/>
      <point x="681" y="761"/>
      <point x="613" y="761" type="curve" smooth="yes"/>
      <point x="562" y="761"/>
      <point x="548" y="730"/>
      <point x="552" y="690" type="curve" smooth="yes"/>
      <point x="557.7443612142" y="629.2738957354"/>
      <point x="538" y="581.9130434783"/>
      <point x="538" y="464" type="curve" smooth="yes"/>
      <point x="538" y="402"/>
      <point x="549" y="292"/>
      <point x="567" y="190" type="curve" smooth="yes"/>
      <point x="576" y="139"/>
      <point x="613" y="110"/>
      <point x="651" y="110" type="curve" smooth="yes"/>
      <point x="680" y="110"/>
      <point x="697" y="129"/>
      <point x="703" y="158" type="curve" smooth="yes"/>
      <point x="727" y="273"/>
      <point x="790" y="353"/>
      <point x="883" y="353" type="curve" smooth="yes"/>
      <point x="911" y="353"/>
      <point x="920" y="339"/>
      <point x="920" y="314" type="curve" smooth="yes"/>
      <point x="920" y="206"/>
      <point x="787" y="163"/>
      <point x="708" y="163" type="curve" smooth="yes"/>
      <point x="676" y="163"/>
      <point x="643" y="171"/>
      <point x="618" y="171" type="curve" smooth="yes"/>
      <point x="568" y="171"/>
      <point x="534" y="150"/>
      <point x="534" y="105" type="curve" smooth="yes"/>
      <point x="534" y="20"/>
      <point x="635" y="-10"/>
      <point x="720" y="-10" type="curve" smooth="yes"/>
      <point x="910" y="-10"/>
      <point x="1097" y="121"/>
      <point x="1097" y="305" type="curve" smooth="yes"/>
      <point x="1097" y="461"/>
      <point x="1001" y="527"/>
      <point x="886" y="527" type="curve" smooth="yes"/>
      <point x="783" y="527"/>
      <point x="696" y="449"/>
      <point x="668" y="387" type="curve" smooth="yes"/>
      <point x="652" y="351"/>
      <point x="713" y="318"/>
      <point x="709" y="346" type="curve" smooth="yes"/>
      <point x="702" y="396"/>
      <point x="705" y="428"/>
      <point x="705" y="480" type="curve" smooth="yes"/>
      <point x="705" y="545.0469483568"/>
      <point x="722" y="607.7981220657"/>
    </contour>
  </outline>
</glyph>
<glyph name="c" format="2">
  <advance width="1539"/>
  <unicode hex="0063"/>
  <anchor x="795" y="515" name="top"/>
  <anchor x="795" y="0" name="bottom"/>
  <outline>
    <contour>
      <point x="994" y="148" type="curve" smooth="yes"/>
      <point x="994" y="206"/>
      <point x="977" y="228"/>
      <point x="941" y="228" type="curve" smooth="yes"/>
      <point x="887" y="228"/>
      <point x="896" y="166"/>
      <point x="787" y="166" type="curve" smooth="yes"/>
      <point x="709" y="166"/>
      <point x="698" y="189"/>
      <point x="698" y="216" type="curve" smooth="yes"/>
      <point x="698" y="284"/>
      <point x="767" y="353"/>
      <point x="861" y="353" type="curve" smooth="yes"/>
      <point x="891" y="353"/>
      <point x="892" y="324"/>
      <point x="913" y="324" type="curve" smooth="yes"/>
      <point x="959" y="324"/>
      <point x="983" y="368"/>
      <point x="983" y="424" type="curve" smooth="yes"/>
      <point x="983" y="506"/>
      <point x="927" y="525"/>
      <point x="871" y="525" type="curve" smooth="yes"/>
      <point x="685" y="525"/>
      <point x="526" y="390"/>
      <point x="526" y="220" type="curve" smooth="yes"/>
      <point x="526" y="86"/>
      <point x="619" y="-9"/>
      <point x="796" y="-9" type="curve" smooth="yes"/>
      <point x="911" y="-9"/>
      <point x="994" y="49"/>
    </contour>
  </outline>
</glyph>
<glyph name="d" format="2">
  <advance width="1708"/>
  <unicode hex="0064"/>
  <anchor x="1028" y="750" name="top"/>
  <anchor x="809" y="0" name="bottom"/>
  <outline>
    <contour>
      <point x="793" y="-9" type="curve" smooth="yes"/>
      <point x="869" y="-9"/>
      <point x="981" y="42"/>
      <point x="1029" y="192" type="curve"/>
      <point x="932" y="163" type="line"/>
      <point x="932" y="67"/>
      <point x="993" y="-20"/>
      <point x="1077" y="-20" type="curve" smooth="yes"/>
      <point x="1134" y="-20"/>
      <point x="1172" y="15"/>
      <point x="1172" y="71" type="curve" smooth="yes"/>
      <point x="1172" y="138"/>
      <point x="1097" y="93"/>
      <point x="1097" y="294" type="curve" smooth="yes"/>
      <point x="1097" y="401.0916905444"/>
      <point x="1129.4255165442" y="466.9550931995"/>
      <point x="1138" y="593" type="curve" smooth="yes"/>
      <point x="1144" y="702"/>
      <point x="1099" y="760"/>
      <point x="1012" y="760" type="curve" smooth="yes"/>
      <point x="981" y="760"/>
      <point x="958" y="744"/>
      <point x="958" y="691" type="curve" smooth="yes"/>
      <point x="958" y="353.1739130435"/>
      <point x="885" y="166"/>
      <point x="788" y="166" type="curve" smooth="yes"/>
      <point x="757" y="166"/>
      <point x="714" y="229"/>
      <point x="714" y="279" type="curve" smooth="yes"/>
      <point x="714" y="326"/>
      <point x="759" y="352"/>
      <point x="827" y="352" type="curve" smooth="yes"/>
      <point x="888" y="352"/>
      <point x="899" y="333"/>
      <point x="926" y="333" type="curve" smooth="yes"/>
      <point x="946" y="333"/>
      <point x="962" y="356"/>
      <point x="962" y="389" type="curve" smooth="yes"/>
      <point x="962" y="480"/>
      <point x="893" y="527"/>
      <point x="782" y="527" type="curve" smooth="yes"/>
      <point x="631" y="529"/>
      <point x="530" y="429"/>
      <point x="530" y="279" type="curve" smooth="yes"/>
      <point x="530" y="124"/>
      <point x="638" y="-9"/>
    </contour>
  </outline>
</glyph>
<glyph name="e" format="2">
  <advance width="1611"/>
  <unicode hex="0065"/>
  <anchor x="809" y="515" name="top"/>
  <anchor x="809" y="0" name="bottom"/>
  <anchor x="1005" y="41" name="ogonek"/>
  <outline>
    <contour>
      <point x="776" y="186" type="curve" smooth="yes"/>
      <point x="916" y="186"/>
      <point x="1035" y="234"/>
      <point x="1035" y="349" type="curve" smooth="yes"/>
      <point x="1035" y="464"/>
      <point x="952" y="525"/>
      <point x="832" y="525" type="curve" smooth="yes"/>
      <point x="650" y="525"/>
      <point x="534" y="357"/>
      <point x="534" y="210" type="curve" smooth="yes"/>
      <point x="534" y="82"/>
      <point x="614" y="-10"/>
      <point x="798" y="-10" type="curve" smooth="yes"/>
      <point x="972" y="-10"/>
      <point x="1082" y="69"/>
      <point x="1082" y="145" type="curve" smooth="yes"/>
      <point x="1082" y="181"/>
      <point x="1068" y="199"/>
      <point x="1039" y="199" type="curve" smooth="yes"/>
      <point x="984.8527131783001" y="199"/>
      <point x="943" y="132"/>
      <point x="785" y="132" type="curve" smooth="yes"/>
      <point x="723" y="132"/>
      <point x="703" y="148.0975609756"/>
      <point x="703" y="187" type="curve" smooth="yes"/>
      <point x="703" y="281.0282485876"/>
      <point x="757.8450704224999" y="374"/>
      <point x="835" y="374" type="curve" smooth="yes"/>
      <point x="864.0967741935" y="374"/>
      <point x="876" y="361.5384615385"/>
      <point x="876" y="338" type="curve" smooth="yes"/>
      <point x="876" y="305"/>
      <point x="812" y="281"/>
      <point x="757" y="281" type="curve" smooth="yes"/>
      <point x="725" y="281"/>
      <point x="707" y="286"/>
      <point x="693" y="286" type="curve" smooth="yes"/>
      <point x="672" y="286"/>
      <point x="663" y="276"/>
      <point x="663" y="256" type="curve" smooth="yes"/>
      <point x="663" y="219"/>
      <point x="706" y="186"/>
    </contour>
  </outline>
</glyph>
<glyph name="f" format="2">
  <advance width="1417"/>
  <unicode hex="0066"/>
  <anchor x="789" y="750" name="top"/>
  <anchor x="672" y="0" name="bottom"/>
  <outline>
    <contour>
      <point x="846" y="366" type="curve" smooth="yes"/>
      <point x="878" y="369"/>
      <point x="893" y="395"/>
      <point x="893" y="424" type="curve" smooth="yes"/>
      <point x="893" y="484"/>
      <point x="838" y="516"/>
      <point x="797" y="516" type="curve" smooth="yes"/>
      <point x="761" y="516"/>
      <point x="716" y="508"/>
      <point x="660" y="488" type="curve" smooth="yes"/>
      <point x="613" y="471"/>
      <point x="586" y="428"/>
      <point x="586" y="377" type="curve" smooth="yes"/>
      <point x="586" y="340"/>
      <point x="624" y="314"/>
      <point x="667" y="314" type="curve" smooth="yes"/>
      <point x="697" y="314"/>
      <point x="724" y="355"/>
    </contour>
    <contour>
      <point x="680" y="-10" type="curve" smooth="yes"/>
      <point x="728" y="-10"/>
      <point x="751" y="14"/>
      <point x="751" y="104" type="curve" smooth="yes"/>
      <point x="751" y="235.7333333333"/>
      <point x="721" y="309.6888888889"/>
      <point x="721" y="390" type="curve" smooth="yes"/>
      <point x="721" y="530"/>
      <point x="739" y="562"/>
      <point x="860" y="606" type="curve" smooth="yes"/>
      <point x="890" y="617"/>
      <point x="907" y="638"/>
      <point x="907" y="673" type="curve" smooth="yes"/>
      <point x="907" y="736"/>
      <point x="861" y="760"/>
      <point x="812" y="760" type="curve" smooth="yes"/>
      <point x="680" y="760"/>
      <point x="552" y="626"/>
      <point x="552" y="424" type="curve" smooth="yes"/>
      <point x="552" y="314.2295081967"/>
      <point x="577" y="270.7786885245"/>
      <point x="577" y="145" type="curve" smooth="yes"/>
      <point x="577" y="45"/>
      <point x="628" y="-10"/>
    </contour>
  </outline>
</glyph>
<glyph name="g" format="2">
  <advance width="1660"/>
  <unicode hex="0067"/>
  <anchor x="807" y="515" name="top"/>
  <anchor x="868" y="-250" name="bottom"/>
  <outline>
    <contour>
      <point x="971" y="467" type="curve" smooth="yes"/>
      <point x="936" y="467"/>
      <point x="925" y="448"/>
      <point x="925" y="404" type="curve" smooth="yes"/>
      <point x="925" y="281"/>
      <point x="848" y="216"/>
      <point x="743" y="216" type="curve" smooth="yes"/>
      <point x="712" y="216"/>
      <point x="698" y="230"/>
      <point x="698" y="256" type="curve" smooth="yes"/>
      <point x="698" y="307"/>
      <point x="773" y="366"/>
      <point x="833" y="366" type="curve" smooth="yes"/>
      <point x="878" y="366"/>
      <point x="885" y="332"/>
      <point x="920" y="332" type="curve" smooth="yes"/>
      <point x="937" y="332"/>
      <point x="957" y="356"/>
      <point x="957" y="395" type="curve" smooth="yes"/>
      <point x="957" y="460"/>
      <point x="919" y="530"/>
      <point x="808" y="530" type="curve" smooth="yes"/>
      <point x="659" y="530"/>
      <point x="525" y="405"/>
      <point x="525" y="242" type="curve" smooth="yes"/>
      <point x="525" y="116"/>
      <point x="608" y="41"/>
      <point x="742" y="41" type="curve" smooth="yes"/>
      <point x="826" y="41"/>
      <point x="950" y="76"/>
      <point x="989" y="205" type="curve"/>
      <point x="925" y="212" type="line"/>
      <point x="937" y="113"/>
      <point x="962" y="71"/>
      <point x="962" y="-16" type="curve" smooth="yes"/>
      <point x="962" y="-66.2638888889"/>
      <point x="943" y="-93"/>
      <point x="885" y="-93" type="curve" smooth="yes"/>
      <point x="774" y="-93"/>
      <point x="748" y="-73.7027027027"/>
      <point x="748" y="-51" type="curve" smooth="yes"/>
      <point x="748" y="-27"/>
      <point x="734" y="-12"/>
      <point x="697" y="-12" type="curve" smooth="yes"/>
      <point x="642" y="-12"/>
      <point x="608" y="-57.0625"/>
      <point x="608" y="-115" type="curve" smooth="yes"/>
      <point x="608" y="-175"/>
      <point x="647" y="-260"/>
      <point x="895" y="-260" type="curve" smooth="yes"/>
      <point x="1048" y="-260"/>
      <point x="1135" y="-170"/>
      <point x="1135" y="-23" type="curve" smooth="yes"/>
      <point x="1135" y="162"/>
      <point x="1090" y="229"/>
      <point x="1077" y="385" type="curve" smooth="yes"/>
      <point x="1074" y="425"/>
      <point x="1042" y="467"/>
    </contour>
  </outline>
</glyph>
<glyph name="h" format="2">
  <advance width="1693"/>
  <unicode hex="0068"/>
  <anchor x="643" y="750" name="top"/>
  <anchor x="850" y="0" name="bottom"/>
  <outline>
    <contour>
      <point x="1083" y="-12" type="curve" smooth="yes"/>
      <point x="1133" y="-12"/>
      <point x="1163" y="10"/>
      <point x="1163" y="45" type="curve" smooth="yes"/>
      <point x="1163" y="61"/>
      <point x="1158" y="78"/>
      <point x="1150" y="93" type="curve" smooth="yes"/>
      <point x="1132.6343672514" y="123.8722359976"/>
      <point x="1113" y="156"/>
      <point x="1100" y="267" type="curve" smooth="yes"/>
      <point x="1081" y="434"/>
      <point x="1049" y="532"/>
      <point x="929" y="532" type="curve" smooth="yes"/>
      <point x="846" y="532"/>
      <point x="765" y="455"/>
      <point x="694" y="297" type="curve"/>
      <point x="730" y="224" type="line"/>
      <point x="730" y="419.3325062035"/>
      <point x="752" y="506.0496277916"/>
      <point x="752" y="577" type="curve" smooth="yes"/>
      <point x="752" y="720"/>
      <point x="688" y="760"/>
      <point x="636" y="760" type="curve" smooth="yes"/>
      <point x="582" y="760"/>
      <point x="563" y="731"/>
      <point x="563" y="701" type="curve" smooth="yes"/>
      <point x="563" y="660"/>
      <point x="578" y="632"/>
      <point x="578" y="555" type="curve" smooth="yes"/>
      <point x="578" y="451.3404255319"/>
      <point x="555" y="323.5531914894"/>
      <point x="555" y="135" type="curve" smooth="yes"/>
      <point x="555" y="53.3172413793"/>
      <point x="595" y="-6"/>
      <point x="663" y="-6" type="curve" smooth="yes"/>
      <point x="697" y="-6"/>
      <point x="715.2176585448" y="2.6275789651"/>
      <point x="733" y="41" type="curve" smooth="yes"/>
      <point x="808" y="210"/>
      <point x="879" y="308"/>
      <point x="916" y="321" type="curve"/>
      <point x="923" y="289"/>
      <point x="928" y="251"/>
      <point x="940" y="143" type="curve" smooth="yes"/>
      <point x="951.9875688724001" y="50.0963412392"/>
      <point x="991.4052287582" y="-12"/>
    </contour>
  </outline>
</glyph>
<glyph name="k" format="2">
  <advance width="1678"/>
  <unicode hex="006B"/>
  <anchor x="662" y="750" name="top"/>
  <anchor x="832" y="0" name="bottom"/>
  <outline>
    <contour>
      <point x="1055" y="-7" type="curve" smooth="yes"/>
      <point x="1102" y="-7"/>
      <point x="1127" y="21"/>
      <point x="1127" y="65" type="curve" smooth="yes"/>
      <point x="1127" y="114"/>
      <point x="1101" y="166"/>
      <point x="1033" y="180" type="curve" smooth="yes"/>
      <point x="905" y="211"/>
      <point x="863" y="233"/>
      <point x="863" y="249" type="curve" smooth="yes"/>
      <point x="863" y="270"/>
      <point x="933" y="322"/>
      <point x="1045" y="355" type="curve" smooth="yes"/>
      <point x="1112" y="375"/>
      <point x="1129" y="396"/>
      <point x="1129" y="432" type="curve" smooth="yes"/>
      <point x="1129" y="493"/>
      <point x="1091" y="527"/>
      <point x="1033" y="527" type="curve" smooth="yes"/>
      <point x="922" y="527"/>
      <point x="672" y="376"/>
      <point x="672" y="229" type="curve" smooth="yes"/>
      <point x="672" y="138"/>
      <point x="914" y="-7"/>
    </contour>
    <contour>
      <point x="639" y="760" type="curve" smooth="yes"/>
      <point x="594" y="760"/>
      <point x="573" y="736"/>
      <point x="573" y="691" type="curve" smooth="yes"/>
      <point x="573" y="655"/>
      <point x="582" y="624"/>
      <point x="582" y="544" type="curve" smooth="yes"/>
      <point x="582" y="375.6783369803"/>
      <point x="555" y="213.590809628"/>
      <point x="555" y="137" type="curve" smooth="yes"/>
      <point x="555" y="19"/>
      <point x="610" y="-10"/>
      <point x="664" y="-10" type="curve" smooth="yes"/>
      <point x="706" y="-10"/>
      <point x="729" y="9"/>
      <point x="729" y="53" type="curve" smooth="yes"/>
      <point x="729" y="102"/>
      <point x="724" y="145"/>
      <point x="724" y="209" type="curve" smooth="yes"/>
      <point x="724" y="310.0129198966"/>
      <point x="761" y="420.6046511628"/>
      <point x="761" y="546" type="curve" smooth="yes"/>
      <point x="761" y="702"/>
      <point x="721" y="760"/>
    </contour>
  </outline>
</glyph>
<glyph name="l" format="2">
  <advance width="1373"/>
  <unicode hex="006C"/>
  <anchor x="664" y="750" name="top"/>
  <anchor x="733" y="0" name="bottom"/>
  <outline>
    <contour>
      <point x="751" y="625" type="curve" smooth="yes"/>
      <point x="751" y="720"/>
      <point x="717" y="760"/>
      <point x="657" y="760" type="curve" smooth="yes"/>
      <point x="614" y="760"/>
      <point x="591" y="741"/>
      <point x="583" y="696" type="curve" smooth="yes"/>
      <point x="562" y="581"/>
      <point x="552" y="463"/>
      <point x="552" y="317" type="curve" smooth="yes"/>
      <point x="552" y="21.1058201058"/>
      <point x="666" y="-11"/>
      <point x="731" y="-11" type="curve" smooth="yes"/>
      <point x="808.4074074074" y="-11"/>
      <point x="863" y="29.8648648649"/>
      <point x="863" y="97" type="curve" smooth="yes"/>
      <point x="863" y="138"/>
      <point x="852" y="168"/>
      <point x="818" y="168" type="curve" smooth="yes"/>
      <point x="804.8" y="168"/>
      <point x="793.5555555556" y="163"/>
      <point x="774" y="163" type="curve" smooth="yes"/>
      <point x="749.4545454545" y="163"/>
      <point x="729" y="167.3934426229"/>
      <point x="729" y="297" type="curve" smooth="yes"/>
      <point x="729" y="446"/>
      <point x="751" y="542"/>
    </contour>
  </outline>
</glyph>
<glyph name="m" format="2">
  <advance width="1962"/>
  <unicode hex="006D"/>
  <anchor x="1008" y="515" name="top"/>
  <anchor x="982" y="0" name="bottom"/>
  <outline>
    <contour>
      <point x="718" y="401" type="curve" smooth="yes"/>
      <point x="718" y="434"/>
      <point x="687.8947368421" y="495"/>
      <point x="614" y="495" type="curve" smooth="yes"/>
      <point x="576" y="495"/>
      <point x="557" y="470.6590909091"/>
      <point x="557" y="444" type="curve" smooth="yes"/>
      <point x="557" y="420"/>
      <point x="562" y="395"/>
      <point x="562" y="367" type="curve" smooth="yes"/>
      <point x="562" y="310.2445652174"/>
      <point x="552" y="247.4793814433"/>
      <point x="552" y="190" type="curve" smooth="yes"/>
      <point x="552" y="90"/>
      <point x="579" y="-9"/>
      <point x="672" y="-9" type="curve" smooth="yes"/>
      <point x="718" y="-9"/>
      <point x="740" y="9"/>
      <point x="744" y="42" type="curve" smooth="yes"/>
      <point x="756" y="152"/>
      <point x="773" y="247"/>
      <point x="842" y="334" type="curve" smooth="yes"/>
      <point x="865.015348769" y="364.3802603751"/>
      <point x="786.5415501576999" y="393.9189072871"/>
      <point x="805" y="369" type="curve" smooth="yes"/>
      <point x="836" y="327"/>
      <point x="846" y="277"/>
      <point x="861" y="152" type="curve" smooth="yes"/>
      <point x="874" y="41"/>
      <point x="905" y="-9"/>
      <point x="988" y="-9" type="curve" smooth="yes"/>
      <point x="1027" y="-9"/>
      <point x="1056" y="11"/>
      <point x="1065" y="50" type="curve" smooth="yes"/>
      <point x="1101" y="183"/>
      <point x="1135" y="289"/>
      <point x="1204" y="349" type="curve" smooth="yes"/>
      <point x="1275.3447366425" y="411.583102318"/>
      <point x="1142.0426870587" y="419.1699275706"/>
      <point x="1167" y="366" type="curve" smooth="yes"/>
      <point x="1188" y="321"/>
      <point x="1197" y="292"/>
      <point x="1215" y="154" type="curve" smooth="yes"/>
      <point x="1231.9707990105999" y="25.2215839782"/>
      <point x="1277.5033112583" y="-9"/>
      <point x="1358" y="-9" type="curve" smooth="yes"/>
      <point x="1410.4492753622999" y="-9"/>
      <point x="1435" y="23.5245901639"/>
      <point x="1435" y="55" type="curve" smooth="yes"/>
      <point x="1435" y="104.3119266055"/>
      <point x="1394" y="114"/>
      <point x="1379" y="275" type="curve" smooth="yes"/>
      <point x="1364" y="440"/>
      <point x="1310" y="526"/>
      <point x="1184" y="526" type="curve" smooth="yes"/>
      <point x="1094.8878923767002" y="526"/>
      <point x="1005.9065288104" y="442.5990577922"/>
      <point x="968" y="280" type="curve" smooth="yes"/>
      <point x="948" y="194"/>
      <point x="1009" y="192"/>
      <point x="1006" y="269" type="curve" smooth="yes"/>
      <point x="1005" y="300"/>
      <point x="1000" y="349"/>
      <point x="986" y="403" type="curve" smooth="yes"/>
      <point x="964.8714757611999" y="482.4834959458"/>
      <point x="935.1788617886" y="526"/>
      <point x="853" y="526" type="curve" smooth="yes"/>
      <point x="768.0117647059001" y="526"/>
      <point x="708.9688877924" y="465.9118487453"/>
      <point x="685" y="398" type="curve" smooth="yes"/>
      <point x="657.2481377803999" y="317.7178271503"/>
      <point x="718" y="291"/>
    </contour>
  </outline>
</glyph>
<glyph name="n" format="2">
  <advance width="1692"/>
  <unicode hex="006E"/>
  <anchor x="848" y="515" name="top"/>
  <anchor x="848" y="0" name="bottom"/>
  <outline>
    <contour>
      <point x="1086" y="-10" type="curve" smooth="yes"/>
      <point x="1138" y="-10"/>
      <point x="1172" y="21"/>
      <point x="1172" y="65" type="curve" smooth="yes"/>
      <point x="1172" y="98"/>
      <point x="1161" y="117"/>
      <point x="1141" y="137" type="curve" smooth="yes"/>
      <point x="1108" y="170"/>
      <point x="1095" y="233"/>
      <point x="1095" y="370" type="curve" smooth="yes"/>
      <point x="1095" y="463"/>
      <point x="1048" y="524"/>
      <point x="948" y="524" type="curve" smooth="yes"/>
      <point x="850" y="524"/>
      <point x="735" y="431"/>
      <point x="668" y="242" type="curve"/>
      <point x="718" y="186" type="line"/>
      <point x="718" y="325"/>
      <point x="745" y="341"/>
      <point x="745" y="412" type="curve" smooth="yes"/>
      <point x="745" y="478.2745098039"/>
      <point x="702.9347826087001" y="516"/>
      <point x="655" y="516" type="curve" smooth="yes"/>
      <point x="608.6764705882" y="516"/>
      <point x="585" y="494.3731343284"/>
      <point x="585" y="447" type="curve" smooth="yes"/>
      <point x="585" y="338"/>
      <point x="556" y="286"/>
      <point x="556" y="151" type="curve" smooth="yes"/>
      <point x="556" y="58"/>
      <point x="586" y="-9"/>
      <point x="655" y="-9" type="curve" smooth="yes"/>
      <point x="696" y="-9"/>
      <point x="717" y="6"/>
      <point x="733" y="59" type="curve" smooth="yes"/>
      <point x="783" y="227"/>
      <point x="875" y="357"/>
      <point x="926" y="357" type="curve" smooth="yes"/>
      <point x="944" y="357"/>
      <point x="959" y="347"/>
      <point x="984" y="317" type="curve"/>
      <point x="989" y="374"/>
      <point x="958" y="376"/>
      <point x="905" y="379" type="curve"/>
      <point x="935" y="363"/>
      <point x="939" y="341"/>
      <point x="939" y="299" type="curve" smooth="yes"/>
      <point x="939" y="95"/>
      <point x="994" y="-10"/>
    </contour>
  </outline>
</glyph>
<glyph name="o" format="2">
  <advance width="1664"/>
  <unicode hex="006F"/>
  <anchor x="846" y="515" name="top"/>
  <anchor x="846" y="0" name="bottom"/>
  <anchor x="1002" y="37" name="ogonek"/>
  <outline>
    <contour>
      <point x="847" y="-12" type="curve" smooth="yes"/>
      <point x="1006" y="-12"/>
      <point x="1127" y="108"/>
      <point x="1127" y="266" type="curve" smooth="yes"/>
      <point x="1127" y="420"/>
      <point x="1023" y="516"/>
      <point x="843" y="516" type="curve" smooth="yes"/>
      <point x="758" y="516"/>
      <point x="663" y="428"/>
      <point x="663" y="345" type="curve" smooth="yes"/>
      <point x="663" y="285"/>
      <point x="688" y="269"/>
      <point x="713" y="269" type="curve" smooth="yes"/>
      <point x="745" y="269"/>
      <point x="762" y="279"/>
      <point x="790" y="307" type="curve" smooth="yes"/>
      <point x="817.023507737" y="334.023507737"/>
      <point x="831.4" y="351"/>
      <point x="859" y="351" type="curve" smooth="yes"/>
      <point x="915.4705882353" y="351"/>
      <point x="955" y="314"/>
      <point x="955" y="258" type="curve" smooth="yes"/>
      <point x="955" y="193"/>
      <point x="907.8347826086999" y="149"/>
      <point x="842" y="149" type="curve" smooth="yes"/>
      <point x="762.447761194" y="149"/>
      <point x="712" y="193"/>
      <point x="712" y="259" type="curve" smooth="yes"/>
      <point x="712" y="299.7528089888"/>
      <point x="751.8621794112" y="340.9590263114"/>
      <point x="789" y="352" type="curve" smooth="yes"/>
      <point x="857" y="373"/>
      <point x="874" y="416"/>
      <point x="874" y="470" type="curve" smooth="yes"/>
      <point x="874" y="515"/>
      <point x="836" y="533"/>
      <point x="797" y="533" type="curve" smooth="yes"/>
      <point x="671" y="533"/>
      <point x="537" y="396.9619771863"/>
      <point x="537" y="266" type="curve" smooth="yes"/>
      <point x="537" y="104"/>
      <point x="667" y="-12"/>
    </contour>
  </outline>
</glyph>
<glyph name="p" format="2">
  <advance width="1610.0"/>
  <unicode hex="0070"/>
  <anchor x="799.0" y="515" name="top"/>
  <anchor x="653.0" y="-250" name="bottom"/>
  <outline>
    <contour>
      <point x="711.0" y="358" type="curve" smooth="yes"/>
      <point x="711.0" y="411"/>
      <point x="645.0" y="456"/>
      <point x="580.0" y="456" type="curve" smooth="yes"/>
      <point x="546.0" y="456"/>
      <point x="523.0" y="435"/>
      <point x="525.0" y="406" type="curve" smooth="yes"/>
      <point x="536.0" y="266"/>
      <point x="575.0" y="153"/>
      <point x="575.0" y="2" type="curve" smooth="yes"/>
      <point x="575.0" y="-64"/>
      <point x="563.0" y="-88"/>
      <point x="563.0" y="-151" type="curve" smooth="yes"/>
      <point x="563.0" y="-226"/>
      <point x="614.0" y="-261"/>
      <point x="657.0" y="-261" type="curve" smooth="yes"/>
      <point x="750.0" y="-261"/>
      <point x="757.0" y="-144"/>
      <point x="757.0" y="-46" type="curve" smooth="yes"/>
      <point x="757.0" y="92"/>
      <point x="711.0" y="207"/>
    </contour>
    <contour>
      <point x="733.0" y="528" type="curve" smooth="yes"/>
      <point x="635.0" y="528"/>
      <point x="584.0" y="509"/>
      <point x="584.0" y="437" type="curve" smooth="yes"/>
      <point x="584.0" y="388"/>
      <point x="633.0" y="348"/>
      <point x="678.0" y="348" type="curve" smooth="yes"/>
      <point x="705.0" y="348"/>
      <point x="713.0" y="353"/>
      <point x="726.0" y="353" type="curve" smooth="yes"/>
      <point x="798.0" y="353"/>
      <point x="902.0" y="310"/>
      <point x="902.0" y="227" type="curve" smooth="yes"/>
      <point x="902.0" y="178"/>
      <point x="866.0" y="159"/>
      <point x="813.0" y="159" type="curve" smooth="yes"/>
      <point x="750.0" y="159"/>
      <point x="719.0" y="212"/>
      <point x="674.0" y="212" type="curve" smooth="yes"/>
      <point x="650.0" y="212"/>
      <point x="626.0" y="186"/>
      <point x="626.0" y="161" type="curve" smooth="yes"/>
      <point x="626.0" y="69"/>
      <point x="719.0" y="-10"/>
      <point x="842.0" y="-10" type="curve" smooth="yes"/>
      <point x="994.0" y="-10"/>
      <point x="1084.0" y="103"/>
      <point x="1084.0" y="200" type="curve" smooth="yes"/>
      <point x="1084.0" y="411"/>
      <point x="922.0" y="528"/>
    </contour>
  </outline>
</glyph>
<glyph name="q" format="2">
  <advance width="1630"/>
  <unicode hex="0071"/>
  <anchor x="838" y="515" name="top"/>
  <anchor x="1003" y="-250" name="bottom"/>
  <outline>
    <contour>
      <point x="735" y="-10" type="curve" smooth="yes"/>
      <point x="819" y="-10"/>
      <point x="873" y="13"/>
      <point x="937" y="57" type="curve"/>
      <point x="906" y="71" type="line"/>
      <point x="902" y="-16"/>
      <point x="905" y="-99"/>
      <point x="911" y="-168" type="curve" smooth="yes"/>
      <point x="914" y="-202"/>
      <point x="951" y="-260"/>
      <point x="1005" y="-260" type="curve" smooth="yes"/>
      <point x="1055" y="-260"/>
      <point x="1108" y="-233"/>
      <point x="1155" y="-192" type="curve" smooth="yes"/>
      <point x="1175" y="-173"/>
      <point x="1187" y="-143"/>
      <point x="1187" y="-110" type="curve" smooth="yes"/>
      <point x="1187" y="-68"/>
      <point x="1160" y="-34"/>
      <point x="1124" y="-34" type="curve" smooth="yes"/>
      <point x="1101" y="-34"/>
      <point x="1082" y="-48"/>
      <point x="1057" y="-64" type="curve"/>
      <point x="1076" y="-78" type="line"/>
      <point x="1070" y="32"/>
      <point x="1070.9096434031999" y="88.849673988"/>
      <point x="1072" y="151" type="curve"/>
      <point x="1077" y="171"/>
      <point x="1102" y="218"/>
      <point x="1102" y="284" type="curve" smooth="yes"/>
      <point x="1102" y="332"/>
      <point x="1061" y="368"/>
      <point x="994" y="368" type="curve" smooth="yes"/>
      <point x="972" y="368"/>
      <point x="960" y="356"/>
      <point x="954" y="337" type="curve" smooth="yes"/>
      <point x="917" y="232"/>
      <point x="836" y="160"/>
      <point x="735" y="160" type="curve" smooth="yes"/>
      <point x="708" y="160"/>
      <point x="692" y="174"/>
      <point x="692" y="199" type="curve" smooth="yes"/>
      <point x="692" y="259"/>
      <point x="785" y="354"/>
      <point x="839" y="354" type="curve" smooth="yes"/>
      <point x="862" y="354"/>
      <point x="873" y="348"/>
      <point x="882" y="333" type="curve" smooth="yes"/>
      <point x="894" y="312"/>
      <point x="908" y="305"/>
      <point x="923" y="305" type="curve" smooth="yes"/>
      <point x="966" y="305"/>
      <point x="1000" y="338"/>
      <point x="1000" y="375" type="curve" smooth="yes"/>
      <point x="1000" y="453"/>
      <point x="937" y="525"/>
      <point x="839" y="525" type="curve" smooth="yes"/>
      <point x="679" y="525"/>
      <point x="515" y="360"/>
      <point x="515" y="208" type="curve" smooth="yes"/>
      <point x="515" y="77"/>
      <point x="588" y="-10"/>
    </contour>
  </outline>
</glyph>
<glyph name="r" format="2">
  <advance width="1558"/>
  <unicode hex="0072"/>
  <anchor x="790" y="515" name="top"/>
  <anchor x="676" y="0" name="bottom"/>
  <outline>
    <contour>
      <point x="683" y="-12" type="curve" smooth="yes"/>
      <point x="729" y="-12"/>
      <point x="740" y="12"/>
      <point x="755" y="96" type="curve" smooth="yes"/>
      <point x="773" y="202"/>
      <point x="813" y="265"/>
      <point x="978" y="332" type="curve" smooth="yes"/>
      <point x="1024" y="351"/>
      <point x="1032" y="380"/>
      <point x="1032" y="410" type="curve" smooth="yes"/>
      <point x="1032" y="477"/>
      <point x="1015" y="521"/>
      <point x="965" y="521" type="curve" smooth="yes"/>
      <point x="860" y="521"/>
      <point x="733" y="418"/>
      <point x="674" y="265" type="curve"/>
      <point x="745" y="303" type="line"/>
      <point x="718" y="461"/>
      <point x="677" y="511"/>
      <point x="578" y="511" type="curve" smooth="yes"/>
      <point x="546" y="511"/>
      <point x="521" y="494"/>
      <point x="521" y="468" type="curve" smooth="yes"/>
      <point x="521" y="449"/>
      <point x="524" y="437"/>
      <point x="540" y="403" type="curve" smooth="yes"/>
      <point x="571" y="336"/>
      <point x="581" y="254"/>
      <point x="581" y="115" type="curve" smooth="yes"/>
      <point x="581" y="45"/>
      <point x="631" y="-12"/>
    </contour>
  </outline>
</glyph>
<glyph name="s" format="2">
  <advance width="1537"/>
  <unicode hex="0073"/>
  <anchor x="762" y="515" name="top"/>
  <anchor x="762" y="0" name="bottom"/>
  <outline>
    <contour>
      <point x="713" y="-10" type="curve" smooth="yes"/>
      <point x="886.0546623794" y="-10"/>
      <point x="1012" y="44"/>
      <point x="1012" y="176" type="curve" smooth="yes"/>
      <point x="1012" y="329"/>
      <point x="740" y="287"/>
      <point x="705" y="332" type="curve"/>
      <point x="727.9495502589" y="347.6474206311"/>
      <point x="768" y="358"/>
      <point x="825" y="358" type="curve" smooth="yes"/>
      <point x="869" y="358"/>
      <point x="877" y="352"/>
      <point x="912" y="352" type="curve" smooth="yes"/>
      <point x="944" y="352"/>
      <point x="963" y="376"/>
      <point x="963" y="415" type="curve" smooth="yes"/>
      <point x="963" y="475.3539823009"/>
      <point x="922.9993570648" y="524.0000069133"/>
      <point x="830" y="525" type="curve" smooth="yes"/>
      <point x="698" y="526"/>
      <point x="542" y="480"/>
      <point x="542" y="344" type="curve" smooth="yes"/>
      <point x="542" y="181"/>
      <point x="796" y="224"/>
      <point x="840" y="181" type="curve"/>
      <point x="819.7029276349999" y="161.8305427664"/>
      <point x="783.8976377952999" y="148"/>
      <point x="715" y="148" type="curve" smooth="yes"/>
      <point x="657.1297709924" y="148"/>
      <point x="621" y="177"/>
      <point x="582" y="177" type="curve" smooth="yes"/>
      <point x="542" y="177"/>
      <point x="522" y="155"/>
      <point x="522" y="122" type="curve" smooth="yes"/>
      <point x="522" y="52.1176470588"/>
      <point x="575.3519553073" y="-10"/>
    </contour>
  </outline>
</glyph>
<glyph name="t" format="2">
  <advance width="1503"/>
  <unicode hex="0074"/>
  <anchor x="652" y="700" name="top"/>
  <anchor x="773" y="0" name="bottom"/>
  <outline>
    <contour>
      <point x="724" y="298" type="curve" smooth="yes"/>
      <point x="724" y="412"/>
      <point x="744" y="490"/>
      <point x="744" y="558" type="curve" smooth="yes"/>
      <point x="744" y="675"/>
      <point x="698" y="716"/>
      <point x="626" y="716" type="curve" smooth="yes"/>
      <point x="574" y="716"/>
      <point x="554" y="693"/>
      <point x="554" y="654" type="curve" smooth="yes"/>
      <point x="554" y="619"/>
      <point x="568" y="588"/>
      <point x="568" y="530" type="curve" smooth="yes"/>
      <point x="568" y="446.4571428571"/>
      <point x="551" y="389.0047393365"/>
      <point x="551" y="292" type="curve" smooth="yes"/>
      <point x="551" y="109"/>
      <point x="619" y="-13"/>
      <point x="817" y="-13" type="curve" smooth="yes"/>
      <point x="917.277027027" y="-13"/>
      <point x="970" y="40"/>
      <point x="970" y="116" type="curve" smooth="yes"/>
      <point x="970" y="159.9436619718"/>
      <point x="955" y="181"/>
      <point x="926" y="181" type="curve" smooth="yes"/>
      <point x="896.3626373626" y="181"/>
      <point x="880.010989011" y="161"/>
      <point x="833" y="161" type="curve" smooth="yes"/>
      <point x="761.3153153153" y="161"/>
      <point x="724" y="195.5114503817"/>
    </contour>
    <contour>
      <point x="700" y="327" type="curve" smooth="yes"/>
      <point x="778" y="358"/>
      <point x="838" y="368"/>
      <point x="941" y="374" type="curve" smooth="yes"/>
      <point x="967" y="376"/>
      <point x="982" y="398"/>
      <point x="982" y="422" type="curve" smooth="yes"/>
      <point x="982" y="477"/>
      <point x="927" y="525"/>
      <point x="857" y="525" type="curve" smooth="yes"/>
      <point x="800" y="525"/>
      <point x="727" y="512"/>
      <point x="671" y="492" type="curve" smooth="yes"/>
      <point x="609" y="469"/>
      <point x="603" y="433"/>
      <point x="603" y="391" type="curve" smooth="yes"/>
      <point x="603" y="338"/>
      <point x="639" y="302"/>
    </contour>
  </outline>
</glyph>
<glyph name="u" format="2">
  <advance width="1655"/>
  <unicode hex="0075"/>
  <anchor x="842" y="515" name="top"/>
  <anchor x="842" y="0" name="bottom"/>
  <anchor x="914" y="5" name="ogonek"/>
  <outline>
    <contour>
      <point x="849" y="-10" type="curve" smooth="yes"/>
      <point x="990" y="-10"/>
      <point x="1101" y="118"/>
      <point x="1101" y="383" type="curve" smooth="yes"/>
      <point x="1101" y="473"/>
      <point x="1063" y="517"/>
      <point x="998" y="517" type="curve" smooth="yes"/>
      <point x="944" y="517"/>
      <point x="929" y="488"/>
      <point x="929" y="439" type="curve" smooth="yes"/>
      <point x="929" y="407"/>
      <point x="933" y="382"/>
      <point x="933" y="342" type="curve" smooth="yes"/>
      <point x="933" y="256"/>
      <point x="900" y="165"/>
      <point x="837" y="165" type="curve" smooth="yes"/>
      <point x="787" y="165"/>
      <point x="724" y="245"/>
      <point x="724" y="317" type="curve" smooth="yes"/>
      <point x="724" y="350"/>
      <point x="746" y="386"/>
      <point x="746" y="411" type="curve" smooth="yes"/>
      <point x="746" y="468"/>
      <point x="693" y="518"/>
      <point x="637" y="518" type="curve" smooth="yes"/>
      <point x="611" y="518"/>
      <point x="591" y="501"/>
      <point x="583" y="479" type="curve" smooth="yes"/>
      <point x="561" y="425"/>
      <point x="551" y="376"/>
      <point x="551" y="317" type="curve" smooth="yes"/>
      <point x="551" y="181"/>
      <point x="668" y="-10"/>
    </contour>
  </outline>
</glyph>
<glyph name="v" format="2">
  <advance width="1632"/>
  <unicode hex="0076"/>
  <anchor x="806" y="515" name="top"/>
  <anchor x="806" y="0" name="bottom"/>
  <outline>
    <contour>
      <point x="695" y="67" type="curve" smooth="yes"/>
      <point x="730" y="13"/>
      <point x="764" y="-10"/>
      <point x="815" y="-10" type="curve" smooth="yes"/>
      <point x="846" y="-10"/>
      <point x="861" y="3"/>
      <point x="876" y="39" type="curve" smooth="yes"/>
      <point x="940" y="189"/>
      <point x="1015" y="241"/>
      <point x="1097" y="369" type="curve" smooth="yes"/>
      <point x="1104" y="380"/>
      <point x="1109" y="396"/>
      <point x="1109" y="412" type="curve" smooth="yes"/>
      <point x="1109" y="467"/>
      <point x="1061" y="526"/>
      <point x="1024" y="526" type="curve" smooth="yes"/>
      <point x="997" y="526"/>
      <point x="983" y="522"/>
      <point x="964" y="498" type="curve" smooth="yes"/>
      <point x="889" y="403"/>
      <point x="820" y="324"/>
      <point x="767" y="200" type="curve"/>
      <point x="816" y="190" type="line"/>
      <point x="789" y="256"/>
      <point x="761" y="327"/>
      <point x="738" y="392" type="curve" smooth="yes"/>
      <point x="712" y="463"/>
      <point x="661" y="524"/>
      <point x="572" y="524" type="curve" smooth="yes"/>
      <point x="537" y="524"/>
      <point x="519" y="502"/>
      <point x="519" y="474" type="curve" smooth="yes"/>
      <point x="519" y="411"/>
      <point x="559" y="374"/>
      <point x="607" y="252" type="curve" smooth="yes"/>
      <point x="629" y="197"/>
      <point x="668" y="108"/>
    </contour>
  </outline>
</glyph>
<glyph name="w" format="2">
  <advance width="1917.0"/>
  <unicode hex="0077"/>
  <anchor x="944.0" y="515" name="top"/>
  <anchor x="944.0" y="0" name="bottom"/>
  <outline>
    <contour>
      <point x="672.0" y="469" type="curve" smooth="yes"/>
      <point x="648.0" y="517"/>
      <point x="624.0" y="529"/>
      <point x="580.0" y="529" type="curve" smooth="yes"/>
      <point x="516.0" y="529"/>
      <point x="470.0" y="480"/>
      <point x="512.0" y="405" type="curve" smooth="yes"/>
      <point x="535.0" y="359"/>
      <point x="552.0" y="298"/>
      <point x="584.0" y="182" type="curve" smooth="yes"/>
      <point x="622.0" y="45"/>
      <point x="672.0" y="-15"/>
      <point x="753.0" y="-15" type="curve" smooth="yes"/>
      <point x="793.0" y="-15"/>
      <point x="832.0" y="16"/>
      <point x="857.0" y="72" type="curve" smooth="yes"/>
      <point x="909.0" y="183"/>
      <point x="916.0" y="286"/>
      <point x="963.0" y="351" type="curve" smooth="yes"/>
      <point x="988.0" y="382"/>
      <point x="914.0" y="377"/>
      <point x="937.0" y="352" type="curve" smooth="yes"/>
      <point x="972.0" y="311"/>
      <point x="984.0" y="189"/>
      <point x="1049.0" y="82" type="curve" smooth="yes"/>
      <point x="1092.0" y="11"/>
      <point x="1132.0" y="-13"/>
      <point x="1182.0" y="-13" type="curve" smooth="yes"/>
      <point x="1226.0" y="-13"/>
      <point x="1280.0" y="19"/>
      <point x="1316.0" y="157" type="curve" smooth="yes"/>
      <point x="1338.0" y="238"/>
      <point x="1345.0" y="315"/>
      <point x="1392.0" y="373" type="curve" smooth="yes"/>
      <point x="1407.0" y="391"/>
      <point x="1418.0" y="411"/>
      <point x="1418.0" y="432" type="curve" smooth="yes"/>
      <point x="1418.0" y="481"/>
      <point x="1374.0" y="528"/>
      <point x="1326.0" y="528" type="curve" smooth="yes"/>
      <point x="1271.0" y="528"/>
      <point x="1236.0" y="479"/>
      <point x="1220.0" y="442" type="curve" smooth="yes"/>
      <point x="1188.0" y="367"/>
      <point x="1182.0" y="215"/>
      <point x="1135.0" y="160" type="curve" smooth="yes"/>
      <point x="1106.0" y="126"/>
      <point x="1249.0" y="147"/>
      <point x="1191.0" y="172" type="curve" smooth="yes"/>
      <point x="1131.0" y="199"/>
      <point x="1139.0" y="259"/>
      <point x="1092.0" y="381" type="curve" smooth="yes"/>
      <point x="1057.0" y="471"/>
      <point x="1016.0" y="526"/>
      <point x="942.0" y="526" type="curve" smooth="yes"/>
      <point x="872.0" y="526"/>
      <point x="838.0" y="466"/>
      <point x="801.0" y="368" type="curve" smooth="yes"/>
      <point x="760.0" y="260"/>
      <point x="758.0" y="228"/>
      <point x="716.0" y="162" type="curve" smooth="yes"/>
      <point x="701.0" y="141"/>
      <point x="803.0" y="139"/>
      <point x="780.0" y="163" type="curve" smooth="yes"/>
      <point x="713.0" y="233"/>
      <point x="718.0" y="375"/>
    </contour>
  </outline>
</glyph>
<glyph name="x" format="2">
  <advance width="1589"/>
  <unicode hex="0078"/>
  <anchor x="774" y="515" name="top"/>
  <anchor x="788" y="0" name="bottom"/>
  <outline>
    <contour>
      <point x="1009" y="365" type="curve" smooth="yes"/>
      <point x="1035" y="381"/>
      <point x="1055" y="403"/>
      <point x="1055" y="439" type="curve" smooth="yes"/>
      <point x="1055" y="495"/>
      <point x="1020" y="525"/>
      <point x="978" y="525" type="curve" smooth="yes"/>
      <point x="949" y="525"/>
      <point x="912" y="513"/>
      <point x="876" y="490" type="curve" smooth="yes"/>
      <point x="720.342552601" y="390.3092752613"/>
      <point x="600" y="230"/>
      <point x="553" y="113" type="curve" smooth="yes"/>
      <point x="517" y="25"/>
      <point x="546" y="-17"/>
      <point x="598" y="-17" type="curve" smooth="yes"/>
      <point x="635" y="-17"/>
      <point x="665" y="0"/>
      <point x="697" y="48" type="curve" smooth="yes"/>
      <point x="782" y="172"/>
      <point x="883.9969105811" y="289.9981463486"/>
    </contour>
    <contour>
      <point x="1020" y="146" type="curve" smooth="yes"/>
      <point x="955" y="235"/>
      <point x="766" y="433"/>
      <point x="695" y="486" type="curve" smooth="yes"/>
      <point x="656.5919431485" y="515.7662440599"/>
      <point x="635.1290322581" y="525"/>
      <point x="608" y="525" type="curve" smooth="yes"/>
      <point x="563.2153846154" y="525"/>
      <point x="537" y="488.4782608696"/>
      <point x="537" y="441" type="curve" smooth="yes"/>
      <point x="537" y="398.2815533981"/>
      <point x="558" y="380"/>
      <point x="592" y="353" type="curve" smooth="yes"/>
      <point x="688" y="277"/>
      <point x="821" y="145"/>
      <point x="889" y="46" type="curve" smooth="yes"/>
      <point x="922" y="-2"/>
      <point x="953" y="-16"/>
      <point x="991" y="-16" type="curve" smooth="yes"/>
      <point x="1037" y="-16"/>
      <point x="1067" y="5"/>
      <point x="1067" y="42" type="curve" smooth="yes"/>
      <point x="1067" y="61"/>
      <point x="1061" y="88"/>
    </contour>
  </outline>
</glyph>
<glyph name="y" format="2">
  <advance width="1623"/>
  <unicode hex="0079"/>
  <anchor x="800" y="515" name="top"/>
  <anchor x="820" y="-250" name="bottom"/>
  <outline>
    <contour>
      <point x="735" y="435" type="curve" smooth="yes"/>
      <point x="735" y="479"/>
      <point x="706" y="523"/>
      <point x="629" y="523" type="curve" smooth="yes"/>
      <point x="572" y="523"/>
      <point x="538" y="494"/>
      <point x="538" y="343" type="curve" smooth="yes"/>
      <point x="538" y="158"/>
      <point x="624" y="78"/>
      <point x="766" y="78" type="curve" smooth="yes"/>
      <point x="821" y="78"/>
      <point x="898" y="100"/>
      <point x="954" y="205" type="curve" smooth="yes"/>
      <point x="968" y="232"/>
      <point x="903" y="255"/>
      <point x="903" y="241" type="curve" smooth="yes"/>
      <point x="903" y="149"/>
      <point x="908" y="99"/>
      <point x="908" y="-5" type="curve" smooth="yes"/>
      <point x="908" y="-57"/>
      <point x="885" y="-84"/>
      <point x="823" y="-84" type="curve" smooth="yes"/>
      <point x="704" y="-84"/>
      <point x="684" y="-44"/>
      <point x="637" y="-44" type="curve" smooth="yes"/>
      <point x="597" y="-44"/>
      <point x="574" y="-67"/>
      <point x="574" y="-110" type="curve" smooth="yes"/>
      <point x="574" y="-196"/>
      <point x="640" y="-261"/>
      <point x="829" y="-261" type="curve" smooth="yes"/>
      <point x="971" y="-261"/>
      <point x="1075" y="-177"/>
      <point x="1075" y="-5" type="curve" smooth="yes"/>
      <point x="1075" y="186"/>
      <point x="1033" y="232"/>
      <point x="1052" y="400" type="curve" smooth="yes"/>
      <point x="1061" y="480"/>
      <point x="1010" y="522"/>
      <point x="950" y="522" type="curve" smooth="yes"/>
      <point x="906" y="522"/>
      <point x="889" y="503"/>
      <point x="884" y="460" type="curve" smooth="yes"/>
      <point x="871" y="351"/>
      <point x="826" y="253"/>
      <point x="756" y="253" type="curve" smooth="yes"/>
      <point x="685" y="253"/>
      <point x="735" y="371"/>
    </contour>
  </outline>
</glyph>
<glyph name="z" format="2">
  <advance width="1625"/>
  <unicode hex="007A"/>
  <anchor x="797" y="515" name="top"/>
  <anchor x="797" y="0" name="bottom"/>
  <outline>
    <contour>
      <point x="592" y="504" type="curve" smooth="yes"/>
      <point x="551" y="495"/>
      <point x="540" y="473"/>
      <point x="540" y="440" type="curve" smooth="yes"/>
      <point x="540" y="385"/>
      <point x="580" y="332"/>
      <point x="619" y="332" type="curve" smooth="yes"/>
      <point x="650" y="332"/>
      <point x="703" y="355"/>
      <point x="802" y="355" type="curve" smooth="yes"/>
      <point x="860" y="355"/>
      <point x="873" y="350"/>
      <point x="901" y="336" type="curve"/>
      <point x="859" y="387" type="line"/>
      <point x="830.9287767975" y="330.857553595"/>
      <point x="779.1020049040001" y="284.6023288906"/>
      <point x="606" y="235" type="curve" smooth="yes"/>
      <point x="573" y="226"/>
      <point x="544" y="198"/>
      <point x="544" y="130" type="curve" smooth="yes"/>
      <point x="544" y="57.375"/>
      <point x="580" y="-10"/>
      <point x="723" y="-10" type="curve" smooth="yes"/>
      <point x="818" y="-10"/>
      <point x="940" y="0"/>
      <point x="1020" y="0" type="curve" smooth="yes"/>
      <point x="1065" y="0"/>
      <point x="1084" y="24"/>
      <point x="1084" y="60" type="curve" smooth="yes"/>
      <point x="1084" y="121"/>
      <point x="1047" y="172"/>
      <point x="983" y="172" type="curve" smooth="yes"/>
      <point x="889" y="172"/>
      <point x="828" y="156"/>
      <point x="753" y="156" type="curve" smooth="yes"/>
      <point x="748" y="156"/>
      <point x="748" y="165"/>
      <point x="755" y="180" type="curve"/>
      <point x="703" y="150" type="line"/>
      <point x="950" y="201"/>
      <point x="1023" y="314.4090909091"/>
      <point x="1023" y="374" type="curve" smooth="yes"/>
      <point x="1023" y="449"/>
      <point x="977" y="524"/>
      <point x="825" y="524" type="curve" smooth="yes"/>
      <point x="749" y="524"/>
      <point x="669" y="517"/>
    </contour>
  </outline>
</glyph>
<glyph name="braceleft" format="2">
  <advance width="1553"/>
  <unicode hex="007B"/>
  <image fileName="braceleft000000000000001.png" xScale="2.7649451141" yScale="2.7649451141" xOffset="-30.9991468395" yOffset="-416.5270469168" color="0,0,0,0.24164"/>
  <outline>
    <contour>
      <point x="948" y="638" type="curve" smooth="yes"/>
      <point x="995" y="644"/>
      <point x="1022" y="671"/>
      <point x="1022" y="719" type="curve" smooth="yes"/>
      <point x="1022" y="766"/>
      <point x="979" y="812"/>
      <point x="920" y="812" type="curve" smooth="yes"/>
      <point x="751" y="812"/>
      <point x="645" y="694"/>
      <point x="645" y="593" type="curve" smooth="yes"/>
      <point x="645" y="513"/>
      <point x="701" y="467"/>
      <point x="701" y="401" type="curve" smooth="yes"/>
      <point x="701" y="383"/>
      <point x="670" y="353"/>
      <point x="565" y="319" type="curve" smooth="yes"/>
      <point x="523.5367939997" y="305.1789313332"/>
      <point x="510" y="276.9047619048"/>
      <point x="510" y="251" type="curve" smooth="yes"/>
      <point x="510" y="194.8095238095"/>
      <point x="534.8072951975" y="158.0287007153"/>
      <point x="582" y="151" type="curve" smooth="yes"/>
      <point x="697" y="133"/>
      <point x="716" y="121"/>
      <point x="716" y="87" type="curve" smooth="yes"/>
      <point x="716" y="42"/>
      <point x="674" y="13"/>
      <point x="674" y="-74" type="curve" smooth="yes"/>
      <point x="674" y="-169"/>
      <point x="794" y="-264"/>
      <point x="922" y="-264" type="curve" smooth="yes"/>
      <point x="988" y="-264"/>
      <point x="1035" y="-216"/>
      <point x="1035" y="-159" type="curve" smooth="yes"/>
      <point x="1035" y="-116"/>
      <point x="1010.9854068299001" y="-95.9991415782"/>
      <point x="977" y="-94" type="curve" smooth="yes"/>
      <point x="891" y="-88"/>
      <point x="854" y="-69.2307692308"/>
      <point x="854" y="-38" type="curve" smooth="yes"/>
      <point x="854" y="3"/>
      <point x="892" y="51"/>
      <point x="892" y="116" type="curve" smooth="yes"/>
      <point x="892" y="196"/>
      <point x="846" y="264"/>
      <point x="635" y="279" type="curve"/>
      <point x="636" y="199" type="line"/>
      <point x="769" y="221"/>
      <point x="877" y="312"/>
      <point x="877" y="387" type="curve" smooth="yes"/>
      <point x="877" y="488"/>
      <point x="821" y="522"/>
      <point x="821" y="575" type="curve" smooth="yes"/>
      <point x="821" y="609"/>
      <point x="846" y="624"/>
    </contour>
  </outline>
</glyph>
<glyph name="bar" format="2">
  <advance width="1349"/>
  <unicode hex="007C"/>
  <outline>
    <contour>
      <point x="762" y="680" type="curve" smooth="yes"/>
      <point x="762" y="778"/>
      <point x="722" y="818"/>
      <point x="657" y="818" type="curve" smooth="yes"/>
      <point x="608" y="818"/>
      <point x="593" y="788"/>
      <point x="595" y="743" type="curve" smooth="yes"/>
      <point x="600" y="585"/>
      <point x="580" y="484"/>
      <point x="580" y="294" type="curve" smooth="yes"/>
      <point x="580" y="152"/>
      <point x="586" y="64"/>
      <point x="612" y="-72" type="curve" smooth="yes"/>
      <point x="624" y="-135"/>
      <point x="654" y="-164"/>
      <point x="698" y="-164" type="curve" smooth="yes"/>
      <point x="744" y="-164"/>
      <point x="773" y="-136"/>
      <point x="773" y="-78" type="curve" smooth="yes"/>
      <point x="773" y="14"/>
      <point x="747" y="80"/>
      <point x="747" y="317" type="curve" smooth="yes"/>
      <point x="747" y="459"/>
      <point x="762" y="577"/>
    </contour>
  </outline>
</glyph>
<glyph name="braceright" format="2">
  <advance width="1553"/>
  <unicode hex="007D"/>
  <image fileName="parenleft.png" xScale="2.5963710802" yScale="2.5963710802" xOffset="-5235.7271646197" yOffset="-485.3762351949" color="0,0,0,0.18426"/>
  <outline>
    <contour>
      <point x="632" y="-87" type="curve" smooth="yes"/>
      <point x="569" y="-87"/>
      <point x="544" y="-107"/>
      <point x="544" y="-152" type="curve" smooth="yes"/>
      <point x="544" y="-213"/>
      <point x="599" y="-263"/>
      <point x="665" y="-263" type="curve" smooth="yes"/>
      <point x="833.5306859206" y="-263"/>
      <point x="912" y="-179"/>
      <point x="912" y="-51" type="curve" smooth="yes"/>
      <point x="912" y="26"/>
      <point x="850" y="81"/>
      <point x="850" y="129" type="curve" smooth="yes"/>
      <point x="850" y="172"/>
      <point x="873" y="182"/>
      <point x="995" y="205" type="curve" smooth="yes"/>
      <point x="1027" y="211"/>
      <point x="1038" y="248.2"/>
      <point x="1038" y="277" type="curve" smooth="yes"/>
      <point x="1038" y="319.5862068966"/>
      <point x="1017" y="364"/>
      <point x="975" y="372" type="curve" smooth="yes"/>
      <point x="860" y="393"/>
      <point x="841" y="402"/>
      <point x="841" y="432" type="curve" smooth="yes"/>
      <point x="841" y="490"/>
      <point x="893" y="524"/>
      <point x="893" y="592" type="curve" smooth="yes"/>
      <point x="893" y="720"/>
      <point x="775" y="814"/>
      <point x="626" y="814" type="curve" smooth="yes"/>
      <point x="562" y="814"/>
      <point x="524" y="795"/>
      <point x="524" y="742" type="curve" smooth="yes"/>
      <point x="524" y="695.4545454545"/>
      <point x="550.0496400581" y="654.990494457"/>
      <point x="597" y="646" type="curve" smooth="yes"/>
      <point x="701.1749872093001" y="625.9663486136"/>
      <point x="717" y="608.3384615385"/>
      <point x="717" y="578" type="curve" smooth="yes"/>
      <point x="717" y="532"/>
      <point x="665" y="490"/>
      <point x="665" y="419" type="curve" smooth="yes"/>
      <point x="665" y="345"/>
      <point x="743" y="259"/>
      <point x="926" y="247" type="curve"/>
      <point x="925" y="329" type="line"/>
      <point x="773" y="303"/>
      <point x="674" y="223"/>
      <point x="674" y="140" type="curve" smooth="yes"/>
      <point x="674" y="55"/>
      <point x="736" y="20"/>
      <point x="736" y="-35" type="curve" smooth="yes"/>
      <point x="736" y="-73"/>
      <point x="708.8358208955" y="-87"/>
    </contour>
  </outline>
</glyph>
<glyph name="asciitilde" format="2">
  <advance width="1700"/>
  <unicode hex="007E"/>
  <image fileName="S_creen S_hot 2020-09-24 at 10.58.01 P_M_.png" xScale="5.8856538257" yScale="5.8856538257" xOffset="-8568.9909182198" yOffset="-705.563910406" color="0,0,0,0.31859"/>
  <outline>
    <contour>
      <point x="641" y="121" type="curve" smooth="yes"/>
      <point x="696" y="121"/>
      <point x="691" y="201"/>
      <point x="751" y="201" type="curve" smooth="yes"/>
      <point x="808" y="201"/>
      <point x="863" y="115"/>
      <point x="964" y="115" type="curve" smooth="yes"/>
      <point x="1082" y="115"/>
      <point x="1150" y="192"/>
      <point x="1150" y="300" type="curve" smooth="yes"/>
      <point x="1150" y="358"/>
      <point x="1129" y="381"/>
      <point x="1089" y="381" type="curve" smooth="yes"/>
      <point x="1025" y="381"/>
      <point x="1018" y="301"/>
      <point x="960" y="301" type="curve" smooth="yes"/>
      <point x="898" y="301"/>
      <point x="838" y="390"/>
      <point x="718" y="390" type="curve" smooth="yes"/>
      <point x="592" y="390"/>
      <point x="550" y="313"/>
      <point x="550" y="234" type="curve" smooth="yes"/>
      <point x="550" y="178"/>
      <point x="584" y="121"/>
    </contour>
  </outline>
</glyph>
<glyph name="exclamdown" format="2">
  <advance width="1309"/>
  <unicode hex="00A1"/>
  <outline>
    <contour>
      <point x="574" y="-142" type="curve" smooth="yes"/>
      <point x="574" y="-226"/>
      <point x="613" y="-260"/>
      <point x="675" y="-260" type="curve" smooth="yes"/>
      <point x="727" y="-260"/>
      <point x="743" y="-226"/>
      <point x="741" y="-181" type="curve" smooth="yes"/>
      <point x="738.6182105878" y="-100.0191599868"/>
      <point x="746" y="-30.9325842697"/>
      <point x="746" y="31" type="curve" smooth="yes"/>
      <point x="746" y="95"/>
      <point x="742" y="134"/>
      <point x="731" y="190" type="curve" smooth="yes"/>
      <point x="721" y="236"/>
      <point x="690" y="256"/>
      <point x="643" y="256" type="curve" smooth="yes"/>
      <point x="600" y="256"/>
      <point x="573" y="228"/>
      <point x="573" y="170" type="curve" smooth="yes"/>
      <point x="573" y="131"/>
      <point x="579" y="67"/>
      <point x="579" y="5" type="curve" smooth="yes"/>
      <point x="579" y="-52.2389380531"/>
      <point x="574" y="-100.3716814159"/>
    </contour>
    <contour>
      <point x="637" y="505" type="curve" smooth="yes"/>
      <point x="580" y="505"/>
      <point x="550" y="478"/>
      <point x="550" y="435" type="curve" smooth="yes"/>
      <point x="550" y="380"/>
      <point x="588" y="327"/>
      <point x="670" y="327" type="curve" smooth="yes"/>
      <point x="723" y="327"/>
      <point x="759" y="356"/>
      <point x="759" y="416" type="curve" smooth="yes"/>
      <point x="759" y="473"/>
      <point x="713" y="505"/>
    </contour>
  </outline>
</glyph>
<glyph name="cent" format="2">
  <advance width="1603.0"/>
  <unicode hex="00A2"/>
  <outline>
    <contour>
      <point x="1052" y="165" type="curve" smooth="yes"/>
      <point x="1052" y="210"/>
      <point x="1034" y="232"/>
      <point x="1001" y="232" type="curve" smooth="yes"/>
      <point x="938.8831775701" y="232"/>
      <point x="945.785046729" y="153"/>
      <point x="790" y="153" type="curve" smooth="yes"/>
      <point x="700.3636363636" y="153"/>
      <point x="688" y="181.98"/>
      <point x="688" y="216" type="curve" smooth="yes"/>
      <point x="688" y="289.9562043796"/>
      <point x="760" y="365"/>
      <point x="858" y="365" type="curve" smooth="yes"/>
      <point x="930" y="365"/>
      <point x="932.7950819672001" y="298"/>
      <point x="983" y="298" type="curve" smooth="yes"/>
      <point x="1029" y="298"/>
      <point x="1053" y="338"/>
      <point x="1053" y="388" type="curve" smooth="yes"/>
      <point x="1053" y="479"/>
      <point x="969" y="525"/>
      <point x="871" y="525" type="curve" smooth="yes"/>
      <point x="685" y="525"/>
      <point x="526" y="390"/>
      <point x="526" y="220" type="curve" smooth="yes"/>
      <point x="526" y="86"/>
      <point x="619" y="-9"/>
      <point x="796" y="-9" type="curve" smooth="yes"/>
      <point x="942.432" y="-9"/>
      <point x="1052" y="57"/>
    </contour>
    <contour>
      <point x="1082" y="599"/>
      <point x="1050" y="660"/>
      <point x="1001" y="661" type="curve" smooth="yes"/>
      <point x="968" y="662"/>
      <point x="938" y="640"/>
      <point x="908" y="594" type="curve" smooth="yes"/>
      <point x="811" y="446"/>
      <point x="683" y="155"/>
      <point x="620" y="-95" type="curve" smooth="yes"/>
      <point x="607" y="-146"/>
      <point x="630" y="-187"/>
      <point x="680" y="-187" type="curve" smooth="yes"/>
      <point x="720" y="-188"/>
      <point x="748" y="-163"/>
      <point x="759" y="-118" type="curve" smooth="yes"/>
      <point x="822" y="133"/>
      <point x="913" y="331"/>
      <point x="1036" y="527" type="curve" smooth="yes"/>
    </contour>
  </outline>
</glyph>
<glyph name="sterling" format="2">
  <advance width="1700"/>
  <unicode hex="00A3"/>
  <outline>
    <contour>
      <point x="824" y="715" type="curve" smooth="yes"/>
      <point x="661" y="715"/>
      <point x="578" y="624"/>
      <point x="578" y="535" type="curve" smooth="yes"/>
      <point x="578" y="415.4390243902"/>
      <point x="744" y="347.2682926829"/>
      <point x="744" y="234" type="curve" smooth="yes"/>
      <point x="744" y="181.6612903226"/>
      <point x="708.4776119403" y="124"/>
      <point x="674" y="124" type="curve" smooth="yes"/>
      <point x="673" y="124"/>
      <point x="674" y="107"/>
      <point x="674" y="96" type="curve" smooth="yes"/>
      <point x="674" y="86"/>
      <point x="673" y="77"/>
      <point x="674" y="77" type="curve" smooth="yes"/>
      <point x="742" y="77"/>
      <point x="809.5797101449" y="-19"/>
      <point x="945" y="-19" type="curve" smooth="yes"/>
      <point x="1087.6909090909" y="-19"/>
      <point x="1163" y="41.9677419355"/>
      <point x="1163" y="107" type="curve" smooth="yes"/>
      <point x="1163" y="155.7951807229"/>
      <point x="1136.7297297297" y="188"/>
      <point x="1091" y="188" type="curve" smooth="yes"/>
      <point x="1043" y="188"/>
      <point x="1009.6571428571" y="152"/>
      <point x="945" y="152" type="curve" smooth="yes"/>
      <point x="863.4117647058999" y="152"/>
      <point x="804" y="207"/>
      <point x="653" y="207" type="curve" smooth="yes"/>
      <point x="577" y="207"/>
      <point x="532" y="168"/>
      <point x="532" y="112" type="curve" smooth="yes"/>
      <point x="532" y="45"/>
      <point x="584.2913907285" y="-12"/>
      <point x="673" y="-12" type="curve" smooth="yes"/>
      <point x="799" y="-12"/>
      <point x="907" y="100"/>
      <point x="907" y="223" type="curve" smooth="yes"/>
      <point x="907" y="420"/>
      <point x="754" y="481"/>
      <point x="754" y="521" type="curve" smooth="yes"/>
      <point x="754" y="539"/>
      <point x="777" y="549"/>
      <point x="824" y="549" type="curve" smooth="yes"/>
      <point x="873" y="549"/>
      <point x="886" y="541"/>
      <point x="886" y="529" type="curve" smooth="yes"/>
      <point x="886" y="524"/>
      <point x="883" y="518"/>
      <point x="883" y="507" type="curve" smooth="yes"/>
      <point x="883" y="485"/>
      <point x="902.0625" y="462"/>
      <point x="944" y="462" type="curve" smooth="yes"/>
      <point x="1024.7874015748" y="462"/>
      <point x="1058" y="505.7272727273"/>
      <point x="1058" y="573" type="curve" smooth="yes"/>
      <point x="1058" y="625"/>
      <point x="1016" y="715"/>
    </contour>
    <contour>
      <point x="610" y="402" type="curve" smooth="yes"/>
      <point x="563" y="398"/>
      <point x="541" y="376"/>
      <point x="541" y="343" type="curve" smooth="yes"/>
      <point x="541" y="282"/>
      <point x="589" y="253"/>
      <point x="637" y="253" type="curve" smooth="yes"/>
      <point x="719" y="253"/>
      <point x="883" y="265"/>
      <point x="944" y="265" type="curve" smooth="yes"/>
      <point x="982" y="265"/>
      <point x="1008" y="262"/>
      <point x="1021" y="262" type="curve" smooth="yes"/>
      <point x="1075" y="262"/>
      <point x="1112" y="299"/>
      <point x="1112" y="344" type="curve" smooth="yes"/>
      <point x="1112" y="389"/>
      <point x="1065" y="414"/>
      <point x="979" y="414" type="curve" smooth="yes"/>
      <point x="853" y="414"/>
      <point x="709" y="409"/>
    </contour>
  </outline>
</glyph>
